<?xml version="1.0" encoding="UTF-8" standalone="no"?>
<svg
   width="1024"
   height="1024"
   viewBox="0 0 1024 1024"
   version="1.1"
   id="svg18"
   sodipodi:docname="logo-black.svg"
   inkscape:version="1.1.2 (0a00cf5339, 2022-02-04)"
   xmlns:inkscape="http://www.inkscape.org/namespaces/inkscape"
   xmlns:sodipodi="http://sodipodi.sourceforge.net/DTD/sodipodi-0.dtd"
   xmlns="http://www.w3.org/2000/svg"
   xmlns:svg="http://www.w3.org/2000/svg">
  <defs
     id="defs22" />
  <sodipodi:namedview
     id="namedview20"
     pagecolor="#ffffff"
     bordercolor="#666666"
     borderopacity="1.0"
     inkscape:pageshadow="2"
     inkscape:pageopacity="0.0"
     inkscape:pagecheckerboard="0"
     showgrid="false"
     inkscape:zoom="0.32"
     inkscape:cx="-76.5625"
     inkscape:cy="460.9375"
     inkscape:window-width="1551"
     inkscape:window-height="970"
     inkscape:window-x="90"
     inkscape:window-y="77"
     inkscape:window-maximized="0"
     inkscape:current-layer="svg18" />
  <path
     d="M 634.768 271.725 C 636.565 271.947, 639.265 271.943, 640.768 271.715 C 642.271 271.486, 640.800 271.304, 637.500 271.310 C 634.200 271.315, 632.971 271.502, 634.768 271.725 M 474.397 296 C 474.397 303.975, 474.553 307.238, 474.743 303.250 C 474.932 299.262, 474.932 292.738, 474.743 288.750 C 474.553 284.762, 474.397 288.025, 474.397 296 M 484.360 327 C 484.360 332.225, 484.529 334.363, 484.735 331.750 C 484.941 329.137, 484.941 324.863, 484.735 322.250 C 484.529 319.637, 484.360 321.775, 484.360 327 M 747.589 512.118 C 743.356 513.111, 736.970 516.625, 735.728 518.646 C 735.303 519.336, 734.349 520.508, 733.608 521.250 C 731.922 522.936, 729 528.515, 729 530.049 C 729 531.727, 725.780 538.377, 724.552 539.235 C 723.973 539.639, 722.038 539.976, 720.250 539.985 C 718.462 539.993, 717 540.381, 717 540.847 C 717 541.313, 716.100 542.732, 715 544 C 712.737 546.609, 712.474 549.149, 714.143 552.268 C 714.988 553.845, 714.992 554.503, 714.161 554.780 C 713.542 554.986, 712.550 556.957, 711.957 559.160 C 711.070 562.453, 711.166 563.605, 712.497 565.636 C 713.388 566.996, 714.878 568.396, 715.808 568.748 C 716.739 569.100, 718.095 569.976, 718.821 570.694 C 719.548 571.412, 720.898 572.037, 721.821 572.081 C 722.745 572.126, 725.738 573.364, 728.473 574.831 C 732.770 577.138, 733.557 578.043, 734.264 581.500 C 734.737 583.811, 734.684 586.379, 734.139 587.582 C 732.909 590.297, 724.923 592.795, 710.686 594.919 C 704.216 595.885, 699.477 597.070, 699.239 597.783 C 698.801 599.096, 690.329 599.311, 686.052 598.118 C 684.389 597.654, 680.580 593.114, 674.176 583.967 C 662.915 567.882, 661.051 564.116, 661.022 557.388 C 661.006 553.710, 660.199 550.777, 658.143 546.930 C 653.674 538.565, 649.427 537.027, 652.583 544.917 C 654.485 549.668, 653.611 551.650, 651.149 548.169 C 647.655 543.231, 644.138 539.528, 643.524 540.143 C 643.171 540.495, 643.584 542.462, 644.441 544.514 C 646.259 548.864, 646.374 550, 645 550 C 644.450 550, 644 549.421, 644 548.712 C 644 548.004, 642.626 545.866, 640.947 543.962 L 637.895 540.500 638.306 543.500 C 638.532 545.150, 639.084 547.366, 639.532 548.424 C 640.193 549.982, 640.022 550.223, 638.636 549.690 C 633.041 547.544, 638.462 559.192, 645.317 564.047 C 652.315 569.004, 654.733 571.900, 657.672 578.844 C 661.288 587.388, 667.286 598.293, 669.570 600.477 C 670.158 601.040, 671.380 602.697, 672.284 604.160 C 674.486 607.723, 683.755 611.833, 692.737 613.229 L 700.020 614.362 701.114 618.431 C 702.460 623.441, 703.242 623.965, 709.392 623.985 L 714.285 624 713.413 630.250 C 712.934 633.688, 712.484 643.475, 712.413 652 C 712.342 660.525, 711.709 670.650, 711.007 674.500 C 710.305 678.350, 709.566 687.800, 709.365 695.500 C 709.164 703.200, 708.723 719.175, 708.385 731 C 708.039 743.126, 708.172 754.026, 708.691 756 C 709.575 759.364, 709.843 759.532, 715.555 760.329 C 718.825 760.785, 722.418 761.333, 723.541 761.546 C 725.853 761.985, 731.139 771.754, 733.166 779.332 C 733.853 781.899, 734.771 784, 735.207 784 C 735.643 784, 736 784.661, 736 785.469 C 736 786.277, 738.693 793.025, 741.985 800.465 C 749.914 818.388, 750.660 821.513, 749.007 829.894 C 747.589 837.086, 746.485 840.161, 743.941 844 C 738.067 852.865, 744.799 859.095, 752.164 851.610 C 753.999 849.745, 756.625 846.578, 758 844.571 C 759.375 842.565, 761.713 840.267, 763.196 839.464 C 764.679 838.661, 767.101 836.884, 768.579 835.514 C 770.878 833.383, 771.189 832.448, 770.732 829.039 C 770.438 826.848, 769.479 824.336, 768.600 823.457 C 763.400 818.257, 760.838 810.454, 757.450 789.500 C 756.561 784, 754.264 775, 752.346 769.500 C 750.428 764, 748.613 758.712, 748.313 757.750 C 747.853 756.277, 748.423 756, 751.914 756 C 754.194 756, 758.761 754.863, 762.062 753.474 L 768.065 750.947 771.377 753.474 C 775.288 756.457, 775.770 756.518, 778.182 754.336 C 779.905 752.776, 780.163 752.804, 782.272 754.786 C 785.406 757.730, 791.888 758.627, 795.719 756.645 C 799.140 754.876, 805.788 747.762, 812.521 738.665 C 824.032 723.112, 826.267 721.699, 837 723.184 C 850.575 725.063, 855 724.153, 855 719.481 C 855 717.491, 852.830 715.115, 846.406 710.072 C 843.400 707.711, 838.462 705.924, 830.873 704.448 C 819.705 702.277, 817.812 703.010, 815.485 710.408 C 813.821 715.697, 813.505 716.040, 808.620 717.836 C 805.804 718.872, 802.273 720.013, 800.772 720.373 C 798.225 720.984, 798.080 720.844, 798.573 718.263 C 799.022 715.910, 798.124 714.462, 792.512 708.500 C 783.160 698.565, 778 691.670, 778 689.111 C 778 687.896, 776.160 684.133, 773.911 680.747 C 771.662 677.361, 768.512 671.996, 766.911 668.824 C 764.029 663.115, 764 662.882, 764.011 645.779 L 764.022 628.500 768.125 632.790 C 772.061 636.907, 772.323 637.018, 774.579 635.540 C 775.872 634.693, 777.556 634, 778.322 634 C 779.088 634, 782.876 637.500, 786.739 641.778 C 790.602 646.057, 795.503 650.444, 797.631 651.528 C 799.759 652.613, 801.650 653.837, 801.833 654.250 C 802.017 654.663, 802.611 655, 803.153 655 C 803.696 655, 806.102 656.350, 808.500 658 C 810.898 659.650, 813.225 661, 813.670 661 C 814.115 661, 816.396 661.788, 818.740 662.750 C 822.081 664.122, 823.245 665.255, 824.135 668 C 825.404 671.911, 828.925 679.231, 829.907 680 C 830.259 680.275, 831.334 681.737, 832.296 683.250 C 835.789 688.739, 838.487 684.776, 835.366 678.741 C 833.020 674.204, 836.008 675.724, 838.500 680.335 C 841.828 686.492, 846.055 683.588, 844.113 676.479 C 843.076 672.681, 838.193 666.349, 834.806 664.411 C 833.931 663.910, 829.904 660.531, 825.858 656.902 C 821.811 653.274, 814.225 646.595, 809 642.061 C 787.392 623.312, 788.361 624.325, 789.806 621.973 C 790.990 620.046, 790.662 619.320, 786.306 614.220 C 773.986 599.794, 768.713 594.971, 761.717 591.730 L 754.800 588.525 755.324 584.618 C 755.613 582.470, 756.367 580.391, 757.002 579.999 C 757.636 579.607, 761.871 579.024, 766.413 578.703 C 780.246 577.727, 787.660 573.320, 793.671 562.500 C 796.127 558.080, 796.451 556.457, 796.465 548.500 C 796.480 540.531, 796.156 538.880, 793.640 534.084 C 789.981 527.111, 781.906 519.063, 775.180 515.684 C 767.045 511.598, 755.930 510.162, 747.589 512.118 M 404.250 842.735 C 406.863 842.941, 411.137 842.941, 413.750 842.735 C 416.363 842.529, 414.225 842.360, 409 842.360 C 403.775 842.360, 401.637 842.529, 404.250 842.735 M 484.750 842.737 C 487.637 842.939, 492.363 842.939, 495.250 842.737 C 498.137 842.535, 495.775 842.370, 490 842.370 C 484.225 842.370, 481.863 842.535, 484.750 842.737 M 603.308 842.748 C 610.353 842.920, 621.603 842.919, 628.308 842.747 C 635.014 842.574, 629.250 842.433, 615.500 842.434 C 601.750 842.434, 596.264 842.576, 603.308 842.748 M 485.750 900.740 C 489.188 900.936, 494.813 900.936, 498.250 900.740 C 501.688 900.545, 498.875 900.385, 492 900.385 C 485.125 900.385, 482.313 900.545, 485.750 900.740"
     stroke="none"
     fill="#d08016"
     fill-rule="evenodd"
     id="path4"
     style="fill:#060401;fill-opacity:1" />
  <path
     d="M 334.086 509.397 C 333.448 510.165, 332.022 510.557, 330.918 510.268 C 329.707 509.952, 328.425 510.404, 327.691 511.407 C 326.871 512.530, 325.338 512.979, 322.987 512.786 C 319.920 512.534, 319.333 512.878, 318.115 515.644 C 317.005 518.163, 315.963 518.910, 312.865 519.406 C 309.475 519.948, 308.998 520.360, 308.985 522.762 C 308.966 526.190, 307.741 528.197, 305.908 527.803 C 304.999 527.607, 304.381 528.547, 304.164 530.458 C 303.978 532.084, 302.966 534.162, 301.914 535.075 C 299.825 536.886, 299.404 540.004, 301.029 541.629 C 301.735 542.335, 301.580 543.577, 300.535 545.579 C 298.380 549.712, 298.579 553.704, 301.006 555.003 C 302.687 555.903, 302.909 556.718, 302.378 560.038 C 301.954 562.687, 302.118 564, 302.872 564 C 303.492 564, 304 564.675, 304 565.500 C 304 566.325, 304.633 567, 305.406 567 C 306.335 567, 306.629 567.701, 306.273 569.066 C 305.479 572.101, 307.920 576, 310.614 576 C 312.103 576, 313.342 576.939, 314.195 578.714 C 314.913 580.206, 316.839 582.119, 318.477 582.964 C 320.114 583.809, 322.601 585.625, 324.003 587 C 328.227 591.140, 330.393 591.859, 338.624 591.856 C 347.852 591.852, 351.764 590.649, 352.193 587.684 C 352.479 585.705, 352.624 585.753, 354.355 588.407 C 356.439 591.601, 355.936 592.300, 350.436 593.864 C 343.725 595.774, 323.801 612.903, 324.801 615.903 C 325.053 616.658, 324.632 617.626, 323.866 618.055 C 323.100 618.484, 318.006 622.022, 312.545 625.917 C 307.085 629.813, 302.117 633, 301.505 633 C 300.893 633, 298.167 634.085, 295.446 635.412 C 289.685 638.221, 276.501 643, 274.514 643 C 273.762 643, 272.941 642.212, 272.689 641.250 C 272.438 640.288, 272.180 643.188, 272.116 647.695 L 272 655.889 277.257 653.483 C 280.148 652.159, 286.523 649.914, 291.423 648.494 C 301.810 645.484, 310 642.126, 310 640.877 C 310 640.395, 310.726 640, 311.613 640 C 313.058 640, 319.037 635.920, 328.930 628.182 C 332.140 625.672, 334.840 625.203, 336 626.955 C 336.275 627.370, 338.188 628.260, 340.250 628.933 C 344.509 630.321, 344.462 630.195, 346.050 644.336 C 347.014 652.919, 346.954 654.393, 345.577 655.914 C 344.710 656.873, 344 658.147, 344 658.745 C 344 659.344, 343.623 659.983, 343.162 660.167 C 342.326 660.499, 332.222 673.293, 326.479 681.292 C 320.873 689.099, 308.043 706.481, 306.028 709 C 304.927 710.375, 304.021 712.063, 304.013 712.750 C 304.006 713.438, 303.562 714, 303.026 714 C 302.490 714, 301.407 715.237, 300.620 716.750 C 299.832 718.263, 298.021 720.850, 296.595 722.500 C 295.169 724.150, 294.002 725.857, 294.001 726.294 C 294.001 726.730, 292.980 728.187, 291.734 729.531 C 290.488 730.874, 288.625 733.540, 287.594 735.455 L 285.720 738.936 289.110 742.026 C 290.974 743.725, 294.188 746.670, 296.250 748.570 C 298.527 750.668, 300 752.942, 300 754.360 C 300 756.116, 300.932 757.084, 303.750 758.257 C 309.925 760.827, 318.195 763.740, 323.328 765.153 C 327.958 766.428, 328.132 766.606, 327.578 769.491 C 324.655 784.709, 324.796 797.789, 328.051 813.500 C 330.793 826.737, 330.442 831.042, 325.952 839.236 C 323.370 843.946, 323.601 844, 346.500 844 C 370.318 844, 370.950 843.796, 365.147 837.994 C 360.314 833.160, 358.807 828.829, 359.580 821.995 C 359.953 818.698, 360.650 816, 361.129 816 C 361.608 816, 362 815.100, 362 814 C 362 812.900, 362.450 812, 363 812 C 363.550 812, 364 810.962, 364 809.694 C 364 808.426, 364.850 804.713, 365.889 801.444 C 366.928 798.175, 368.970 791.675, 370.426 786.999 C 373.611 776.775, 373.785 776.483, 377.180 775.652 C 378.654 775.292, 380.625 774.233, 381.559 773.298 C 382.915 771.942, 384.801 771.652, 390.914 771.861 C 397.123 772.072, 399.557 771.685, 403.794 769.811 C 406.667 768.540, 409.263 766.731, 409.563 765.791 C 410.580 762.605, 406.237 734.908, 401.834 716.500 C 401.308 714.300, 400.649 711.150, 400.370 709.500 C 400.092 707.850, 399.472 705.600, 398.994 704.500 C 398.515 703.400, 397.871 700.813, 397.562 698.750 C 396.278 690.181, 395.736 688, 394.891 688 C 394.401 688, 394 686.775, 394 685.278 C 394 683.781, 393.134 679.619, 392.076 676.028 C 387.216 659.538, 385.797 652.999, 386.283 649.339 C 389.253 627.011, 389.942 620.550, 389.969 614.785 C 389.997 608.772, 390.314 607.712, 393 604.653 C 394.880 602.512, 396 600.137, 396 598.293 C 396 595.884, 397.157 594.411, 402.372 590.179 C 413.673 581.011, 421.914 571.081, 424.929 563 C 425.647 561.075, 426.871 558.053, 427.648 556.284 C 428.425 554.515, 429.917 550.389, 430.963 547.115 C 434.334 536.563, 436.924 533.298, 445.312 529.027 C 448.493 527.408, 454.016 520.405, 453.968 518.053 C 453.941 516.743, 453.728 516.774, 452.608 518.250 C 450.811 520.617, 449.065 520.466, 449.710 518 C 449.998 516.900, 450.631 516, 451.117 516 C 451.602 516, 452 515.100, 452 514 C 452 512.667, 451.333 512, 450 512 C 448.900 512, 448 512.402, 448 512.893 C 448 513.955, 444.939 515.272, 444.196 514.530 C 443.912 514.245, 444.496 513.110, 445.494 512.006 C 449.013 508.118, 444.785 509.901, 440.767 514 C 438.610 516.200, 436.431 518, 435.923 518 C 434.705 518, 434.732 517.845, 436.604 514.091 C 438.444 510.404, 438.008 509.344, 435.347 511.037 C 431.914 513.222, 428.288 520.295, 427.646 526.062 C 427.176 530.281, 425.213 535.137, 419.513 546.180 C 415.381 554.187, 412 561.253, 412 561.884 C 412 563.981, 404.947 573.691, 402.454 575.024 C 401.104 575.747, 400 576.712, 400 577.169 C 400 577.626, 399.541 578, 398.980 578 C 398.419 578, 396.282 579.036, 394.230 580.302 C 392.179 581.569, 389.683 582.430, 388.684 582.216 C 387.686 582.003, 384.411 582.992, 381.407 584.414 C 373.944 587.948, 372.676 587.842, 373.479 583.750 C 374.818 576.923, 376.048 575.897, 388.750 571.008 C 390.538 570.320, 392 569.362, 392 568.879 C 392 568.395, 392.648 568, 393.441 568 C 395.831 568, 396.281 566.075, 394.978 561.421 C 394.015 557.982, 393.269 556.997, 391.620 556.985 C 390.382 556.976, 389.958 556.664, 390.600 556.235 C 392.225 555.150, 394 551.423, 394 549.096 C 394 547.976, 392.650 546.062, 391 544.842 C 389.350 543.622, 388 542.061, 388 541.372 C 388 540.648, 386.421 539.990, 384.252 539.810 C 380.611 539.509, 380.438 539.313, 378.217 533 C 376.532 528.213, 374.767 525.421, 371.517 522.407 C 368.268 519.392, 367.246 517.776, 367.639 516.274 C 367.981 514.963, 367.492 513.745, 366.270 512.867 C 365.224 512.115, 364.107 510.797, 363.788 509.939 C 363.324 508.691, 361.254 508.336, 353.474 508.174 C 347.215 508.043, 343.237 508.389, 342.328 509.143 C 341.258 510.031, 340.634 510.034, 339.758 509.158 C 338.186 507.586, 335.494 507.700, 334.086 509.397 M 347.339 776.250 C 346.911 776.938, 346.242 780.200, 345.852 783.500 C 345.463 786.800, 344.437 793.961, 343.572 799.413 C 341.899 809.962, 341.443 828.538, 342.835 829.398 C 343.295 829.682, 344.448 828.283, 345.399 826.289 C 347.123 822.675, 348.276 814.571, 349.496 797.500 C 349.850 792.550, 351.008 785.640, 352.070 782.145 C 353.131 778.649, 354 775.612, 354 775.395 C 354 774.380, 348.026 775.148, 347.339 776.250"
     stroke="none"
     fill="#a1209d"
     fill-rule="evenodd"
     id="path6"
     style="fill:#010001;fill-opacity:1" />
  <path
     d="M 222.357 507.936 C 212.284 512.652, 202 523.327, 202 529.067 C 202 530.588, 201.521 531.993, 200.935 532.188 C 199.135 532.788, 198.895 545.950, 200.577 551.827 C 202.398 558.194, 208.182 564.926, 214.296 567.796 C 216.608 568.882, 221.609 570.253, 225.408 570.843 C 233.155 572.047, 233.547 572.294, 234.393 576.500 C 235.250 580.761, 234.231 581.776, 224.500 586.356 C 219.396 588.757, 209 598.754, 209 601.260 C 209 602.494, 206.793 605.374, 201.153 611.500 C 197.910 615.023, 196.789 618.064, 197.446 621.563 C 198.029 624.671, 197.570 625.447, 191.150 632.208 C 183.009 640.779, 182.336 641.550, 168.160 658.510 C 162.179 665.666, 156.319 673.316, 155.138 675.510 C 153.958 677.705, 151.981 680.770, 150.746 682.322 C 148.890 684.653, 148.500 686.387, 148.500 692.299 C 148.500 698.154, 148.800 699.515, 150.152 699.782 C 151.356 700.020, 152.257 698.743, 153.478 695.066 C 155.728 688.291, 157.050 687.780, 156.317 693.968 C 155.473 701.102, 157.254 700.432, 161.487 692.025 C 164.092 686.852, 165 683.770, 165 680.098 C 165 674.741, 164.366 675.529, 174.713 668.032 C 184.607 660.864, 191.096 654.630, 196.415 647.182 C 204.882 635.324, 208.660 631.698, 211.742 632.471 C 213.805 632.989, 215.034 632.396, 218.099 629.404 L 221.898 625.694 221.599 636.597 C 221.166 652.449, 217.722 663.916, 210.367 674 C 208.185 676.992, 207.896 678.211, 208.377 682.396 C 208.759 685.713, 208.476 688.132, 207.501 689.896 C 205.386 693.723, 197 711.782, 197 712.509 C 197 712.853, 195.875 714.608, 194.500 716.411 C 191.304 720.602, 191.317 723.877, 194.541 726.462 C 196.878 728.336, 196.988 728.768, 195.912 731.841 C 195.048 734.306, 193.661 735.652, 190.620 736.974 C 188.354 737.959, 182.250 741.788, 177.055 745.482 C 167.827 752.045, 167.525 752.174, 163.939 751.100 C 158.793 749.558, 157.226 749.712, 154.770 752 C 153.589 753.100, 153.045 754.007, 153.561 754.015 C 154.078 754.024, 153.865 754.432, 153.090 754.923 C 152.314 755.414, 150.405 760.245, 148.847 765.658 C 144.618 780.358, 145.193 789, 150.400 789 C 153.949 789, 157.764 785.410, 160.976 779.047 C 166.838 767.435, 171.036 764.398, 186.728 760.417 C 198.193 757.509, 204.492 755.413, 208.003 753.339 C 210.371 751.941, 216 744.078, 216 742.170 C 216 741.758, 217.237 741.439, 218.748 741.461 C 221.088 741.494, 221.951 740.644, 224.556 735.742 C 228.257 728.779, 230.542 726.228, 229.701 730 C 227.810 738.481, 227.776 742.095, 229.566 744.073 C 231.309 745.999, 231.298 746.300, 229.244 752.784 C 228.075 756.478, 226.807 761.300, 226.427 763.500 C 226.047 765.700, 225.263 768.400, 224.684 769.500 C 224.105 770.600, 223.311 776.281, 222.919 782.123 C 222.157 793.471, 220.183 799.617, 215.520 805.159 C 213.782 807.225, 213 809.348, 213 812.003 C 213 815.624, 213.329 816.042, 218.522 819.013 C 221.559 820.750, 225.722 824.229, 227.772 826.744 C 233.793 834.128, 234.852 835, 237.800 835 C 243.718 835, 244.631 830.231, 240 823.500 C 238.350 821.102, 237 818.644, 237 818.038 C 237 817.433, 236.325 816.678, 235.500 816.362 C 234.636 816.030, 234 814.536, 234 812.836 C 234 811.213, 233.485 807.841, 232.856 805.341 C 232.106 802.365, 232.054 800.573, 232.704 800.148 C 233.249 799.792, 234.620 796.800, 235.749 793.500 C 238.888 784.331, 240.952 778.800, 242.467 775.500 C 245.692 768.476, 247.685 762.397, 247.223 761 C 246.950 760.175, 247.090 759.840, 247.536 760.256 C 247.981 760.672, 249.082 758.872, 249.982 756.256 C 251.436 752.032, 251.982 751.464, 254.862 751.183 C 257.055 750.968, 258.408 750.159, 259.043 748.683 C 261.187 743.700, 265.156 719.841, 265.712 708.591 C 266.066 701.435, 266.836 695.684, 267.597 694.500 C 268.305 693.400, 269.104 689.800, 269.373 686.500 C 269.642 683.200, 270.329 676.450, 270.900 671.500 C 271.470 666.550, 272.064 654.063, 272.219 643.750 L 272.500 625.001 277.200 625 C 280.637 625, 282.164 624.530, 282.879 623.250 C 283.651 621.870, 285.371 621.459, 291.018 621.307 C 295.360 621.189, 299.069 620.530, 300.441 619.630 C 303.916 617.353, 316.240 603.298, 321.407 595.719 L 326.029 588.938 323.454 586.363 L 320.879 583.789 316.190 587.741 C 313.610 589.915, 310.065 592.435, 308.311 593.341 C 306.557 594.247, 304.532 595.815, 303.811 596.824 C 301.593 599.930, 297.735 601.850, 292.273 602.566 C 287.326 603.215, 286.995 603.117, 286.089 600.734 C 285.126 598.200, 284.247 597.780, 271 593.516 C 265.524 591.753, 258.567 587.593, 256.078 584.593 C 255.194 583.529, 254.980 581.638, 255.417 578.759 C 256.039 574.659, 256.297 574.400, 262.307 571.825 C 265.742 570.354, 269.692 568.865, 271.085 568.515 C 272.479 568.165, 274.906 566.853, 276.478 565.600 C 278.760 563.780, 279.308 562.580, 279.198 559.651 C 279.122 557.632, 278.638 555.191, 278.121 554.226 C 277.476 553.021, 277.623 551.868, 278.591 550.545 C 280.434 548.024, 280.369 545.842, 278.324 541.553 C 277.191 539.177, 275.590 537.690, 273.383 536.961 C 270.493 536.008, 269.993 535.287, 269.036 530.692 C 267.236 522.051, 262.172 514.074, 255.583 509.500 L 249.820 505.500 239.160 505.280 C 229.266 505.075, 228.059 505.266, 222.357 507.936 M 346.768 507.725 C 348.565 507.947, 351.265 507.943, 352.768 507.715 C 354.271 507.486, 352.800 507.304, 349.500 507.310 C 346.200 507.315, 344.971 507.502, 346.768 507.725"
     stroke="none"
     fill="#4b4da0"
     fill-rule="evenodd"
     id="path8"
     style="fill:#000001;fill-opacity:1" />
  <path
     d="M 475.552 267.917 C 475.240 268.421, 474.693 303.045, 474.337 344.858 L 473.689 420.884 476.594 421.502 C 478.192 421.842, 480.254 422.267, 481.175 422.447 C 483.652 422.930, 483.857 417.653, 484.462 337.750 L 484.997 267 480.557 267 C 478.116 267, 475.863 267.412, 475.552 267.917 M 425.423 438.720 C 420.158 443.984, 417.892 455.678, 420.439 464.438 C 423.901 476.347, 435.589 484.972, 448.290 484.990 C 462.498 485.011, 470.077 477.973, 474.127 461 L 475.916 453.500 471.225 449.259 L 466.534 445.018 465.305 453.527 C 463.157 468.410, 459.033 473.868, 449.356 474.634 C 444.509 475.019, 442.816 474.700, 439.530 472.784 C 431.784 468.269, 429.014 461.564, 429.006 447.309 C 429.003 442.254, 428.586 437.862, 428.081 437.550 C 427.575 437.237, 426.379 437.764, 425.423 438.720 M 373 843.053 C 309.914 844.112, 254.520 845.872, 251.725 846.906 C 250.278 847.441, 251.909 847.872, 257.071 848.317 C 275.012 849.864, 300.728 856.273, 330.500 866.617 C 390.141 887.338, 411.934 893.172, 446.500 897.669 C 466.512 900.273, 518.519 900.270, 538.500 897.665 C 576.929 892.654, 604.567 885.520, 648.500 869.271 C 683.497 856.327, 713.088 848.142, 725.626 847.937 C 728.658 847.887, 729.060 847.695, 727.475 847.052 C 726.361 846.601, 716.461 845.724, 705.475 845.104 C 694.489 844.484, 682.491 843.757, 678.814 843.488 C 673.469 843.096, 590.643 842.961, 525 843.237 C 518.675 843.263, 493.475 843.038, 469 842.736 C 444.525 842.435, 401.325 842.577, 373 843.053"
     stroke="none"
     fill="#162725"
     fill-rule="evenodd"
     id="path10" />
  <path
     d="M 539.500 297.304 C 536.750 297.894, 534.242 298.752, 533.927 299.211 C 533.611 299.671, 532.486 300.221, 531.427 300.435 C 527.490 301.227, 523.931 303.015, 523.367 304.485 C 523.048 305.318, 521.822 306.001, 520.643 306.003 C 519.377 306.005, 517.682 307.231, 516.500 309 C 515.400 310.647, 514.014 311.996, 513.419 311.997 C 512.824 311.999, 511.702 313.238, 510.926 314.750 C 510.149 316.262, 508.723 318.228, 507.757 319.117 C 506.791 320.007, 506 321.443, 506 322.308 C 506 323.174, 505.550 324.160, 505 324.500 C 504.450 324.840, 504 326.190, 504 327.500 C 504 328.810, 503.550 330.160, 503 330.500 C 502.450 330.840, 502 332.190, 502 333.500 C 502 334.810, 501.663 336.091, 501.250 336.346 C 499.577 337.381, 501.347 358, 503.109 358 C 503.599 358, 504.005 358.788, 504.011 359.750 C 504.017 360.712, 506.447 363.743, 509.411 366.485 L 514.801 371.470 512.863 375.269 C 510.847 379.221, 511.096 380.576, 514.256 382.854 C 515.289 383.598, 515.898 384.824, 515.609 385.577 C 515.320 386.331, 515.852 387.435, 516.792 388.032 C 518.024 388.814, 518.152 389.262, 517.250 389.641 C 515.843 390.233, 515.519 394, 516.875 394 C 517.356 394, 517.750 396.494, 517.750 399.542 C 517.750 402.590, 518.026 405.360, 518.364 405.697 C 519.384 406.717, 530.696 406.233, 532.855 405.078 C 533.962 404.485, 536.023 404, 537.434 404 C 539.891 404, 540 404.245, 540.003 409.750 C 540.006 416.774, 536.678 424, 533.440 424 C 532.306 424, 530.480 424.836, 529.383 425.858 C 527.452 427.657, 524.608 428.513, 516.744 429.662 C 514.678 429.964, 512.739 430.614, 512.435 431.106 C 512.131 431.598, 511.009 432, 509.941 432 C 508.873 432, 508 432.450, 508 433 C 508 433.550, 507.308 434, 506.463 434 C 504.837 434, 496 442.535, 496 444.105 C 496 445.344, 493.899 448.945, 491.750 451.388 C 490.788 452.482, 490 453.774, 490 454.260 C 490 455.667, 487.282 458, 485.643 458 C 484.484 458, 484.232 457.035, 484.535 453.750 C 485.079 447.837, 485.806 444.746, 486.810 444.073 C 487.810 443.404, 487.715 435.382, 486.694 434.361 C 485.317 432.984, 486.043 430.083, 488.131 428.620 C 492.394 425.635, 490.447 424.619, 474.372 421.444 C 473.028 421.178, 471.045 422.070, 468.987 423.867 C 465.798 426.651, 465.727 426.897, 465.615 435.434 C 465.514 443.086, 465.745 444.333, 467.500 445.596 C 468.600 446.387, 471.008 448.404, 472.850 450.078 L 476.200 453.122 475.807 461.311 C 475.199 473.989, 471.063 480.992, 461.290 485.890 C 458.974 487.050, 456.435 488, 455.647 488 C 453.924 488, 452.842 490.424, 453.638 492.500 C 453.955 493.325, 453.759 494, 453.202 494 C 452.604 494, 452.190 497.267, 452.190 501.986 C 452.190 509.951, 452.905 511.917, 457.479 516.530 C 459.906 518.978, 468.404 520.641, 470 518.980 C 470.275 518.693, 471.625 517.909, 473 517.237 C 477.349 515.111, 478.996 513.729, 489.150 503.693 C 495.813 497.108, 499.266 492.919, 499.661 490.943 C 499.985 489.324, 500.569 488, 500.958 488 C 501.348 488, 501.718 487.438, 501.780 486.750 C 502.003 484.290, 504.504 478, 505.259 478 C 506.410 478, 509.992 484.238, 509.996 486.250 C 509.998 487.212, 510.450 488, 511 488 C 511.550 488, 512 489.098, 512 490.441 C 512 491.784, 512.383 493.119, 512.852 493.408 C 513.320 493.698, 514.502 496.087, 515.478 498.717 C 516.455 501.348, 517.841 504.850, 518.559 506.500 C 522.636 515.865, 523.720 524, 520.892 524 C 520.401 524, 520 524.900, 520 526 C 520 527.100, 519.621 528, 519.157 528 C 518.694 528, 517.234 530.138, 515.913 532.750 C 514.592 535.362, 512.990 538.051, 512.353 538.725 C 511.715 539.398, 509.913 542.661, 508.348 545.975 C 506.784 549.289, 505.165 552, 504.752 552 C 504.338 552, 504 552.900, 504 554 C 504 555.100, 503.550 556, 503 556 C 502.450 556, 502 556.900, 502 558 C 502 559.100, 501.550 560, 501 560 C 500.450 560, 500 560.681, 500 561.514 C 500 563.009, 498.072 567.030, 496.891 568 C 496.556 568.275, 495.678 570.188, 494.940 572.250 C 494.202 574.313, 493.239 576, 492.799 576 C 492.360 576, 492 576.569, 492 577.265 C 492 578.605, 486.128 591.151, 485.104 592 C 484.772 592.275, 484.382 593.079, 484.238 593.787 C 484.093 594.496, 483.126 596.971, 482.089 599.287 C 481.052 601.604, 479.598 604.962, 478.858 606.750 C 478.117 608.538, 477.172 610, 476.756 610 C 476.340 610, 476 610.663, 476 611.473 C 476 612.923, 475.175 614.914, 469.074 628.187 C 467.383 631.865, 466 635.577, 466 636.437 C 466 637.297, 465.550 638, 465 638 C 464.450 638, 464.098 638.337, 464.218 638.750 C 464.337 639.163, 463.823 641.075, 463.075 643 C 462.326 644.925, 461.778 646.837, 461.857 647.250 C 461.936 647.663, 461.631 648, 461.181 648 C 460.730 648, 459.749 650.250, 459 653 C 458.251 655.750, 457.351 658, 457 658 C 456.649 658, 455.749 660.250, 455 663 C 454.251 665.750, 453.270 668, 452.819 668 C 452.369 668, 452 668.825, 452 669.833 C 452 670.842, 451.663 672.004, 451.250 672.417 C 450.837 672.829, 450.498 673.467, 450.496 673.833 C 450.490 674.994, 447.608 683.478, 447.042 684 C 446.744 684.275, 445.398 687.875, 444.050 692 C 442.703 696.125, 441.284 700.175, 440.898 701 C 440.511 701.825, 439.603 704.525, 438.880 707 C 438.157 709.475, 436.984 712.625, 436.273 714 C 435.563 715.375, 434.703 718.188, 434.363 720.250 C 434.023 722.313, 433.352 724, 432.872 724 C 432.392 724, 432 725.323, 432 726.941 C 432 728.559, 431.550 730.160, 431 730.500 C 430.450 730.840, 430 732.190, 430 733.500 C 430 734.810, 429.550 736.160, 429 736.500 C 428.450 736.840, 428 738.190, 428 739.500 C 428 740.810, 427.550 742.160, 427 742.500 C 426.450 742.840, 426 744.216, 426 745.559 C 426 746.902, 425.550 748, 425 748 C 424.450 748, 424 749.275, 424 750.833 C 424 752.392, 423.687 753.980, 423.304 754.362 C 422.922 754.745, 422.514 755.703, 422.398 756.492 C 422.215 757.738, 420.698 762.793, 416.972 774.571 C 416.437 776.260, 416 779.073, 416 780.821 C 416 782.569, 415.550 784, 415 784 C 414.450 784, 414 785.350, 414 787 C 414 788.650, 413.638 790, 413.196 790 C 412.753 790, 412.288 791.740, 412.163 793.867 C 411.940 797.645, 412.066 797.798, 417.647 800.528 C 423.340 803.314, 434.576 806.819, 440.750 807.736 C 442.538 808.002, 444 808.620, 444 809.109 C 444 809.599, 445.773 810, 447.941 810 C 450.109 810, 452.117 810.381, 452.405 810.847 C 452.693 811.313, 454.228 811.731, 455.816 811.776 C 457.404 811.821, 462.258 812.602, 466.602 813.512 C 474.237 815.111, 482.976 816.319, 495.500 817.509 C 498.800 817.822, 502.850 818.310, 504.500 818.593 C 509.643 819.475, 512.255 819.682, 520.250 819.843 C 525.864 819.957, 528 820.358, 528 821.301 C 528 823.200, 525.635 827.983, 524.691 827.992 C 524.246 827.996, 524.134 828.409, 524.443 828.908 C 524.752 829.407, 522.528 832.393, 519.502 835.542 C 516.476 838.692, 514 841.658, 514 842.134 C 514 842.610, 520.300 843, 528 843 L 542 843 542 837.559 C 542 834.566, 542.450 831.840, 543 831.500 C 543.550 831.160, 544 829.076, 544 826.870 C 544 821.980, 545.407 820.500, 550.056 820.500 C 553.124 820.500, 553.643 820.844, 553.835 823 C 553.957 824.375, 554.310 826.850, 554.619 828.500 C 554.927 830.150, 555.406 833.862, 555.682 836.750 C 555.959 839.638, 556.481 842.013, 556.843 842.029 C 566.142 842.442, 584.001 842.335, 584 841.866 C 584 841.517, 581.862 839.042, 579.250 836.366 C 574.147 831.139, 572 827.924, 572 825.514 C 572 824.681, 571.550 824, 571 824 C 570.450 824, 570 823.100, 570 822 C 570 820.203, 570.667 820, 576.566 820 C 580.177 820, 583.889 819.599, 584.816 819.108 C 585.742 818.617, 591 817.980, 596.500 817.692 C 602 817.404, 607.400 816.915, 608.500 816.605 C 609.600 816.295, 612.525 815.821, 615 815.553 C 626.539 814.299, 630 813.681, 630 812.873 C 630 812.393, 631.238 812, 632.750 812 C 635.256 812, 643.086 810.440, 653.500 807.866 C 655.700 807.322, 658.743 806.628, 660.262 806.323 C 661.781 806.019, 663.271 805.371, 663.571 804.885 C 663.872 804.398, 665.190 804, 666.500 804 C 667.810 804, 669.160 803.550, 669.500 803 C 669.840 802.450, 671.221 802, 672.570 802 C 673.918 802, 676.929 801.153, 679.261 800.118 C 681.592 799.083, 684.912 797.700, 686.637 797.044 C 689.112 796.103, 689.674 795.392, 689.302 793.676 C 688.686 790.837, 685.945 780.924, 685.244 779 C 684.520 777.011, 684.013 774.874, 683.777 772.819 C 683.671 771.895, 683.228 771.359, 682.792 771.628 C 682.357 771.898, 682 770.291, 682 768.059 C 682 765.827, 681.648 764, 681.218 764 C 680.788 764, 680.334 762.763, 680.209 761.250 C 680.085 759.737, 679.537 758.350, 678.991 758.167 C 678.446 757.983, 678 756.836, 678 755.617 C 678 754.398, 677.587 752.973, 677.083 752.450 C 676.578 751.928, 675.947 750.150, 675.680 748.500 C 675.189 745.464, 674.493 743.135, 672.993 739.500 C 672.539 738.400, 671.582 735.362, 670.865 732.750 C 670.149 730.138, 669.212 728, 668.782 728 C 668.352 728, 668 726.870, 668 725.489 C 668 724.108, 667.126 721.071, 666.058 718.739 C 664.990 716.408, 663.977 713.600, 663.808 712.500 C 663.639 711.400, 663.106 710.214, 662.625 709.864 C 662.144 709.514, 661.750 708.051, 661.750 706.614 C 661.750 705.176, 661.427 704, 661.033 704 C 660.277 704, 657.507 696.032, 657.818 694.750 C 657.918 694.337, 657.550 694, 657 694 C 656.450 694, 656 692.650, 656 691 C 656 689.350, 655.621 688, 655.158 688 C 654.312 688, 651.478 680.152, 651.818 678.750 C 651.918 678.337, 651.648 678, 651.218 678 C 650.788 678, 649.815 675.862, 649.055 673.250 C 648.295 670.638, 647.409 668.275, 647.086 668 C 646.401 667.416, 644.067 661.351, 643.471 658.607 C 643.245 657.565, 641.921 654.536, 640.530 651.875 C 639.138 649.214, 638 646.354, 638 645.518 C 638 644.683, 637.550 644, 637 644 C 636.450 644, 636 643.332, 636 642.516 C 636 641.700, 634.650 638.245, 633 634.839 C 631.350 631.432, 630 627.852, 630 626.882 C 630 625.912, 629.569 624.851, 629.042 624.526 C 628.514 624.200, 627.104 621.248, 625.908 617.967 C 624.711 614.685, 623.342 612, 622.866 612 C 622.390 612, 622 611.338, 622 610.530 C 622 609.193, 618.129 600.672, 614.376 593.748 C 613.556 592.234, 612.696 590.017, 612.466 588.821 C 612.235 587.625, 611.699 586.389, 611.273 586.073 C 609.894 585.051, 608 581.075, 608 579.202 C 608 578.198, 607.100 576.411, 606 575.230 C 604.900 574.050, 604 572.390, 604 571.542 C 604 570.694, 603.550 570, 603 570 C 602.450 570, 602 569.100, 602 568 C 602 566.900, 601.550 566, 601 566 C 600.450 566, 600 565.138, 600 564.083 C 600 563.029, 599.663 562.017, 599.250 561.833 C 598.199 561.366, 594 553.092, 594 551.489 C 594 550.762, 593.638 550.017, 593.197 549.833 C 592.755 549.650, 590.878 546.462, 589.026 542.750 C 587.174 539.038, 585.285 536, 584.829 536 C 584.373 536, 584 535.410, 584 534.689 C 584 533.967, 583.212 532.505, 582.250 531.439 C 581.288 530.372, 580.360 528.678, 580.188 527.673 C 580.017 526.668, 579.006 524.418, 577.942 522.673 C 575.862 519.262, 575.374 514.505, 577 513.500 C 577.550 513.160, 578 511.784, 578 510.441 C 578 509.098, 578.352 508, 578.782 508 C 579.212 508, 579.665 506.782, 579.788 505.294 C 579.911 503.806, 580.459 502.141, 581.006 501.594 C 581.553 501.047, 582 499.565, 582 498.300 C 582 497.035, 582.450 496, 583 496 C 583.550 496, 584 495.100, 584 494 C 584 492.900, 584.450 492, 585 492 C 585.550 492, 586 491.026, 586 489.836 C 586 486.658, 589.177 480, 590.692 480 C 591.412 480, 592 480.900, 592 482 C 592 483.100, 592.450 484, 593 484 C 593.550 484, 594 484.863, 594 485.917 C 594 486.971, 594.337 487.983, 594.750 488.167 C 595.163 488.350, 596.583 490.637, 597.907 493.250 C 599.231 495.863, 600.694 498, 601.157 498 C 601.621 498, 602 498.900, 602 500 C 602 501.100, 602.393 502, 602.874 502 C 603.354 502, 605.183 504.813, 606.937 508.250 C 612.343 518.845, 615.901 525.044, 617.484 526.627 C 618.318 527.461, 619 528.529, 619 529 C 619 529.471, 619.716 530.573, 620.591 531.449 C 621.467 532.324, 622.299 533.593, 622.440 534.270 C 622.931 536.611, 624.394 539.506, 625.812 540.939 C 627.784 542.933, 636.429 542.714, 638.527 540.616 C 639.416 539.727, 640.540 539, 641.026 539 C 641.512 539, 643.034 537.875, 644.409 536.500 C 645.784 535.125, 647.450 534, 648.110 534 C 649.464 534, 654.816 537.907, 658.477 541.568 C 659.815 542.906, 661.400 544, 662 544 C 662.600 544, 664.127 545.013, 665.392 546.250 C 666.658 547.488, 669.113 549.741, 670.847 551.258 C 673.821 553.859, 674 554.413, 674 561.008 C 674 565.003, 674.429 568, 675 568 C 675.550 568, 676 568.886, 676 569.970 C 676 571.800, 679.431 578.870, 680.868 580 C 681.217 580.275, 682.141 581.737, 682.921 583.250 C 683.700 584.763, 684.664 586, 685.062 586 C 686.433 586, 686.991 582.852, 685.961 580.928 C 685.394 579.867, 685.283 578.993, 685.715 578.985 C 686.147 578.976, 685.872 578.572, 685.104 578.086 C 684.206 577.517, 683.980 576.543, 684.471 575.351 C 684.975 574.126, 685.391 573.923, 685.700 574.750 C 685.957 575.438, 686.834 576, 687.649 576 C 689.428 576, 700.163 586.504, 699.283 587.384 C 698.944 587.723, 699.379 588, 700.250 588 C 701.121 588, 702.078 588.563, 702.377 589.250 C 702.676 589.938, 702.644 589.150, 702.306 587.500 C 701.968 585.850, 701.391 584.275, 701.023 584 C 700.655 583.725, 700.064 582.712, 699.708 581.750 C 698.689 578.987, 701.514 579.639, 702.801 582.463 C 703.851 584.768, 710.844 590, 712.875 590 C 713.395 590, 713.466 588.564, 713.039 586.673 C 712.554 584.524, 709.935 580.933, 705.644 576.535 C 701.990 572.790, 699 569.358, 699 568.908 C 699 568.458, 695.698 564.734, 691.663 560.633 C 687.628 556.532, 683.078 551.674, 681.553 549.838 C 680.027 548.002, 676.804 544.395, 674.390 541.822 C 671.975 539.249, 670 536.892, 670 536.584 C 670 535.866, 667.344 532.670, 663.412 528.654 C 661.713 526.919, 659.800 524.517, 659.162 523.316 C 657.711 520.589, 657.644 516, 659.055 516 C 659.689 516, 659.988 514.107, 659.805 511.250 C 659.509 506.634, 659.350 506.420, 654.189 503.654 C 651.104 502.001, 648.494 499.800, 647.963 498.404 C 647.461 497.082, 646.363 496, 645.525 496 C 644.686 496, 644 495.626, 644 495.169 C 644 494.712, 642.763 493.702, 641.250 492.926 C 638.052 491.283, 626 479.494, 626 478.008 C 626 477.453, 625.550 477, 625 477 C 624.450 477, 624 476.490, 624 475.867 C 624 475.244, 623.191 474.007, 622.203 473.117 C 621.214 472.228, 619.232 469.475, 617.798 467 C 615.494 463.023, 614.165 461.196, 609.979 456.250 C 609.397 455.563, 609.276 454.993, 609.711 454.985 C 610.145 454.976, 610.046 454.639, 609.490 454.235 C 608.935 453.831, 607.600 451.820, 606.523 449.768 C 602.876 442.817, 594.930 435.528, 588.942 433.639 C 585.949 432.695, 582.600 431.525, 581.500 431.039 C 580.400 430.553, 578.294 429.895, 576.820 429.576 C 575.346 429.258, 573.466 428.323, 572.641 427.498 C 571.817 426.674, 570.666 426, 570.083 426 C 568.395 426, 565.045 422.737, 565.679 421.710 C 565.997 421.196, 565.805 420.489, 565.253 420.138 C 564.702 419.787, 563.972 417.182, 563.632 414.348 C 563.291 411.514, 562.736 408.477, 562.399 407.598 C 561.872 406.223, 562.815 406, 569.157 406 C 574.268 406, 578.210 405.351, 582.014 403.884 C 585.031 402.720, 588.288 401.723, 589.251 401.669 C 590.213 401.616, 591.256 400.768, 591.568 399.786 C 591.880 398.804, 592.823 398, 593.665 398 C 595.558 398, 606.223 386.962, 607.932 383.234 C 608.621 381.730, 609.818 379.226, 610.593 377.669 C 611.367 376.112, 612 374.199, 612 373.419 C 612 372.639, 612.477 372, 613.059 372 C 613.641 372, 613.850 371.566, 613.522 371.036 C 613.195 370.506, 613.618 367.403, 614.463 364.142 C 616.210 357.402, 616.454 349.095, 615.040 344.571 C 614.512 342.882, 613.513 339.363, 612.821 336.750 C 612.129 334.137, 611.212 332, 610.782 332 C 610.352 332, 610 331.100, 610 330 C 610 328.900, 609.550 328, 609 328 C 608.450 328, 608 327.277, 608 326.394 C 608 324.487, 603.238 318.183, 597.280 312.203 C 594.926 309.840, 593 307.478, 593 306.953 C 593 306.429, 592.663 306.079, 592.250 306.175 C 591.048 306.454, 586 303.761, 586 302.839 C 586 302.378, 584.965 302, 583.699 302 C 581.065 302, 576.019 299.868, 576.008 298.750 C 576.004 298.337, 574.173 298, 571.941 298 C 569.709 298, 568.130 297.598, 568.434 297.107 C 569.215 295.843, 545.566 296.005, 539.500 297.304 M 521.528 432.954 C 520.315 434.918, 522.466 439.604, 526.250 443.241 C 528.402 445.308, 530.544 447, 531.010 447 C 531.476 447, 532.452 447.563, 533.179 448.250 C 535.717 450.651, 541.704 452, 549.821 452 C 554.319 452, 558 451.648, 558 451.218 C 558 450.788, 560.054 449.830, 562.564 449.089 C 567.361 447.673, 578 438.262, 578 435.435 C 578 432.690, 574.219 434.025, 570.735 438 C 568.806 440.200, 566.527 442, 565.671 442 C 564.814 442, 563.525 442.788, 562.807 443.751 C 560.948 446.242, 555.236 448, 549 448 C 544.248 448, 537.386 446.416, 536 445 C 535.725 444.719, 533.813 443.231, 531.750 441.693 C 529.688 440.156, 528 438.246, 528 437.449 C 528 436.652, 527.550 436, 527 436 C 526.450 436, 526 435.100, 526 434 C 526 431.907, 522.659 431.125, 521.528 432.954 M 514.619 434.714 C 512.973 436.361, 514.200 441.227, 517 444.157 C 518.650 445.884, 520 447.905, 520 448.648 C 520 449.392, 520.591 450, 521.313 450 C 522.035 450, 523.919 451.350, 525.500 453 C 527.081 454.650, 529.025 456, 529.820 456 C 530.615 456, 532.029 456.881, 532.963 457.957 C 533.971 459.119, 536.180 460.017, 538.400 460.166 C 540.457 460.305, 542.360 460.774, 542.629 461.209 C 543.357 462.387, 560 462.187, 560 461 C 560 460.450, 560.900 460, 562 460 C 563.100 460, 564 459.550, 564 459 C 564 458.450, 564.831 458, 565.847 458 C 566.863 458, 568.732 457.100, 570 456 C 571.268 454.900, 572.912 454, 573.653 454 C 574.394 454, 575.006 453.663, 575.013 453.250 C 575.021 452.837, 577.409 450.013, 580.321 446.973 C 586.119 440.920, 587.226 438.984, 586.013 437.021 C 585.414 436.052, 584.262 436.612, 581.472 439.228 C 575.970 444.387, 574.063 446, 573.467 446 C 573.173 446, 571.365 447.569, 569.448 449.486 C 567.530 451.403, 564.733 453.265, 563.231 453.624 C 561.729 453.982, 560.050 454.612, 559.500 455.023 C 557.873 456.238, 538 456.270, 538 455.057 C 538 454.476, 537.319 454, 536.486 454 C 534.557 454, 530.990 452.003, 528.893 449.750 C 527.998 448.788, 526.779 448, 526.184 448 C 525.589 448, 523.841 446.313, 522.301 444.250 C 520.760 442.188, 519.163 440.350, 518.750 440.167 C 518.337 439.983, 518 439.164, 518 438.345 C 518 436.547, 515.486 433.847, 514.619 434.714 M 675.750 778.572 C 671.767 780.733, 672.212 782.228, 677.753 785.308 L 681.005 787.116 682.004 784.489 C 683.292 781.102, 682.263 776.988, 680.142 777.040 C 679.239 777.062, 677.263 777.751, 675.750 778.572 M 418.147 781.750 C 418.628 787.756, 422.635 790.159, 425.232 786 C 426.697 783.655, 429.501 783.252, 428.634 785.512 C 428.024 787.102, 430.919 793.142, 432.548 793.680 C 433.072 793.852, 434.370 792.695, 435.433 791.109 C 437.032 788.722, 437.594 788.451, 438.683 789.540 C 439.407 790.265, 440 791.478, 440 792.237 C 440 792.997, 440.585 794.417, 441.299 795.395 C 442.501 797.038, 442.840 796.890, 445.799 793.425 C 449.500 789.092, 450.007 786.503, 447.001 787.289 C 445.902 787.577, 444.750 787.404, 444.442 786.906 C 444.134 786.408, 442.805 786, 441.488 786 C 439.107 786, 437.354 785.406, 429.261 781.858 C 426.929 780.836, 424.368 780, 423.570 780 C 422.771 780, 421.840 779.550, 421.500 779 C 421.160 778.450, 420.199 778, 419.364 778 C 418.224 778, 417.921 778.932, 418.147 781.750 M 667 781.930 C 666.175 782.407, 662.350 783.574, 658.500 784.522 C 654.650 785.470, 650.985 786.656, 650.355 787.158 C 649.726 787.660, 648.826 787.959, 648.355 787.823 C 647.885 787.686, 646.520 788.119, 645.322 788.784 C 644.125 789.449, 642.437 789.721, 641.572 789.389 C 638.934 788.377, 639.805 790.927, 643.400 794.738 C 646.517 798.041, 646.934 798.209, 648.400 796.742 C 649.280 795.863, 650 793.536, 650 791.571 C 650 789.607, 650.269 788, 650.599 788 C 650.928 788, 652.459 789.350, 654 791 C 657.361 794.598, 659.987 794.925, 660.032 791.750 C 660.049 790.513, 660.697 788.664, 661.470 787.643 C 662.821 785.860, 662.981 785.890, 665.484 788.393 C 669.869 792.778, 672 791.477, 672 784.418 C 672 780.854, 670.309 780.013, 667 781.930 M 450.698 789.636 C 449.114 791.220, 451.195 799.969, 453.161 799.992 C 454.498 800.008, 459 793.787, 459 791.923 C 459 790.556, 458.301 790, 456.582 790 C 455.252 790, 453.541 789.761, 452.780 789.469 C 452.018 789.177, 451.082 789.252, 450.698 789.636 M 635.554 790.912 C 635.244 791.414, 633.643 791.612, 631.995 791.352 C 628.182 790.751, 628.070 792.492, 631.645 796.807 C 634.876 800.708, 638 801.077, 638 797.559 C 638 796.216, 638.408 794.866, 638.906 794.558 C 640.215 793.749, 639.011 790, 637.442 790 C 636.714 790, 635.864 790.410, 635.554 790.912 M 460.353 794.069 C 460.530 795.686, 460.973 797.306, 461.337 797.671 C 461.702 798.035, 462 799.158, 462 800.167 C 462 802.280, 463.077 802.523, 464.800 800.800 C 465.460 800.140, 466.007 800.028, 466.015 800.550 C 466.023 801.072, 466.585 800.411, 467.265 799.079 C 469.220 795.247, 470.816 795.500, 472.586 799.924 C 473.483 802.166, 474.757 804, 475.416 804 C 476.596 804, 480 797.438, 480 795.164 C 480 794.152, 475.146 793.475, 470.015 793.771 C 469.198 793.818, 468.298 793.508, 468.015 793.083 C 467.732 792.657, 465.820 792.044, 463.766 791.720 C 460.117 791.144, 460.039 791.198, 460.353 794.069 M 623 793.117 C 623 793.768, 621.959 794.034, 620.500 793.755 C 617.136 793.112, 617.112 796.203, 620.455 799.545 C 623.405 802.496, 626 802.736, 626 800.059 C 626 798.991, 626.450 797.840, 627 797.500 C 627.550 797.160, 628 795.784, 628 794.441 C 628 792.504, 627.484 792, 625.500 792 C 624.125 792, 623 792.502, 623 793.117 M 482 797.544 C 482 799.930, 482.810 801.961, 484.480 803.762 C 486.915 806.388, 486.987 806.401, 488.448 804.468 C 489.267 803.386, 489.951 801.938, 489.968 801.250 C 490.011 799.583, 494 799.633, 494 801.301 C 494 803.386, 496.408 807.984, 497.500 807.984 C 498.050 807.985, 499.533 806.176, 500.795 803.966 C 502.804 800.449, 503.272 800.129, 504.545 801.402 C 505.345 802.202, 506.014 803.452, 506.032 804.179 C 506.049 804.905, 506.667 806.295, 507.405 807.267 C 508.919 809.263, 512 808.629, 512 806.322 C 512 805.516, 512.675 804.182, 513.500 803.357 C 514.325 802.532, 515 801.267, 515 800.545 C 515 798.773, 510.931 797.812, 509.268 799.193 C 508.290 800.005, 507.338 800.004, 505.716 799.190 C 504.497 798.579, 500.800 797.832, 497.500 797.531 C 489.255 796.778, 485.076 795.932, 484.429 794.885 C 483.202 792.899, 482 794.215, 482 797.544 M 614 794.952 C 614 795.476, 611.413 795.857, 608.250 795.799 C 601.970 795.684, 596 796.784, 596 798.056 C 596 798.499, 597.013 800.448, 598.250 802.388 C 601.334 807.223, 603.641 807.081, 604.499 802.005 C 605.406 796.638, 606.640 796.178, 608.676 800.447 C 611.880 807.165, 616.858 803.685, 616.111 795.250 C 615.983 793.804, 614 793.525, 614 794.952 M 588.033 798.367 C 587.476 798.924, 583.303 799.448, 578.760 799.530 C 562.258 799.831, 561.999 799.865, 562.016 801.750 C 562.033 803.626, 567.169 810, 568.663 810 C 569.158 810, 570.161 807.975, 570.892 805.500 C 572.414 800.346, 573.126 799.999, 575 803.500 C 575.736 804.875, 576.712 806, 577.169 806 C 577.626 806, 578 806.900, 578 808 C 578 811.683, 581.212 809.276, 582.350 804.740 C 582.729 803.233, 583.539 802, 584.152 802 C 585.394 802, 589 805.833, 589 807.153 C 589 809.177, 591.852 807.753, 592.812 805.250 C 595.310 798.734, 595.262 798.265, 592.053 797.795 C 590.400 797.552, 588.591 797.809, 588.033 798.367 M 516 800.167 C 516 801.011, 519.776 808.980, 520.617 809.910 C 521.235 810.595, 524.994 805.799, 524.485 804.976 C 524.225 804.554, 524.741 803.930, 525.632 803.588 C 527.317 802.941, 530 804.542, 530 806.194 C 530 806.716, 530.675 807.818, 531.500 808.643 C 533.158 810.300, 534.278 809.571, 536.750 805.225 C 539.253 800.823, 538.484 800.007, 531.750 799.914 C 528.313 799.866, 523.362 799.698, 520.750 799.541 C 518.138 799.383, 516 799.665, 516 800.167 M 539.564 802.250 C 540.438 805.066, 543.865 810, 544.947 810 C 545.393 810, 546.317 808.650, 547 807 C 548.779 802.704, 552.411 803.328, 554.275 808.250 C 555.354 811.099, 557.417 810.260, 559.144 806.268 C 561.693 800.379, 561.099 800, 549.326 800 C 538.937 800, 538.870 800.016, 539.564 802.250"
     stroke="none"
     fill="#f0cf0d"
     fill-rule="evenodd"
     id="path12"
     style="fill:#000000;fill-opacity:1" />
  <path
     d="M 461.500 142.071 C 450.092 144.051, 443.562 145.119, 439.647 145.643 C 437.366 145.948, 435.072 146.603, 434.550 147.099 C 434.027 147.595, 432.055 148, 430.166 148 C 428.277 148, 424.880 148.478, 422.616 149.061 C 414.382 151.185, 404.006 154.513, 404.003 155.032 C 404.001 155.324, 402.882 155.656, 401.516 155.769 C 400.149 155.882, 397.112 156.827, 394.766 157.869 C 392.420 158.911, 389.038 160.321, 387.250 161.003 C 385.462 161.685, 384 162.638, 384 163.121 C 384 163.605, 383.206 164, 382.235 164 C 379.827 164, 368 169.851, 368 171.042 C 368 171.569, 367.303 172, 366.450 172 C 365.598 172, 363.461 172.742, 361.700 173.650 C 357.658 175.733, 344.932 184.028, 343.179 185.723 C 342.452 186.425, 341.460 187, 340.974 187 C 340.488 187, 338.966 188.125, 337.591 189.500 C 336.216 190.875, 334.731 192, 334.290 192 C 333.850 192, 331.681 193.703, 329.471 195.784 C 327.262 197.866, 324.449 200.273, 323.220 201.133 C 315.991 206.196, 283.536 240.206, 282.122 244.200 C 281.914 244.787, 280.002 247.117, 277.872 249.378 C 275.742 251.639, 274 254.054, 274 254.745 C 274 255.435, 273.663 256.003, 273.250 256.007 C 272.837 256.011, 271.375 257.698, 270 259.757 C 268.625 261.816, 266.712 264.372, 265.750 265.439 C 264.788 266.505, 264 267.774, 264 268.260 C 264 268.746, 263.310 269.833, 262.466 270.677 C 259.946 273.197, 252 285.786, 252 287.258 C 252 288.009, 251.209 289.495, 250.243 290.561 C 248.406 292.588, 245.696 298, 246.518 298 C 246.780 298, 249.133 295.817, 251.747 293.150 C 254.361 290.482, 259.313 286.416, 262.750 284.113 C 266.188 281.810, 269 279.417, 269 278.796 C 269 278.175, 269.296 277.963, 269.658 278.325 C 270.020 278.687, 270.828 278.557, 271.455 278.038 C 272.081 277.518, 275.947 275.440, 280.047 273.420 C 284.146 271.400, 287.725 269.454, 288 269.096 C 288.524 268.414, 295.358 266.834, 308 264.471 C 312.125 263.700, 321.166 263.054, 328.090 263.035 C 342.402 262.995, 353.838 265.304, 360.205 269.517 C 362.269 270.883, 364.328 272, 364.782 272 C 366.587 272, 376.640 284.410, 378.755 289.250 C 379.416 290.762, 380.572 292, 381.324 292 C 382.370 292, 382.847 289.120, 383.353 279.750 C 383.717 273.012, 384.432 265.700, 384.943 263.500 C 385.453 261.300, 386.175 256.800, 386.547 253.500 C 386.918 250.200, 387.405 247.194, 387.628 246.819 C 387.850 246.445, 387.649 245.901, 387.181 245.612 C 386.316 245.077, 387.392 237.031, 389.076 231.429 C 389.584 229.740, 390 227.146, 390 225.665 C 390 224.185, 390.396 222.191, 390.879 221.236 C 391.363 220.281, 392.561 217.025, 393.541 214 C 394.522 210.975, 396.423 206.025, 397.765 203 C 399.108 199.975, 400.703 196.375, 401.310 195 C 401.917 193.625, 403.065 191.713, 403.862 190.750 C 404.658 189.787, 404.992 189, 404.604 189 C 404.216 189, 405.269 187.537, 406.945 185.750 C 408.620 183.963, 409.993 182.062, 409.995 181.526 C 410.001 180.412, 425.953 165, 427.101 165 C 427.517 165, 428.452 164.424, 429.179 163.720 C 432.116 160.876, 453.416 152, 457.306 152 C 459.452 152, 470.150 143.949, 469.720 142.657 C 469.214 141.140, 467.549 141.021, 461.500 142.071 M 506 143.645 C 506 144.775, 507.236 146.059, 509.131 146.898 C 510.853 147.660, 512.480 149.120, 512.747 150.142 C 513.072 151.384, 514.144 152, 515.979 152 C 517.489 152, 521.999 153.350, 526 155 C 530.001 156.650, 533.851 158, 534.554 158 C 535.258 158, 535.983 158.338, 536.167 158.750 C 536.350 159.162, 539.660 161.597, 543.522 164.160 C 547.384 166.724, 552.109 170.431, 554.022 172.400 C 555.935 174.368, 557.956 175.983, 558.513 175.989 C 559.070 175.995, 559.970 176.837, 560.513 177.861 C 561.056 178.884, 562.825 181.697, 564.445 184.111 C 568.507 190.166, 576 204.687, 576 206.505 C 576 207.327, 576.450 208, 577 208 C 577.550 208, 578 208.906, 578 210.014 C 578 211.121, 578.395 212.809, 578.877 213.764 C 580.219 216.419, 582 222.441, 582 224.321 C 582 225.244, 582.498 226, 583.107 226 C 583.716 226, 583.984 226.599, 583.703 227.332 C 583.422 228.065, 583.865 231.938, 584.688 235.939 C 585.610 240.417, 585.828 243.572, 585.257 244.143 C 584.700 244.700, 584.675 246.960, 585.194 249.786 C 585.671 252.379, 586.245 262.263, 586.472 271.751 C 586.698 281.239, 587.161 289.451, 587.501 290.001 C 588.667 291.889, 589.685 290.993, 590.871 287.036 C 591.952 283.428, 601.837 272, 603.877 272 C 604.287 272, 605.579 271.109, 606.748 270.020 C 609.221 267.716, 618.479 264.001, 621.750 264.001 C 622.987 264, 624 263.656, 624 263.236 C 624 262.116, 651.488 262.638, 658.500 263.890 C 668.055 265.597, 682.109 270.177, 687 273.176 C 689.475 274.695, 693.300 276.911, 695.500 278.103 C 697.700 279.294, 699.831 280.771, 700.235 281.384 C 700.639 281.998, 700.976 282.102, 700.985 281.615 C 700.993 281.128, 701.933 281.916, 703.073 283.365 C 704.212 284.814, 705.592 286, 706.138 286 C 706.683 286, 709.373 288.303, 712.114 291.117 C 714.856 293.932, 717.338 295.995, 717.630 295.703 C 718.215 295.118, 716.168 290.809, 714.911 289.979 C 714.477 289.692, 713.879 288.118, 713.582 286.481 C 713.285 284.844, 712.358 283.004, 711.521 282.392 C 710.685 281.780, 710 280.542, 710 279.640 C 710 278.738, 709.550 278, 709 278 C 708.450 278, 708 277.199, 708 276.221 C 708 275.242, 707.100 273.793, 706 273 C 704.900 272.207, 704 270.902, 704 270.099 C 704 268.259, 696.072 256, 694.883 256 C 694.397 256, 694 255.537, 694 254.971 C 694 253.794, 684.552 241.318, 681.817 238.883 C 680.818 237.993, 680 236.855, 680 236.353 C 680 235.852, 676.914 232.192, 673.142 228.221 C 669.371 224.249, 666.547 221, 666.867 221 C 667.188 221, 664.097 217.625, 660 213.500 C 655.903 209.375, 652.224 206, 651.825 206 C 651.426 206, 647.842 202.850, 643.860 199 C 639.878 195.150, 636.255 192, 635.810 192 C 635.364 192, 634.212 191.296, 633.250 190.436 C 628.336 186.045, 624.401 183.030, 623.564 183.016 C 623.050 183.007, 621.700 182.142, 620.564 181.093 C 617.067 177.863, 600.173 168, 598.137 168 C 597.079 168, 595.981 167.393, 595.696 166.650 C 595.242 165.466, 582.845 159.788, 578 158.544 C 577.725 158.474, 576.150 157.708, 574.500 156.844 C 571.577 155.311, 565.606 153.326, 557.500 151.192 C 555.300 150.613, 551.025 149.435, 548 148.573 C 541.680 146.774, 528.460 144.488, 519 143.558 C 515.425 143.207, 511.038 142.663, 509.250 142.349 C 506.540 141.872, 506 142.088, 506 143.645 M 317.500 272.068 C 305.076 273.121, 298.813 274.030, 296.893 275.057 C 295.924 275.576, 294.175 276, 293.007 276 C 291.838 276, 291.157 276.445, 291.493 276.989 C 291.840 277.550, 291.450 277.726, 290.590 277.396 C 289.758 277.077, 287.640 277.532, 285.885 278.408 C 284.129 279.283, 282.087 280, 281.346 280 C 280.606 280, 280 280.450, 280 281 C 280 281.550, 279.346 282, 278.547 282 C 276.480 282, 272 284.163, 272 285.161 C 272 285.622, 275.518 286, 279.818 286 C 287.450 286, 295.727 287.789, 301.240 290.629 C 302.746 291.405, 304.187 292.055, 304.441 292.073 C 304.695 292.091, 307.287 294.324, 310.201 297.035 C 313.116 299.747, 316.175 301.968, 317 301.972 C 317.825 301.975, 320.300 300.286, 322.500 298.217 C 324.700 296.148, 328.637 293.341, 331.250 291.980 C 333.863 290.618, 336 289.165, 336 288.752 C 336 288.338, 336.873 288, 337.941 288 C 339.009 288, 340.128 287.602, 340.429 287.115 C 340.729 286.629, 342.219 285.974, 343.738 285.660 C 345.257 285.346, 348.750 284.590, 351.500 283.980 C 354.250 283.369, 359.026 282.787, 362.114 282.685 C 367.654 282.502, 367.700 282.476, 365.628 280.678 C 364.473 279.675, 362.284 278.607, 360.764 278.303 C 359.244 277.999, 358 277.454, 358 277.093 C 358 276.496, 355.015 275.556, 345 272.996 C 340.006 271.720, 326.844 271.276, 317.500 272.068 M 623.687 272.646 C 623.332 273.001, 621.584 273.407, 619.804 273.547 C 618.023 273.687, 616.401 274.296, 616.200 274.901 C 615.998 275.505, 614.767 276, 613.464 276 C 610.652 276, 606 277.970, 606 279.161 C 606 279.622, 605.100 280, 604 280 C 602.900 280, 602.001 280.337, 602.002 280.750 C 602.002 281.163, 604.728 281.625, 608.059 281.778 C 614.012 282.050, 621.586 283.683, 627.500 285.967 C 632.648 287.955, 639.467 291.453, 640.235 292.499 C 640.639 293.050, 640.976 293.163, 640.985 292.752 C 640.993 292.341, 642.659 293.569, 644.687 295.482 C 646.715 297.395, 648.582 298.752, 648.835 298.498 C 649.089 298.244, 650.115 298.980, 651.116 300.134 L 652.935 302.231 656.927 298.076 C 659.122 295.791, 661.202 293.986, 661.549 294.064 C 661.895 294.142, 663.267 293.259, 664.597 292.103 C 665.927 290.946, 667.687 290, 668.508 290 C 669.328 290, 670 289.550, 670 289 C 670 288.450, 671.098 288, 672.441 288 C 673.784 288, 675.160 287.550, 675.500 287 C 675.840 286.450, 678.754 286, 681.976 286 C 685.482 286, 687.986 285.541, 688.214 284.857 C 688.497 284.010, 689.181 284.026, 690.853 284.921 C 695.543 287.431, 695.147 285.253, 690.434 282.617 C 683.609 278.800, 669.591 274.328, 660.478 273.060 C 652.192 271.908, 624.735 271.599, 623.687 272.646"
     stroke="none"
     fill="#197820"
     fill-rule="evenodd"
     id="path14"
     style="fill:#000000;fill-opacity:1" />
  <path
     d="M 478.503 127.592 C 476.081 130.205, 475.431 133.178, 475.929 139.369 C 476.148 142.087, 475.978 142.216, 472.693 141.833 C 470.308 141.554, 469.369 141.797, 469.681 142.611 C 470.167 143.879, 459.534 152, 457.387 152 C 456.679 152, 455.641 152.787, 455.080 153.750 C 454.514 154.721, 454.047 154.944, 454.030 154.250 C 454.014 153.563, 453.212 153.007, 452.250 153.015 C 450.892 153.027, 450.803 153.222, 451.852 153.887 C 452.911 154.558, 452.701 155.096, 450.879 156.372 C 449.601 157.267, 448.209 158, 447.785 158 C 446.692 158, 442.662 161.495, 435.074 169.023 C 426.454 177.575, 423.388 181.402, 415.058 194 C 411.240 199.775, 407.640 205.044, 407.058 205.708 C 406.476 206.372, 406 207.610, 406 208.458 C 406 209.306, 405.594 210, 405.098 210 C 404.602 210, 403.688 211.238, 403.067 212.750 C 402.446 214.262, 401.379 216.400, 400.696 217.500 C 398.624 220.834, 396.577 224.471, 396.472 225 C 396.418 225.275, 394.490 229.392, 392.187 234.150 C 389.884 238.907, 388 243.321, 388 243.959 C 388 244.620, 387.463 244.795, 386.750 244.367 C 385.801 243.797, 385.765 243.964, 386.599 245.058 C 387.411 246.123, 387.097 250.547, 385.396 262 C 384.131 270.525, 383.074 280.322, 383.048 283.772 L 383 290.044 388.723 284.022 C 391.871 280.710, 394.983 278, 395.640 278 C 396.296 278, 396.983 277.606, 397.167 277.125 C 397.556 276.102, 410.630 268, 411.890 268 C 412.361 268, 414.715 267.161, 417.123 266.135 C 421.483 264.277, 423.599 263.485, 425.500 262.999 C 429.060 262.090, 436.644 259.702, 437.368 259.263 C 437.845 258.973, 440.095 258.618, 442.368 258.474 C 444.640 258.330, 448.525 257.917, 451 257.558 C 458.793 256.426, 462.077 256.186, 479 255.514 C 494.200 254.910, 509.128 255.850, 525.952 258.470 C 537.222 260.226, 559.467 267.609, 562.439 270.582 C 563.219 271.362, 564.262 272, 564.757 272 C 566.451 272, 575.496 278.417, 580.477 283.152 C 583.429 285.958, 585.721 287.452, 586.109 286.823 C 587.269 284.947, 587.009 265.815, 585.680 255.221 C 584.971 249.568, 584.612 244.721, 584.882 244.451 C 585.679 243.654, 585.727 240.051, 584.934 240.541 C 584.183 241.005, 582.562 238.069, 582.841 236.750 C 582.929 236.337, 582.550 236, 582 236 C 581.450 236, 581 235.262, 581 234.360 C 581 232.939, 570.369 211.363, 568.997 210 C 568.202 209.210, 562 198.920, 562 198.391 C 562 198.130, 561.537 197.372, 560.972 196.708 C 560.406 196.044, 557.212 191.722, 553.875 187.104 C 546.242 176.543, 534.095 163.858, 527.250 159.301 C 524.362 157.378, 521.964 155.062, 521.921 154.153 C 521.878 153.244, 521.628 153.023, 521.367 153.663 C 521.018 154.517, 520.176 154.452, 518.196 153.419 C 516.713 152.645, 514.938 152.010, 514.250 152.006 C 513.563 152.003, 513 151.318, 513 150.484 C 513 149.650, 511.445 148.226, 509.544 147.320 C 505.213 145.254, 504.316 143.192, 507.267 142.087 C 508.633 141.575, 506.706 141.446, 502.302 141.756 L 495.104 142.261 495.291 136.690 C 495.561 128.692, 493.107 125.608, 486.146 125.196 C 481.641 124.929, 480.695 125.226, 478.503 127.592 M 460.820 267.468 C 460.644 267.618, 455.550 268.033, 449.500 268.390 C 443.450 268.748, 436.700 269.459, 434.500 269.971 C 432.300 270.483, 430.387 270.924, 430.250 270.951 C 430.113 270.978, 429.887 271.037, 429.750 271.082 C 429.613 271.127, 428.150 271.369, 426.500 271.618 C 421.498 272.374, 408.771 276.869, 404.148 279.512 C 401.754 280.880, 399.167 282, 398.398 282 C 397.629 282, 397 282.389, 397 282.863 C 397 283.592, 400.361 283.719, 402 283.052 C 404.956 281.849, 430.595 284.444, 432.450 286.134 C 432.973 286.610, 434.121 287, 435.003 287 C 437.587 287, 452.990 294.809, 453.614 296.436 C 453.928 297.255, 454.990 298.179, 455.974 298.492 C 458.398 299.261, 462 302.474, 462 303.867 C 462 304.490, 462.490 305, 463.090 305 C 463.689 305, 465.024 306.012, 466.056 307.250 C 467.441 308.910, 467.962 309.106, 468.043 308 C 468.104 307.175, 468.355 305.600, 468.601 304.500 C 469.005 302.701, 469.283 298.225, 470.381 275.823 C 470.561 272.151, 470.437 268.776, 470.104 268.323 C 469.551 267.570, 461.561 266.833, 460.820 267.468 M 489.723 278.346 C 489.911 284.481, 490.337 291.075, 490.669 293 C 491.001 294.925, 491.367 298.277, 491.482 300.449 C 491.598 302.621, 492.146 304.549, 492.701 304.734 C 493.256 304.919, 493.497 306.179, 493.238 307.535 C 492.979 308.891, 493 310, 493.285 310 C 493.569 310, 495.759 308.063, 498.151 305.696 C 500.543 303.329, 504.525 299.848, 507 297.960 C 509.475 296.073, 512.065 293.989, 512.756 293.330 C 513.447 292.671, 514.909 291.846, 516.006 291.498 C 517.103 291.150, 518 290.541, 518 290.145 C 518 289.750, 518.950 289.354, 520.112 289.267 C 521.273 289.179, 522.961 288.492, 523.862 287.740 C 524.763 286.988, 526.962 286.402, 528.750 286.437 C 530.538 286.471, 532 286.163, 532 285.750 C 532 285.337, 532.900 285, 534 285 C 535.100 285, 536 284.595, 536 284.099 C 536 283.097, 537.466 282.983, 554 282.698 C 560.325 282.589, 566.962 282.873, 568.750 283.329 C 570.538 283.786, 572 283.779, 572 283.316 C 572 282.404, 563.074 277.894, 561.612 278.066 C 561.123 278.124, 560.448 277.733, 560.112 277.197 C 559.294 275.896, 545.428 271.800, 540.898 271.522 C 538.916 271.400, 536.805 270.997, 536.205 270.627 C 534.209 269.393, 521.718 268.273, 502.941 267.645 L 489.382 267.191 489.723 278.346 M 545.750 456.723 C 547.538 456.945, 550.462 456.945, 552.250 456.723 C 554.038 456.502, 552.575 456.320, 549 456.320 C 545.425 456.320, 543.962 456.502, 545.750 456.723 M 562.728 842.722 C 564.503 842.943, 567.653 842.946, 569.728 842.730 C 571.802 842.513, 570.350 842.333, 566.500 842.328 C 562.650 842.324, 560.952 842.501, 562.728 842.722"
     stroke="none"
     fill="#cfcfcf"
     fill-rule="evenodd"
     id="path16"
     style="fill:#000000;fill-opacity:1" />
</svg>
