<?xml version="1.0" encoding="UTF-8" standalone="no"?>
<!-- Created with Inkscape (http://www.inkscape.org/) -->

<svg
   width="210mm"
   height="297mm"
   viewBox="0 0 210 297"
   version="1.1"
   id="svg6422"
   inkscape:version="1.1.2 (0a00cf5339, 2022-02-04)"
   sodipodi:docname="favicon.svg"
   xmlns:inkscape="http://www.inkscape.org/namespaces/inkscape"
   xmlns:sodipodi="http://sodipodi.sourceforge.net/DTD/sodipodi-0.dtd"
   xmlns="http://www.w3.org/2000/svg"
   xmlns:svg="http://www.w3.org/2000/svg">
  <sodipodi:namedview
     id="namedview6424"
     pagecolor="#ffffff"
     bordercolor="#666666"
     borderopacity="1.0"
     inkscape:pageshadow="2"
     inkscape:pageopacity="0.0"
     inkscape:pagecheckerboard="0"
     inkscape:document-units="mm"
     showgrid="false"
     inkscape:zoom="0.32026165"
     inkscape:cx="1124.0809"
     inkscape:cy="-7.8061174"
     inkscape:window-width="1920"
     inkscape:window-height="1086"
     inkscape:window-x="0"
     inkscape:window-y="27"
     inkscape:window-maximized="1"
     inkscape:current-layer="layer1" />
  <defs
     id="defs6419" />
  <g
     inkscape:label="Layer 1"
     inkscape:groupmode="layer"
     id="layer1">
    <path
       d="m 101.47408,97.566263 c -0.72761,0.15611 -1.39118,0.38312 -1.47453,0.50456 -0.0836,0.12171 -0.38126,0.26723 -0.66146,0.32385 -1.04166,0.20955 -1.98331,0.68263 -2.13254,1.07157 -0.0844,0.22039 -0.40878,0.4011 -0.72072,0.40163 -0.33496,5.3e-4 -0.78343,0.324907 -1.09617,0.792957 -0.29104,0.43577 -0.65775,0.79269 -0.81518,0.79296 -0.15743,5.3e-4 -0.45429,0.32834 -0.65961,0.72839 -0.20558,0.40005 -0.58288,0.92022 -0.83846,1.15544 -0.25559,0.23548 -0.46488,0.61542 -0.46488,0.84428 0,0.22913 -0.11906,0.49001 -0.26458,0.57997 -0.14552,0.09 -0.26458,0.44715 -0.26458,0.79375 0,0.34661 -0.11906,0.70379 -0.26459,0.79375 -0.14552,0.09 -0.26458,0.44715 -0.26458,0.79375 0,0.34661 -0.0892,0.68554 -0.19844,0.75301 -0.44264,0.27384 0.0257,5.72928 0.49186,5.72928 0.12965,0 0.23707,0.20849 0.23866,0.46302 0.002,0.25453 0.64452,1.05649 1.42875,1.78197 l 1.4261,1.31895 -0.51276,1.00515 c -0.5334,1.04564 -0.46752,1.40415 0.36856,2.00687 0.27332,0.19685 0.43445,0.52123 0.35799,0.72046 -0.0765,0.19949 0.0643,0.49159 0.313,0.64955 0.32596,0.2069 0.35983,0.32544 0.12118,0.42571 -0.37227,0.15664 -0.458,1.15332 -0.0992,1.15332 0.12726,0 0.23151,0.65987 0.23151,1.46632 0,0.80645 0.073,1.53935 0.16245,1.62851 0.26988,0.26988 3.26284,0.14182 3.83408,-0.16377 0.29289,-0.1569 0.8382,-0.28522 1.21153,-0.28522 0.65008,0 0.67892,0.0648 0.67971,1.52135 7.9e-4,1.85843 -0.87974,3.77031 -1.73646,3.77031 -0.30004,0 -0.78317,0.22119 -1.07341,0.4916 -0.51091,0.47598 -1.26339,0.70247 -3.34407,1.00647 -0.54663,0.0799 -1.05966,0.25189 -1.14009,0.38206 -0.0804,0.13018 -0.3773,0.23654 -0.65987,0.23654 -0.28258,0 -0.51356,0.11906 -0.51356,0.26458 0,0.14552 -0.18309,0.26459 -0.40666,0.26459 -0.43022,0 -2.76834,2.25821 -2.76834,2.67361 0,0.32782 -0.55589,1.28058 -1.12448,1.92696 -0.25453,0.28946 -0.46302,0.6313 -0.46302,0.75988 0,0.37227 -0.71914,0.98955 -1.15279,0.98955 -0.30665,0 -0.37333,-0.25533 -0.29316,-1.12448 0.14394,-1.56448 0.33629,-2.38231 0.60193,-2.56038 0.26458,-0.177 0.23945,-2.29949 -0.0307,-2.56963 -0.36433,-0.36433 -0.17225,-1.13189 0.3802,-1.51897 1.12792,-0.78978 0.61278,-1.0586 -3.6404,-1.89865 -0.3556,-0.0704 -0.88027,0.16563 -1.42478,0.64108 -0.84375,0.7366 -0.86254,0.80169 -0.89217,3.06044 -0.0267,2.02459 0.0344,2.35453 0.49874,2.68869 0.29104,0.20929 0.92815,0.74295 1.41552,1.18587 l 0.88635,0.80539 -0.10398,2.16667 c -0.16087,3.35439 -1.25518,5.20727 -3.84096,6.5032 -0.61277,0.30691 -1.28455,0.55827 -1.49304,0.55827 -0.45588,0 -0.74216,0.64135 -0.53155,1.19062 0.0839,0.21828 0.032,0.39688 -0.11536,0.39688 -0.15822,0 -0.26775,0.86439 -0.26775,2.11296 0,2.1074 0.18917,2.62758 1.39938,3.8481 0.64214,0.6477 2.89057,1.0877 3.31284,0.64823 0.0728,-0.0759 0.42995,-0.28337 0.79375,-0.46117 1.15068,-0.56251 1.58645,-0.92816 4.27303,-3.58352 1.76291,-1.74228 2.67652,-2.85062 2.78103,-3.37344 0.0857,-0.42836 0.24024,-0.77866 0.34317,-0.77866 0.10318,0 0.20108,-0.1487 0.21748,-0.33073 0.059,-0.65088 0.72073,-2.31511 0.92049,-2.31511 0.30453,0 1.25227,1.65047 1.25333,2.18282 5.3e-4,0.25452 0.12012,0.46302 0.26564,0.46302 0.14552,0 0.26458,0.29051 0.26458,0.64584 0,0.35534 0.10134,0.70856 0.22543,0.78502 0.12382,0.0767 0.43656,0.70882 0.6948,1.40468 0.25849,0.69611 0.62521,1.62268 0.81518,2.05925 1.0787,2.47782 1.36551,4.63021 0.61727,4.63021 -0.12991,0 -0.23601,0.23812 -0.23601,0.52916 0,0.29104 -0.10028,0.52917 -0.22304,0.52917 -0.1225,0 -0.5088,0.56568 -0.85831,1.25677 -0.34952,0.69109 -0.77338,1.40256 -0.94192,1.58089 -0.1688,0.17806 -0.64558,1.0414 -1.05965,1.91822 -0.41381,0.87683 -0.84217,1.59412 -0.95145,1.59412 -0.10953,0 -0.19896,0.23812 -0.19896,0.52917 0,0.29104 -0.11906,0.52916 -0.26459,0.52916 -0.14552,0 -0.26458,0.23813 -0.26458,0.52917 0,0.29104 -0.11906,0.52917 -0.26458,0.52917 -0.14552,0 -0.26459,0.18018 -0.26459,0.40057 0,0.39556 -0.51011,1.45945 -0.82259,1.71609 -0.0886,0.0728 -0.32093,0.57891 -0.5162,1.12448 -0.19526,0.54584 -0.45005,0.99219 -0.56647,0.99219 -0.11615,0 -0.2114,0.15055 -0.2114,0.3347 0,0.35454 -1.55364,3.674 -1.82457,3.89863 -0.0878,0.0728 -0.19103,0.28549 -0.22913,0.47281 -0.0384,0.18759 -0.29421,0.84244 -0.56859,1.45521 -0.27437,0.61304 -0.65907,1.50151 -0.85487,1.97459 -0.19605,0.47307 -0.44608,0.85989 -0.55615,0.85989 -0.11007,0 -0.20003,0.17542 -0.20003,0.38973 0,0.38365 -0.21828,0.91043 -1.8325,4.42225 -0.44741,0.97314 -0.81333,1.95527 -0.81333,2.18281 0,0.22754 -0.11906,0.41355 -0.26458,0.41355 -0.14552,0 -0.23866,0.0892 -0.20691,0.19843 0.0315,0.10928 -0.10451,0.61516 -0.30242,1.12448 -0.19817,0.50932 -0.34316,1.01521 -0.32226,1.12448 0.0209,0.10927 -0.0598,0.19844 -0.17886,0.19844 -0.11932,0 -0.37888,0.59531 -0.57705,1.32292 -0.19818,0.7276 -0.4363,1.32291 -0.52917,1.32291 -0.0929,0 -0.33099,0.59531 -0.52917,1.32292 -0.19817,0.7276 -0.45772,1.32292 -0.57705,1.32292 -0.11906,0 -0.2167,0.21828 -0.2167,0.48498 0,0.26696 -0.0892,0.57441 -0.19843,0.68368 -0.10928,0.10901 -0.19897,0.27781 -0.1995,0.37465 -0.002,0.30718 -0.76412,2.55191 -0.91387,2.69002 -0.0788,0.0728 -0.43497,1.02526 -0.79163,2.11667 -0.3564,1.0914 -0.73184,2.16296 -0.83397,2.38125 -0.10239,0.21828 -0.34264,0.93265 -0.53393,1.5875 -0.19129,0.65484 -0.50165,1.48828 -0.68977,1.85208 -0.18785,0.3638 -0.41539,1.10807 -0.50535,1.65364 -0.09,0.54584 -0.2675,0.99219 -0.3945,0.99219 -0.127,0 -0.23071,0.35005 -0.23071,0.77814 0,0.4281 -0.11906,0.8517 -0.26459,0.94165 -0.14552,0.09 -0.26458,0.44715 -0.26458,0.79375 0,0.34661 -0.11906,0.7038 -0.26458,0.79375 -0.14552,0.09 -0.26459,0.44715 -0.26459,0.79375 0,0.34661 -0.11906,0.7038 -0.26458,0.79375 -0.14552,0.09 -0.26458,0.45403 -0.26458,0.80936 0,0.35534 -0.11906,0.64585 -0.26459,0.64585 -0.14552,0 -0.26458,0.33735 -0.26458,0.74957 0,0.41248 -0.0828,0.83264 -0.18415,0.93371 -0.10107,0.10134 -0.20902,0.35481 -0.23971,0.56356 -0.0484,0.32967 -0.44979,1.66714 -1.43563,4.78341 -0.14155,0.44688 -0.25718,1.19115 -0.25718,1.65364 0,0.46249 -0.11906,0.84111 -0.26458,0.84111 -0.14552,0 -0.26458,0.35719 -0.26458,0.79375 0,0.43656 -0.0958,0.79375 -0.21273,0.79375 -0.11721,0 -0.24024,0.46038 -0.27331,1.02315 -0.059,0.99959 -0.0257,1.04007 1.45097,1.76238 1.50628,0.73713 4.47913,1.6645 6.11267,1.90712 0.47308,0.0704 0.8599,0.23389 0.8599,0.36327 0,0.12965 0.4691,0.23575 1.04272,0.23575 0.57362,0 1.1049,0.1008 1.1811,0.2241 0.0762,0.1233 0.48234,0.23389 0.90249,0.2458 0.42016,0.0119 1.70445,0.21854 2.8538,0.45931 2.02009,0.42307 4.33229,0.74269 7.64593,1.05754 0.87312,0.0828 1.94469,0.21194 2.38125,0.28681 1.36075,0.23337 2.05184,0.28813 4.16719,0.33073 1.48537,0.0302 2.05052,0.13626 2.05052,0.38576 0,0.50245 -0.62574,1.76795 -0.87551,1.77033 -0.11774,0.001 -0.14737,0.11033 -0.0656,0.24236 0.0818,0.13203 -0.50667,0.92207 -1.3073,1.75525 -0.80063,0.83343 -1.45574,1.61819 -1.45574,1.74413 0,0.12594 1.66688,0.22913 3.70417,0.22913 h 3.70416 v -1.4396 c 0,-0.7919 0.11907,-1.51315 0.26459,-1.60311 0.14552,-0.09 0.26458,-0.64135 0.26458,-1.22502 0,-1.29381 0.37227,-1.6854 1.60232,-1.6854 0.81174,0 0.94906,0.091 0.99986,0.66146 0.0323,0.3638 0.12567,1.01865 0.20743,1.45521 0.0815,0.43656 0.20823,1.4187 0.28125,2.18281 0.0733,0.76412 0.21141,1.3925 0.30718,1.39674 2.46036,0.10927 7.18556,0.081 7.18529,-0.0431 0,-0.0923 -0.56568,-0.74718 -1.25677,-1.45521 -1.35017,-1.38297 -1.91823,-2.23361 -1.91823,-2.87126 0,-0.22039 -0.11906,-0.40058 -0.26458,-0.40058 -0.14552,0 -0.26458,-0.23812 -0.26458,-0.52916 0,-0.47546 0.17647,-0.52917 1.73725,-0.52917 0.95541,0 1.93755,-0.1061 2.18281,-0.23601 0.24501,-0.12991 1.63619,-0.29845 3.0914,-0.37465 1.4552,-0.0762 2.88395,-0.20558 3.175,-0.2876 0.29104,-0.082 1.06494,-0.20743 1.71979,-0.27834 3.05302,-0.33179 3.96875,-0.4953 3.96875,-0.70908 0,-0.127 0.32755,-0.23099 0.7276,-0.23099 0.66305,0 2.73473,-0.41275 5.49011,-1.09378 0.58208,-0.14394 1.38721,-0.32756 1.78911,-0.40825 0.4019,-0.0804 0.79613,-0.25189 0.8755,-0.38048 0.0796,-0.12885 0.42836,-0.23415 0.77497,-0.23415 0.3466,0 0.70379,-0.11906 0.79375,-0.26459 0.09,-0.14552 0.45535,-0.26458 0.81227,-0.26458 0.35666,0 1.15332,-0.2241 1.77033,-0.49794 0.61674,-0.27385 1.49516,-0.63977 1.95156,-0.81333 0.65485,-0.24898 0.80354,-0.4371 0.70512,-0.89112 -0.16299,-0.75115 -0.88821,-3.37397 -1.07368,-3.88303 -0.19156,-0.52625 -0.3257,-1.09167 -0.38815,-1.63538 -0.028,-0.24448 -0.14525,-0.3863 -0.26061,-0.31512 -0.11509,0.0714 -0.20955,-0.35375 -0.20955,-0.9443 0,-0.59055 -0.0931,-1.07395 -0.2069,-1.07395 -0.11377,0 -0.2339,-0.32728 -0.26697,-0.7276 -0.0328,-0.40031 -0.1778,-0.76729 -0.32226,-0.81571 -0.1442,-0.0487 -0.2622,-0.35216 -0.2622,-0.67469 0,-0.32252 -0.10928,-0.69956 -0.24263,-0.83793 -0.13361,-0.13812 -0.30056,-0.60854 -0.37121,-1.04511 -0.12991,-0.80327 -0.31406,-1.41949 -0.71093,-2.38125 -0.12012,-0.29104 -0.37333,-1.09484 -0.56304,-1.78593 -0.18944,-0.6911 -0.43735,-1.25677 -0.55112,-1.25677 -0.11377,0 -0.20691,-0.29898 -0.20691,-0.66437 0,-0.36539 -0.23124,-1.16893 -0.51382,-1.78594 -0.28257,-0.61674 -0.5506,-1.35969 -0.59531,-1.65074 -0.0447,-0.29104 -0.18574,-0.60483 -0.313,-0.69744 -0.12727,-0.0926 -0.23151,-0.47969 -0.23151,-0.85989 0,-0.38047 -0.0855,-0.69162 -0.18971,-0.69162 -0.20002,0 -0.93292,-2.1082 -0.85063,-2.4474 0.0265,-0.10927 -0.0709,-0.19844 -0.21643,-0.19844 -0.14552,0 -0.26459,-0.35719 -0.26459,-0.79375 0,-0.43656 -0.10027,-0.79375 -0.22278,-0.79375 -0.22383,0 -0.97366,-2.07645 -0.8837,-2.44739 0.0264,-0.10928 -0.045,-0.19844 -0.15875,-0.19844 -0.11377,0 -0.37121,-0.56568 -0.5723,-1.25677 -0.20108,-0.69109 -0.4355,-1.3163 -0.52096,-1.38906 -0.18124,-0.15452 -0.79878,-1.75922 -0.95647,-2.48524 -0.0598,-0.27569 -0.4101,-1.07711 -0.77814,-1.78117 -0.3683,-0.70406 -0.6694,-1.46077 -0.6694,-1.68196 0,-0.22092 -0.11906,-0.40163 -0.26458,-0.40163 -0.14552,0 -0.26458,-0.17675 -0.26458,-0.39265 0,-0.2159 -0.35719,-1.13003 -0.79375,-2.0312 -0.43657,-0.90144 -0.79375,-1.84865 -0.79375,-2.10529 0,-0.25665 -0.11404,-0.53737 -0.25347,-0.62336 -0.1397,-0.0863 -0.51277,-0.8673 -0.82921,-1.7354 -0.3167,-0.86836 -0.67892,-1.57877 -0.80486,-1.57877 -0.12594,0 -0.22913,-0.17516 -0.22913,-0.38894 0,-0.35375 -1.0242,-2.60826 -2.01718,-4.44024 -0.21696,-0.40058 -0.4445,-0.98716 -0.50536,-1.3036 -0.0611,-0.31644 -0.20293,-0.64346 -0.31564,-0.72707 -0.36487,-0.27041 -0.86599,-1.32239 -0.86599,-1.81796 0,-0.26564 -0.23812,-0.73845 -0.52916,-1.05092 -0.29104,-0.31221 -0.52917,-0.75142 -0.52917,-0.97578 0,-0.22437 -0.11906,-0.40799 -0.26458,-0.40799 -0.14552,0 -0.26459,-0.23813 -0.26459,-0.52917 0,-0.29104 -0.11906,-0.52916 -0.26458,-0.52916 -0.14552,0 -0.26458,-0.22808 -0.26458,-0.50721 0,-0.27887 -0.0892,-0.54663 -0.19844,-0.59531 -0.27808,-0.12356 -1.38906,-2.31273 -1.38906,-2.73685 0,-0.19236 -0.0958,-0.38947 -0.21246,-0.43815 -0.11695,-0.0484 -0.61357,-0.89191 -1.10358,-1.87405 -0.49001,-0.98213 -0.98981,-1.78593 -1.11046,-1.78593 -0.12065,0 -0.21934,-0.15611 -0.21934,-0.34687 0,-0.19103 -0.20849,-0.57785 -0.46302,-0.8599 -0.25453,-0.28231 -0.50006,-0.73051 -0.54557,-0.99642 -0.0452,-0.26591 -0.31274,-0.86122 -0.59425,-1.32292 -0.55034,-0.90249 -0.67945,-2.16111 -0.24924,-2.42702 0.14552,-0.09 0.26458,-0.45402 0.26458,-0.80936 0,-0.35534 0.0931,-0.64585 0.20691,-0.64585 0.11377,0 0.23363,-0.32226 0.26617,-0.71596 0.0325,-0.3937 0.17753,-0.83423 0.32226,-0.97896 0.14473,-0.14473 0.263,-0.53684 0.263,-0.87154 0,-0.33469 0.11906,-0.60854 0.26458,-0.60854 0.14552,0 0.26458,-0.23812 0.26458,-0.52916 0,-0.29105 0.11907,-0.52917 0.26459,-0.52917 0.14552,0 0.26458,-0.2577 0.26458,-0.57256 0,-0.84084 0.84058,-2.60244 1.24143,-2.60244 0.1905,0 0.34607,0.23812 0.34607,0.52917 0,0.29104 0.11906,0.52916 0.26458,0.52916 0.14552,0 0.26459,0.22834 0.26459,0.50721 0,0.27887 0.0892,0.54663 0.19843,0.59531 0.10928,0.0484 0.48499,0.65352 0.83529,1.34488 0.35031,0.69135 0.7374,1.25677 0.8599,1.25677 0.12277,0 0.22304,0.23812 0.22304,0.52917 0,0.29104 0.10399,0.52916 0.23125,0.52916 0.127,0 0.61092,0.74428 1.075,1.65365 1.43034,2.80326 2.37173,4.44341 2.79056,4.86225 0.22066,0.22066 0.40111,0.50323 0.40111,0.62785 0,0.12462 0.18944,0.41619 0.42095,0.64797 0.23178,0.23151 0.45191,0.56726 0.48922,0.74639 0.12991,0.61939 0.51699,1.38535 0.89217,1.7645 0.52176,0.52758 2.80908,0.46964 3.36418,-0.0855 0.23521,-0.23521 0.53261,-0.42756 0.66119,-0.42756 0.12859,0 0.53129,-0.29766 0.89509,-0.66146 0.3638,-0.3638 0.8046,-0.66146 0.97922,-0.66146 0.35825,0 1.7743,1.03373 2.74294,2.00237 0.35401,0.35401 0.77337,0.64346 0.93212,0.64346 0.15875,0 0.56277,0.26803 0.89747,0.59531 0.33496,0.32756 0.98451,0.92367 1.4433,1.32504 0.78687,0.68818 0.83423,0.83476 0.83423,2.57969 0,1.05701 0.11351,1.84996 0.26459,1.84996 0.14552,0 0.26458,0.23442 0.26458,0.52123 0,0.48419 0.90779,2.35479 1.28799,2.65377 0.0923,0.0728 0.33682,0.45958 0.54319,0.8599 0.20611,0.40031 0.46117,0.7276 0.56647,0.7276 0.36275,0 0.51039,-0.83291 0.23786,-1.34196 -0.15001,-0.28073 -0.17938,-0.51197 -0.0651,-0.51409 0.1143,-0.002 0.0415,-0.10927 -0.16166,-0.23786 -0.2376,-0.15055 -0.29739,-0.40825 -0.16748,-0.72364 0.13335,-0.32411 0.24341,-0.37782 0.32517,-0.15901 0.068,0.18203 0.30004,0.33073 0.51567,0.33073 0.4707,0 3.311,2.77918 3.07816,3.01202 -0.0897,0.0897 0.0254,0.16298 0.25586,0.16298 0.23045,0 0.48365,0.14896 0.56276,0.33073 0.0791,0.18203 0.0707,-0.0265 -0.0188,-0.46302 -0.0894,-0.43657 -0.24209,-0.85328 -0.33946,-0.92604 -0.0974,-0.0728 -0.25374,-0.34079 -0.34793,-0.59532 -0.26961,-0.73104 0.47784,-0.55853 0.81836,0.18865 0.27781,0.60987 2.12804,1.99417 2.66541,1.99417 0.13758,0 0.15637,-0.37995 0.0434,-0.88027 -0.12832,-0.56859 -0.82126,-1.51871 -1.95659,-2.68235 -0.96679,-0.99086 -1.75789,-1.89891 -1.75789,-2.01798 0,-0.11906 -0.87366,-1.10437 -1.94125,-2.18942 -1.06759,-1.08506 -2.27145,-2.37041 -2.67494,-2.85618 -0.40375,-0.48578 -1.2565,-1.44013 -1.89521,-2.1209 -0.63897,-0.68077 -1.16152,-1.3044 -1.16152,-1.38589 0,-0.18997 -0.70273,-1.03558 -1.74307,-2.09814 -0.44953,-0.45906 -0.95568,-1.09458 -1.12448,-1.41235 -0.38391,-0.72152 -0.40164,-1.93569 -0.0283,-1.93569 0.16774,0 0.24685,-0.50086 0.19843,-1.25677 -0.0783,-1.22132 -0.12038,-1.27794 -1.4859,-2.00978 -0.81624,-0.43735 -1.5068,-1.0197 -1.64729,-1.38906 -0.13282,-0.34978 -0.42334,-0.63606 -0.64506,-0.63606 -0.22198,0 -0.40349,-0.099 -0.40349,-0.21987 0,-0.12091 -0.32729,-0.38814 -0.7276,-0.59346 -0.84614,-0.43471 -4.0349,-3.55388 -4.0349,-3.94705 0,-0.14684 -0.11906,-0.2667 -0.26458,-0.2667 -0.14552,0 -0.26458,-0.13494 -0.26458,-0.29977 0,-0.16484 -0.21405,-0.49213 -0.47546,-0.72761 -0.26167,-0.23521 -0.78608,-0.96361 -1.16549,-1.61845 -0.6096,-1.05225 -0.96123,-1.53565 -2.06878,-2.84427 -0.15398,-0.18177 -0.186,-0.33259 -0.0709,-0.3347 0.11483,-0.002 0.0886,-0.0916 -0.0585,-0.19844 -0.14684,-0.10689 -0.50006,-0.63897 -0.78502,-1.18189 -0.96493,-1.83912 -3.06731,-3.76767 -4.65164,-4.26747 -0.79189,-0.24977 -1.67798,-0.55933 -1.96902,-0.68792 -0.29105,-0.12858 -0.84826,-0.30268 -1.23825,-0.38708 -0.39,-0.0841 -0.88742,-0.33152 -1.1057,-0.5498 -0.21801,-0.21802 -0.52255,-0.39635 -0.6768,-0.39635 -0.44662,0 -1.33297,-0.86334 -1.16523,-1.13506 0.0841,-0.136 0.0333,-0.32306 -0.11271,-0.41593 -0.14579,-0.0929 -0.33893,-0.78211 -0.42889,-1.53194 -0.0902,-0.74982 -0.23707,-1.55336 -0.32623,-1.78593 -0.13944,-0.36381 0.11007,-0.42281 1.78805,-0.42281 1.35229,0 2.39528,-0.17171 3.40175,-0.55986 0.79825,-0.30797 1.66,-0.57176 1.91479,-0.58605 0.25453,-0.014 0.53049,-0.23839 0.61304,-0.49821 0.0825,-0.25982 0.33205,-0.47254 0.55483,-0.47254 0.50086,0 3.32264,-2.92047 3.77481,-3.90684 0.1823,-0.39793 0.49901,-1.06045 0.70406,-1.47241 0.20479,-0.41195 0.37227,-0.9181 0.37227,-1.12448 0,-0.20637 0.1262,-0.37544 0.28019,-0.37544 0.15399,0 0.20929,-0.11483 0.1225,-0.25506 -0.0865,-0.14023 0.0254,-0.96123 0.24898,-1.82404 0.46222,-1.78329 0.52678,-3.98118 0.15266,-5.17816 -0.1397,-0.44688 -0.40402,-1.37795 -0.58711,-2.0693 -0.18309,-0.69136 -0.42571,-1.25677 -0.53949,-1.25677 -0.11377,0 -0.2069,-0.23813 -0.2069,-0.52917 0,-0.29104 -0.11906,-0.52917 -0.26458,-0.52917 -0.14552,0 -0.26459,-0.19129 -0.26459,-0.42492 0,-0.50456 -1.25994,-2.17249 -2.83633,-3.7547 -0.62283,-0.62521 -1.13242,-1.25016 -1.13242,-1.38906 0,-0.138637 -0.0892,-0.231247 -0.19843,-0.205847 -0.31803,0.0738 -1.65365,-0.6387 -1.65365,-0.88265 0,-0.12197 -0.27384,-0.22198 -0.60881,-0.22198 -0.69691,0 -2.032,-0.5641 -2.03491,-0.8599 -0.001,-0.10927 -0.48551,-0.19844 -1.07606,-0.19844 -0.59055,0 -1.00832,-0.10636 -0.92789,-0.23627 0.20664,-0.33443 -6.05049,-0.29157 -7.65545,0.0521 m -4.7551,35.890727 c -0.32094,0.51964 0.24818,1.75948 1.24937,2.72177 0.56938,0.54689 1.13612,0.99457 1.25941,0.99457 0.1233,0 0.38153,0.14896 0.57388,0.33073 0.67152,0.63526 2.25558,0.99219 4.4032,0.99219 1.1901,0 2.16403,-0.0931 2.16403,-0.20691 0,-0.11377 0.54345,-0.36724 1.20756,-0.5633 1.2692,-0.37465 4.0841,-2.86464 4.0841,-3.61262 0,-0.72628 -1.00039,-0.37306 -1.92219,0.67866 -0.51039,0.58208 -1.11337,1.05833 -1.33985,1.05833 -0.22675,0 -0.5678,0.20849 -0.75777,0.46329 -0.49186,0.65908 -2.00316,1.12421 -3.6531,1.12421 -1.2573,0 -3.07287,-0.4191 -3.43959,-0.79375 -0.0728,-0.0743 -0.57864,-0.46805 -1.12448,-0.87497 -0.54557,-0.40667 -0.99218,-0.91202 -0.99218,-1.1229 0,-0.21087 -0.11907,-0.38338 -0.26459,-0.38338 -0.14552,0 -0.26458,-0.23812 -0.26458,-0.52916 0,-0.55378 -0.88397,-0.76068 -1.18322,-0.27676 m -1.828,0.46567 c -0.43551,0.43577 -0.11086,1.72323 0.62997,2.49846 0.43656,0.45693 0.79375,0.99166 0.79375,1.18824 0,0.19685 0.15637,0.35772 0.3474,0.35772 0.19103,0 0.6895,0.35719 1.10781,0.79375 0.41831,0.43656 0.93266,0.79375 1.143,0.79375 0.21034,0 0.58446,0.2331 0.83158,0.51779 0.2667,0.30744 0.85117,0.54504 1.43854,0.58446 0.54425,0.0368 1.04775,0.16087 1.11893,0.27596 0.19261,0.31168 4.59607,0.25877 4.59607,-0.0553 0,-0.14552 0.23813,-0.26459 0.52917,-0.26459 0.29104,0 0.52917,-0.11906 0.52917,-0.26458 0,-0.14552 0.21987,-0.26458 0.48868,-0.26458 0.26882,0 0.76333,-0.23813 1.09882,-0.52917 0.33549,-0.29104 0.77046,-0.52917 0.96652,-0.52917 0.19606,0 0.35798,-0.0892 0.35983,-0.19843 0.002,-0.10928 0.63395,-0.85646 1.40441,-1.66079 1.53406,-1.60153 1.82695,-2.11376 1.50601,-2.63314 -0.15849,-0.25638 -0.46329,-0.10821 -1.20147,0.58394 -1.45574,1.36498 -1.9603,1.79176 -2.11799,1.79176 -0.0778,0 -0.55616,0.41513 -1.06336,0.92233 -0.50747,0.50721 -1.24751,0.99986 -1.64492,1.09485 -0.3974,0.0947 -0.84164,0.26141 -0.98716,0.37015 -0.43047,0.32147 -5.68854,0.32994 -5.68854,0.009 0,-0.15373 -0.18018,-0.27967 -0.40058,-0.27967 -0.51038,0 -1.45415,-0.52837 -2.00898,-1.12448 -0.2368,-0.25453 -0.55933,-0.46302 -0.71676,-0.46302 -0.15742,0 -0.61991,-0.44635 -1.02737,-0.99218 -0.40773,-0.54558 -0.83027,-1.03188 -0.93954,-1.0803 -0.10927,-0.0487 -0.19844,-0.26538 -0.19844,-0.48207 0,-0.47572 -0.66516,-1.1901 -0.89455,-0.9607 m 42.63257,90.97909 c -1.05383,0.57177 -0.93609,0.96732 0.52996,1.78224 l 0.86043,0.47836 0.26432,-0.69506 c 0.34078,-0.89614 0.0685,-1.98464 -0.49266,-1.97088 -0.23891,0.006 -0.76173,0.18812 -1.16205,0.40534 m -68.15746,0.84085 c 0.12727,1.58909 1.18745,2.22488 1.87458,1.12448 0.38761,-0.62045 1.1295,-0.72708 0.90011,-0.12912 -0.1614,0.42069 0.60457,2.01877 1.03558,2.16112 0.13864,0.0455 0.48207,-0.26062 0.76332,-0.68025 0.42307,-0.63156 0.57177,-0.70326 0.8599,-0.41513 0.19156,0.19183 0.34845,0.51277 0.34845,0.71358 0,0.20109 0.15479,0.5768 0.3437,0.83556 0.31803,0.43471 0.40772,0.39555 1.19062,-0.52123 0.97923,-1.14644 1.11337,-1.83145 0.31803,-1.62348 -0.29077,0.0762 -0.59557,0.0304 -0.67707,-0.10134 -0.0815,-0.13176 -0.43312,-0.23971 -0.78158,-0.23971 -0.62997,0 -1.09378,-0.15716 -3.23506,-1.09591 -0.617,-0.2704 -1.2946,-0.49159 -1.50574,-0.49159 -0.2114,0 -0.45773,-0.11906 -0.54769,-0.26459 -0.09,-0.14552 -0.34422,-0.26458 -0.56515,-0.26458 -0.30162,0 -0.38179,0.24659 -0.322,0.99219 m 65.84236,0.0476 c -0.21828,0.12621 -1.23031,0.43498 -2.24896,0.6858 -1.01864,0.25083 -1.98834,0.56462 -2.15503,0.69745 -0.16642,0.13282 -0.40455,0.21193 -0.52917,0.17594 -0.12435,-0.0362 -0.48551,0.0783 -0.80248,0.25427 -0.3167,0.17595 -0.76332,0.24791 -0.99218,0.16007 -0.69798,-0.26776 -0.46752,0.40693 0.48365,1.41526 0.82471,0.87392 0.93504,0.91837 1.32292,0.53022 0.23283,-0.23257 0.42333,-0.84825 0.42333,-1.36816 0,-0.51964 0.0712,-0.94483 0.15849,-0.94483 0.087,0 0.49212,0.35719 0.89985,0.79375 0.88926,0.95198 1.58406,1.03849 1.59596,0.19844 0.005,-0.32729 0.17595,-0.8165 0.38047,-1.08664 0.35746,-0.47175 0.39979,-0.46382 1.06204,0.19844 1.1602,1.16019 1.72403,0.81597 1.72403,-1.05172 0,-0.94298 -0.44741,-1.16549 -1.32292,-0.65829 m -57.2299,2.03888 c -0.4191,0.4191 0.13149,2.73394 0.65167,2.74003 0.35374,0.004 1.5449,-1.64174 1.5449,-2.13492 0,-0.36169 -0.18495,-0.5088 -0.63976,-0.5088 -0.3519,0 -0.8046,-0.0632 -1.00595,-0.14049 -0.20161,-0.0773 -0.44926,-0.0574 -0.55086,0.0442 m 48.90981,0.33761 c -0.082,0.13282 -0.50562,0.18521 -0.94165,0.11642 -1.00886,-0.15902 -1.03849,0.30162 -0.0926,1.4433 0.85487,1.03214 1.68142,1.12977 1.68142,0.19897 0,-0.35534 0.10795,-0.71253 0.23972,-0.79402 0.34634,-0.21405 0.0278,-1.20597 -0.38735,-1.20597 -0.19262,0 -0.41752,0.10848 -0.49954,0.2413 m -46.35526,0.83529 c 0.0468,0.42783 0.16404,0.85646 0.26035,0.95303 0.0966,0.0963 0.17542,0.39344 0.17542,0.6604 0,0.55906 0.28495,0.62336 0.74083,0.16748 0.17463,-0.17462 0.31935,-0.20426 0.32147,-0.0661 0.002,0.13811 0.15081,-0.0368 0.33073,-0.38921 0.51726,-1.01388 0.93953,-0.94694 1.40785,0.22358 0.23733,0.59319 0.57441,1.07844 0.74877,1.07844 0.31221,0 1.21285,-1.7362 1.21285,-2.33786 0,-0.26776 -1.28429,-0.44688 -2.64187,-0.36856 -0.21616,0.0124 -0.45429,-0.0696 -0.52916,-0.18204 -0.0749,-0.11271 -0.58076,-0.2749 -1.12422,-0.36063 -0.96546,-0.1524 -0.9861,-0.13811 -0.90302,0.62151 m 43.03368,-0.25188 c 0,0.17224 -0.27543,0.24262 -0.66145,0.1688 -0.89006,-0.17013 -0.89641,0.6477 -0.0119,1.53194 0.78052,0.78078 1.46711,0.84428 1.46711,0.136 0,-0.28258 0.11907,-0.58712 0.26459,-0.67707 0.14552,-0.09 0.26458,-0.45403 0.26458,-0.80936 0,-0.5125 -0.13652,-0.64585 -0.66146,-0.64585 -0.3638,0 -0.66146,0.13282 -0.66146,0.29554 m -37.30625,1.17131 c 0,0.63129 0.21432,1.16866 0.65617,1.64518 0.64426,0.69479 0.66331,0.69823 1.04987,0.18679 0.21669,-0.28628 0.39767,-0.66939 0.40216,-0.85143 0.0114,-0.44106 1.0668,-0.42783 1.0668,0.0135 0,0.55165 0.63712,1.76821 0.92605,1.76821 0.14552,2.6e-4 0.53789,-0.47837 0.8718,-1.0631 0.53155,-0.93054 0.65537,-1.0152 0.99219,-0.67839 0.21166,0.21167 0.38867,0.5424 0.39343,0.73475 0.005,0.19209 0.16801,0.55986 0.36327,0.81703 0.40058,0.52811 1.21576,0.36036 1.21576,-0.25003 0,-0.21325 0.1786,-0.56621 0.39688,-0.78449 0.21828,-0.21828 0.39687,-0.55298 0.39687,-0.74401 0,-0.46884 -1.07659,-0.7231 -1.51659,-0.35771 -0.25876,0.21484 -0.51064,0.21457 -0.9398,-8e-4 -0.32252,-0.16166 -1.30069,-0.3593 -2.17381,-0.43894 -2.18149,-0.19923 -3.28719,-0.42307 -3.45837,-0.70009 -0.32465,-0.52546 -0.64268,-0.17727 -0.64268,0.70353 m 34.925,-0.6858 c 0,0.13864 -0.68447,0.23945 -1.52135,0.2241 -1.66158,-0.0304 -3.24115,0.26061 -3.24115,0.59716 0,0.11722 0.26803,0.63289 0.59532,1.14618 0.81597,1.27926 1.42637,1.24169 1.65338,-0.10134 0.23997,-1.42001 0.56647,-1.54172 1.10516,-0.41222 0.84773,1.77747 2.16482,0.85672 1.96718,-1.37504 -0.0339,-0.38258 -0.55854,-0.4564 -0.55854,-0.0788 m -6.87043,0.90355 c -0.14737,0.14737 -1.25148,0.28601 -2.45348,0.30771 -4.36616,0.0796 -4.43468,0.0886 -4.43019,0.58738 0.004,0.49635 1.3634,2.18281 1.75869,2.18281 0.13097,0 0.39635,-0.53578 0.58976,-1.19063 0.40269,-1.36366 0.59107,-1.45547 1.0869,-0.52916 0.19474,0.3638 0.45297,0.66145 0.57389,0.66145 0.12091,0 0.21986,0.23813 0.21986,0.52917 0,0.97446 0.84985,0.33761 1.15094,-0.86254 0.10028,-0.39873 0.31459,-0.72496 0.47678,-0.72496 0.32861,0 1.2827,1.01415 1.2827,1.3634 0,0.53552 0.75459,0.15875 1.00859,-0.5035 0.66093,-1.72403 0.64823,-1.84812 -0.20082,-1.97247 -0.43735,-0.0643 -0.91598,0.004 -1.06362,0.15134 m -19.05873,0.47625 c 0,0.22331 0.99906,2.33177 1.22158,2.57784 0.16351,0.18124 1.15808,-1.08771 1.02341,-1.30546 -0.0688,-0.11165 0.0677,-0.27675 0.30347,-0.36724 0.44583,-0.17119 1.1557,0.25241 1.1557,0.6895 0,0.13812 0.1786,0.42969 0.39688,0.64797 0.43868,0.43841 0.73501,0.24553 1.38906,-0.90435 0.66225,-1.16469 0.45879,-1.38059 -1.32292,-1.4052 -0.90937,-0.0127 -2.21932,-0.0571 -2.91041,-0.0987 -0.69109,-0.0418 -1.25677,0.0328 -1.25677,0.16563 m 6.23464,0.55113 c 0.23124,0.74506 1.13797,2.05052 1.42425,2.05052 0.11801,0 0.36248,-0.35719 0.54319,-0.79375 0.47069,-1.13665 1.43166,-0.97155 1.92484,0.33073 0.28549,0.7538 0.83133,0.53181 1.28826,-0.52441 0.67442,-1.55813 0.51726,-1.65841 -2.59768,-1.65841 -2.74875,0 -2.76648,0.004 -2.58286,0.59532"
       stroke="none"
       fill="#f0cf0d"
       fill-rule="evenodd"
       id="path12"
       style="fill:#000000;fill-opacity:1;stroke-width:0.264583" />
    <path
       d="m 73.08323,240.90243 c -16.69151,0.28019 -31.34784,0.74586 -32.08735,1.01944 -0.38285,0.14155 0.0487,0.25559 1.41447,0.37333 4.74688,0.40931 11.55091,2.10502 19.42808,4.84187 15.78002,5.48243 21.54608,7.02601 30.69167,8.21584 5.29484,0.68898 19.05503,0.68818 24.34167,-0.001 10.16767,-1.32582 17.48022,-3.21336 29.10416,-7.51257 9.25963,-3.42477 17.08891,-5.59039 20.40626,-5.64462 0.80221,-0.0132 0.90858,-0.064 0.48921,-0.23416 -0.29474,-0.11933 -2.91412,-0.35137 -5.82083,-0.51541 -2.90671,-0.16404 -6.08118,-0.35639 -7.05406,-0.42757 -1.4142,-0.10371 -23.32857,-0.13943 -40.69662,-0.0664 -1.67349,0.007 -8.34099,-0.0527 -14.81666,-0.13255 -6.47568,-0.0796 -17.90568,-0.0421 -25.4,0.0839"
       stroke="none"
       fill="#162725"
       fill-rule="evenodd"
       id="path1149"
       sodipodi:nodetypes="ccccccsccscccc"
       style="fill:#020101;fill-opacity:1;stroke-width:0.264583" />
    <path
       d="m 121.9032,87.706142 c 0.47546,0.0587 1.18983,0.0577 1.5875,-0.003 0.39767,-0.0606 0.008,-0.10874 -0.86466,-0.10716 -0.87312,10e-4 -1.1983,0.0508 -0.72284,0.10981 m -42.431424,6.42311 c 0,2.11005 0.04127,2.97338 0.09155,1.91822 0.05001,-1.05515 0.05001,-2.7813 0,-3.83645 -0.05027,-1.05516 -0.09155,-0.19183 -0.09155,1.91823 m 2.636044,8.202068 c 0,1.38245 0.04471,1.94813 0.09922,1.25677 0.05451,-0.69136 0.05451,-1.82219 0,-2.51354 -0.0545,-0.69136 -0.09922,-0.12568 -0.09922,1.25677 m 69.64594,48.97914 c -1.11999,0.26273 -2.80961,1.19247 -3.13823,1.7272 -0.11244,0.18256 -0.36486,0.49265 -0.56091,0.68897 -0.44609,0.44609 -1.2192,1.9222 -1.2192,2.32807 0,0.44397 -0.85196,2.20345 -1.17687,2.43046 -0.15319,0.10689 -0.66516,0.19606 -1.13824,0.19844 -0.47307,0.002 -0.85989,0.10477 -0.85989,0.22807 0,0.1233 -0.23813,0.49874 -0.52917,0.83423 -0.59875,0.6903 -0.66834,1.36234 -0.22675,2.18758 0.22357,0.41724 0.22463,0.59134 0.005,0.66463 -0.16377,0.0545 -0.42624,0.576 -0.58314,1.15887 -0.23468,0.87128 -0.20928,1.17608 0.14288,1.71345 0.23574,0.35983 0.62997,0.73025 0.87603,0.82338 0.24633,0.0931 0.60511,0.32491 0.79719,0.51488 0.19235,0.18997 0.54954,0.35533 0.79375,0.36698 0.24448,0.0119 1.03638,0.33946 1.76001,0.7276 1.13692,0.61039 1.34514,0.84984 1.5322,1.76451 0.12515,0.61145 0.11113,1.2909 -0.0331,1.60919 -0.32544,0.71835 -2.4384,1.37928 -6.20527,1.94125 -1.71186,0.25559 -2.96572,0.56912 -3.02869,0.75777 -0.11589,0.34739 -2.35744,0.40428 -3.48906,0.0886 -0.44,-0.12276 -1.4478,-1.32397 -3.14219,-3.74412 -2.97947,-4.25582 -3.47266,-5.25224 -3.48033,-7.03236 -0.004,-0.97313 -0.21775,-1.74916 -0.76173,-2.76701 -1.18243,-2.21324 -2.30611,-2.62017 -1.47109,-0.53261 0.50324,1.25704 0.27199,1.78144 -0.37941,0.86043 -0.92445,-1.30651 -1.85499,-2.28627 -2.01745,-2.12355 -0.0934,0.0931 0.0159,0.61357 0.24262,1.1565 0.48102,1.15093 0.51144,1.4515 0.14791,1.4515 -0.14552,0 -0.26459,-0.15319 -0.26459,-0.34078 0,-0.18733 -0.36353,-0.75301 -0.80777,-1.25677 l -0.80751,-0.91599 0.10875,0.79375 c 0.0598,0.43656 0.20584,1.02288 0.32438,1.30281 0.17488,0.41222 0.12964,0.47598 -0.23707,0.33496 -1.48035,-0.5678 -0.046,2.51407 1.76768,3.79862 1.85155,1.31154 2.49132,2.07778 3.26893,3.91504 0.95673,2.2606 2.5437,5.14588 3.14801,5.72373 0.15557,0.14896 0.4789,0.58738 0.71808,0.97446 0.58261,0.94272 3.03503,2.03015 5.41152,2.39951 l 1.92696,0.29977 0.28946,1.07659 c 0.35612,1.32557 0.56303,1.46421 2.19022,1.4695 l 1.2946,0.004 -0.23071,1.65364 c -0.12674,0.90964 -0.2458,3.49912 -0.26459,5.75469 -0.0188,2.25557 -0.18626,4.93448 -0.372,5.95313 -0.18574,1.01864 -0.38127,3.51895 -0.43445,5.55625 -0.0532,2.03729 -0.16986,6.26401 -0.25929,9.3927 -0.0915,3.20834 -0.0564,6.0923 0.081,6.61459 0.2339,0.89006 0.3048,0.93451 1.8161,1.14538 0.86519,0.12065 1.81584,0.26564 2.11297,0.322 0.61171,0.11615 2.0103,2.70086 2.54661,4.70588 0.18177,0.67918 0.42466,1.23507 0.54002,1.23507 0.11535,0 0.20981,0.17489 0.20981,0.38867 0,0.21379 0.71252,1.9992 1.58353,3.9677 2.09788,4.74212 2.29526,5.56895 1.85791,7.78642 -0.37518,1.90288 -0.66728,2.71648 -1.34038,3.73221 -1.55417,2.34553 0.22701,3.99389 2.17566,2.01348 0.48552,-0.49345 1.18031,-1.33138 1.54411,-1.8624 0.36381,-0.53076 0.9824,-1.13877 1.37478,-1.35123 0.39238,-0.21246 1.0332,-0.68262 1.42425,-1.0451 0.60828,-0.56383 0.69056,-0.81122 0.56965,-1.71318 -0.0778,-0.5797 -0.33152,-1.24434 -0.56409,-1.4769 -1.37584,-1.37584 -2.0537,-3.44038 -2.95011,-8.98446 -0.23521,-1.45521 -0.84296,-3.83646 -1.35043,-5.29167 -0.50747,-1.45521 -0.98769,-2.85432 -1.06707,-3.10885 -0.1217,-0.38973 0.0291,-0.46302 0.95277,-0.46302 0.60325,0 1.8116,-0.30083 2.68499,-0.66834 l 1.58829,-0.6686 0.8763,0.6686 c 1.03479,0.78925 1.16232,0.80539 1.80049,0.22807 0.45588,-0.41275 0.52414,-0.40534 1.08215,0.11906 0.8292,0.77894 2.54423,1.01627 3.55785,0.49186 0.90514,-0.46804 2.66409,-2.35029 4.44553,-4.7572 3.04562,-4.11507 3.63696,-4.48893 6.47674,-4.09602 3.59171,0.49715 4.7625,0.25638 4.7625,-0.97975 0,-0.52652 -0.57415,-1.15517 -2.27383,-2.48947 -0.79534,-0.62468 -2.10185,-1.09749 -4.10978,-1.48801 -2.95486,-0.57441 -3.45572,-0.38047 -4.0714,1.57691 -0.44027,1.39939 -0.52388,1.49014 -1.81637,1.96533 -0.74507,0.27411 -1.67931,0.576 -2.07645,0.67125 -0.67389,0.16166 -0.71226,0.12462 -0.58182,-0.55827 0.1188,-0.62257 -0.1188,-1.00568 -1.60364,-2.58313 -2.47438,-2.62864 -3.83963,-4.45294 -3.83963,-5.13001 0,-0.32147 -0.48683,-1.31709 -1.08188,-2.21297 -0.59505,-0.89588 -1.42849,-2.31537 -1.85208,-3.15463 -0.76253,-1.51051 -0.77021,-1.57215 -0.7673,-6.09732 l 0.003,-4.57174 1.08559,1.13507 c 1.0414,1.08928 1.11072,1.11865 1.70762,0.7276 0.34211,-0.2241 0.78766,-0.40746 0.99034,-0.40746 0.20267,0 1.20491,0.92604 2.22699,2.05793 1.02209,1.13215 2.31881,2.29288 2.88185,2.57969 0.56303,0.28707 1.06336,0.61092 1.11177,0.72019 0.0487,0.10928 0.20585,0.19844 0.34925,0.19844 0.14367,0 0.78026,0.35719 1.41473,0.79375 0.63447,0.43656 1.25016,0.79375 1.3679,0.79375 0.11774,0 0.72125,0.20849 1.34143,0.46302 0.88398,0.36301 1.19195,0.66278 1.42743,1.38906 0.33576,1.03479 1.26736,2.97154 1.52718,3.175 0.0931,0.0728 0.37756,0.45959 0.63209,0.8599 0.92419,1.4523 1.63803,0.40375 0.81227,-1.19301 -0.62072,-1.20041 0.16986,-0.79824 0.8292,0.42175 0.88053,1.62904 1.99893,0.86069 1.48511,-1.02023 -0.27438,-1.00489 -1.56634,-2.68023 -2.46248,-3.193 -0.23151,-0.13255 -1.29699,-1.02658 -2.36749,-1.98675 -1.07077,-0.95991 -3.0779,-2.72706 -4.46035,-3.92668 -5.71711,-4.96068 -5.46073,-4.69265 -5.07841,-5.31495 0.31327,-0.50985 0.22648,-0.70194 -0.92604,-2.05132 -3.25967,-3.81688 -4.65482,-5.09296 -6.50584,-5.95048 l -1.83012,-0.84799 0.13864,-1.03372 c 0.0765,-0.56833 0.27596,-1.1184 0.44397,-1.22211 0.16774,-0.10372 1.28826,-0.25797 2.48999,-0.3429 3.65998,-0.25824 5.6216,-1.42426 7.21202,-4.28705 0.64981,-1.16946 0.73554,-1.59887 0.73924,-3.70416 0.004,-2.10847 -0.0818,-2.5453 -0.74745,-3.81424 -0.96811,-1.84494 -3.10462,-3.9743 -4.88421,-4.86833 -2.15238,-1.08109 -5.09322,-1.46103 -7.30011,-0.9435 m -90.841711,87.47574 c 0.691356,0.0545 1.822186,0.0545 2.513542,0 0.691356,-0.0545 0.125677,-0.0992 -1.256771,-0.0992 -1.382448,0 -1.948127,0.0447 -1.256771,0.0992 m 21.298958,5.3e-4 c 0.763852,0.0534 2.014273,0.0534 2.778125,0 0.763852,-0.0534 0.138906,-0.0971 -1.389062,-0.0971 -1.527969,0 -2.152915,0.0437 -1.389063,0.0971 m 31.368403,0.003 c 1.86399,0.0455 4.84055,0.0453 6.61458,-2.6e-4 1.7743,-0.0458 0.24924,-0.0831 -3.38878,-0.0828 -3.63802,0 -5.08953,0.0376 -3.2258,0.0831 m -31.103819,15.34372 c 0.909637,0.0519 2.397918,0.0519 3.307291,0 0.909638,-0.0516 0.165365,-0.0939 -1.653646,-0.0939 -1.81901,0 -2.563018,0.0423 -1.653645,0.0939"
       stroke="none"
       fill="#d08016"
       fill-rule="evenodd"
       id="path4"
       style="stroke-width:0.264583" />
    <path
       d="m 46.429389,153.35182 c -0.1688,0.2032 -0.5461,0.30692 -0.8382,0.23045 -0.32041,-0.0836 -0.6596,0.036 -0.85381,0.30137 -0.21696,0.29712 -0.62256,0.41592 -1.2446,0.36486 -0.81148,-0.0667 -0.96679,0.0243 -1.28905,0.75617 -0.29369,0.66649 -0.56938,0.86413 -1.38906,0.99537 -0.89694,0.1434 -1.02314,0.25241 -1.02658,0.88794 -0.005,0.90699 -0.32915,1.43801 -0.81413,1.33376 -0.2405,-0.0519 -0.40402,0.19685 -0.46143,0.70247 -0.0492,0.43021 -0.31697,0.98002 -0.59531,1.22158 -0.55272,0.47916 -0.66411,1.30413 -0.23416,1.73408 0.1868,0.1868 0.14579,0.51541 -0.1307,1.04511 -0.57018,1.09352 -0.51753,2.14974 0.12462,2.49343 0.44476,0.23812 0.5035,0.45376 0.363,1.33218 -0.11218,0.70088 -0.0688,1.04828 0.13071,1.04828 0.16404,0 0.29845,0.17859 0.29845,0.39687 0,0.21828 0.16748,0.39688 0.372,0.39688 0.2458,0 0.32359,0.18547 0.2294,0.54663 -0.21008,0.80301 0.43576,1.83462 1.14855,1.83462 0.39397,0 0.72179,0.24844 0.94748,0.71808 0.18997,0.39475 0.69955,0.9009 1.13294,1.12447 0.43312,0.22358 1.09114,0.70406 1.46209,1.06786 1.1176,1.09538 1.69069,1.28561 3.86847,1.28482 2.44158,-10e-4 3.47663,-0.31935 3.59013,-1.10384 0.0757,-0.52361 0.11404,-0.51091 0.57203,0.19129 0.55139,0.84508 0.41831,1.03002 -1.0369,1.44383 -1.77562,0.50536 -7.04718,5.0374 -6.78259,5.83115 0.0667,0.19977 -0.0447,0.45588 -0.24739,0.56939 -0.20267,0.1135 -1.55046,1.0496 -2.99535,2.08015 -1.44462,1.03082 -2.75907,1.87405 -2.921,1.87405 -0.16192,0 -0.88318,0.28707 -1.60311,0.63817 -1.52426,0.74322 -5.01253,2.00766 -5.53826,2.00766 -0.19896,0 -0.41619,-0.20849 -0.48286,-0.46302 -0.0664,-0.25453 -0.13467,0.51276 -0.15161,1.70524 l -0.0307,2.16799 1.39092,-0.63658 c 0.76491,-0.35031 2.45163,-0.9443 3.74808,-1.32001 2.74823,-0.7964 4.91517,-1.68487 4.91517,-2.01533 0,-0.12753 0.19209,-0.23204 0.42677,-0.23204 0.38232,0 1.96427,-1.0795 4.58179,-3.12685 0.84931,-0.6641 1.56369,-0.78819 1.8706,-0.32464 0.0728,0.1098 0.57891,0.34528 1.12448,0.52335 1.12686,0.36724 1.11443,0.3339 1.53459,4.07537 0.25506,2.27092 0.23918,2.66092 -0.12515,3.06335 -0.22939,0.25373 -0.41725,0.59081 -0.41725,0.74903 0,0.15849 -0.0998,0.32756 -0.22172,0.37624 -0.22119,0.0878 -2.89454,3.47292 -4.41404,5.58932 -1.48326,2.06561 -4.87786,6.66459 -5.411,7.33108 -0.2913,0.3638 -0.53102,0.81042 -0.53313,0.99219 -0.002,0.18203 -0.11933,0.33073 -0.26115,0.33073 -0.14181,0 -0.42836,0.32729 -0.63658,0.7276 -0.20849,0.40031 -0.68766,1.08479 -1.06495,1.52135 -0.3773,0.43657 -0.68607,0.88821 -0.68633,1.00383 0,0.11536 -0.27014,0.50086 -0.59981,0.85646 -0.32967,0.35533 -0.82259,1.06071 -1.09538,1.56739 l -0.49582,0.92102 0.89693,0.81756 c 0.49319,0.44953 1.34356,1.22872 1.88913,1.73143 0.60245,0.5551 0.99218,1.15676 0.99218,1.53194 0,0.46461 0.2466,0.72072 0.99219,1.03108 1.6338,0.67998 3.82191,1.45071 5.18001,1.82457 1.22503,0.33734 1.27106,0.38444 1.12448,1.14776 -0.77337,4.02643 -0.73607,7.48718 0.12515,11.64405 0.72549,3.50229 0.63262,4.64132 -0.55536,6.80931 -0.68315,1.24619 -0.62203,1.26048 5.43666,1.26048 6.30185,0 6.46906,-0.054 4.93369,-1.58909 -1.27874,-1.27899 -1.67746,-2.42491 -1.47294,-4.23307 0.0987,-0.87233 0.2831,-1.58617 0.40984,-1.58617 0.12673,0 0.23045,-0.23813 0.23045,-0.52917 0,-0.29104 0.11906,-0.52917 0.26458,-0.52917 0.14553,0 0.26459,-0.27464 0.26459,-0.61013 0,-0.33549 0.22489,-1.31789 0.4998,-2.18281 0.2749,-0.86492 0.81518,-2.58471 1.20041,-3.82191 0.8427,-2.7051 0.88874,-2.78235 1.787,-3.00222 0.38999,-0.0952 0.91149,-0.37545 1.15861,-0.62283 0.35877,-0.35878 0.85778,-0.43551 2.47517,-0.38021 1.6428,0.0558 2.2868,-0.0466 3.40784,-0.54239 0.76015,-0.33629 1.447,-0.81492 1.52638,-1.06363 0.26908,-0.84296 -0.88001,-8.17113 -2.04497,-13.04158 -0.13917,-0.58208 -0.31353,-1.41552 -0.38735,-1.85208 -0.0736,-0.43656 -0.23759,-1.03187 -0.36406,-1.32292 -0.12674,-0.29104 -0.29713,-0.97551 -0.37889,-1.52135 -0.33972,-2.26721 -0.48313,-2.84427 -0.7067,-2.84427 -0.12964,0 -0.23574,-0.32412 -0.23574,-0.7202 0,-0.39608 -0.22913,-1.49727 -0.50906,-2.44739 -1.28588,-4.36298 -1.66132,-6.09309 -1.53273,-7.06147 0.78581,-5.90761 0.96811,-7.61709 0.97525,-9.14241 0.007,-1.59094 0.0913,-1.8714 0.80195,-2.68076 0.49742,-0.56647 0.79375,-1.19486 0.79375,-1.68275 0,-0.63738 0.30613,-1.02711 1.68593,-2.14683 2.99006,-2.4257 5.17049,-5.05301 5.96821,-7.19111 0.18997,-0.50932 0.51382,-1.30889 0.7194,-1.77694 0.20558,-0.46805 0.60034,-1.55972 0.87709,-2.42596 0.89191,-2.79189 1.57718,-3.65575 3.79651,-4.78579 0.84164,-0.42836 2.30293,-2.28123 2.29023,-2.90353 -0.007,-0.34661 -0.0635,-0.33841 -0.35983,0.0521 -0.47546,0.62627 -0.93742,0.58632 -0.76676,-0.0661 0.0762,-0.29104 0.24368,-0.52916 0.37226,-0.52916 0.12833,0 0.23363,-0.23813 0.23363,-0.52917 0,-0.35269 -0.17648,-0.52917 -0.52917,-0.52917 -0.29104,0 -0.52916,0.10637 -0.52916,0.23628 0,0.28098 -0.80989,0.62944 -1.00648,0.43312 -0.0751,-0.0754 0.0794,-0.37571 0.34343,-0.66781 0.93107,-1.0287 -0.18759,-0.55695 -1.25068,0.52758 -0.57071,0.58208 -1.14724,1.05833 -1.28165,1.05833 -0.32226,0 -0.31511,-0.041 0.18019,-1.03425 0.48683,-0.97552 0.37147,-1.25598 -0.33259,-0.80804 -0.90831,0.57811 -1.86769,2.44951 -2.03755,3.97536 -0.12436,1.11628 -0.64373,2.4011 -2.15186,5.32289 -1.09326,2.11852 -1.98781,3.98807 -1.98781,4.15502 0,0.55483 -1.86611,3.12393 -2.52571,3.47662 -0.35719,0.1913 -0.64929,0.44662 -0.64929,0.56753 0,0.12092 -0.12145,0.21987 -0.26988,0.21987 -0.14843,0 -0.71384,0.27411 -1.25677,0.60907 -0.54266,0.33523 -1.20306,0.56304 -1.46738,0.50642 -0.26405,-0.0564 -1.13056,0.20531 -1.92537,0.58155 -1.97459,0.93504 -2.31008,0.90699 -2.09762,-0.17568 0.35428,-1.80631 0.67972,-2.07778 4.04046,-3.37132 0.47307,-0.18204 0.85989,-0.43551 0.85989,-0.5633 0,-0.12806 0.17145,-0.23257 0.38127,-0.23257 0.63235,0 0.75141,-0.50932 0.40666,-1.74069 -0.25479,-0.90991 -0.45217,-1.17052 -0.88847,-1.1737 -0.32755,-0.002 -0.43974,-0.0849 -0.26988,-0.19843 0.42995,-0.28708 0.89959,-1.27318 0.89959,-1.88886 0,-0.29634 -0.35719,-0.80275 -0.79375,-1.12554 -0.43656,-0.32279 -0.79375,-0.73581 -0.79375,-0.91811 0,-0.19155 -0.41778,-0.36565 -0.99166,-0.41327 -0.96335,-0.0796 -1.00912,-0.1315 -1.59676,-1.80182 -0.44582,-1.26656 -0.91281,-2.00527 -1.77271,-2.80273 -0.85963,-0.79772 -1.13003,-1.22528 -1.02605,-1.62269 0.0905,-0.34687 -0.0389,-0.66913 -0.36222,-0.90143 -0.27675,-0.19897 -0.57229,-0.54769 -0.65669,-0.7747 -0.12277,-0.3302 -0.67046,-0.42413 -2.72892,-0.46699 -1.65602,-0.0347 -2.70854,0.0569 -2.94904,0.25638 -0.28311,0.23495 -0.44821,0.23574 -0.67998,0.004 -0.41593,-0.41593 -1.12818,-0.38577 -1.50072,0.0632 m 3.50653,70.60486 c -0.11325,0.18203 -0.29025,1.0451 -0.39344,1.91823 -0.10292,0.87312 -0.37439,2.7678 -0.60325,4.21031 -0.44265,2.79109 -0.5633,7.70599 -0.195,7.93353 0.12171,0.0751 0.42677,-0.29501 0.67839,-0.82259 0.45615,-0.9562 0.76121,-3.10038 1.084,-7.61709 0.0937,-1.30968 0.40005,-3.13795 0.68104,-4.06267 0.28072,-0.92499 0.51064,-1.72853 0.51064,-1.78594 0,-0.26855 -1.58062,-0.0653 -1.76238,0.22622"
       stroke="none"
       fill="#a1209d"
       fill-rule="evenodd"
       id="path6"
       style="stroke-width:0.264583" />
  </g>
</svg>
