<?xml version="1.0" encoding="UTF-8" standalone="no"?>
<svg
   width="1024"
   height="1024"
   viewBox="0 0 1024 1024"
   version="1.1"
   id="svg18"
   sodipodi:docname="logo-color-name-alt.svg"
   inkscape:version="1.1.2 (0a00cf5339, 2022-02-04)"
   inkscape:export-filename="/home/david/Development/webdev/jccf/public/logo/logo-color-name-alt.png"
   inkscape:export-xdpi="300"
   inkscape:export-ydpi="300"
   xmlns:inkscape="http://www.inkscape.org/namespaces/inkscape"
   xmlns:sodipodi="http://sodipodi.sourceforge.net/DTD/sodipodi-0.dtd"
   xmlns:xlink="http://www.w3.org/1999/xlink"
   xmlns="http://www.w3.org/2000/svg"
   xmlns:svg="http://www.w3.org/2000/svg">
  <defs
     id="defs22" />
  <sodipodi:namedview
     id="namedview20"
     pagecolor="#ffffff"
     bordercolor="#666666"
     borderopacity="1.0"
     inkscape:pageshadow="2"
     inkscape:pageopacity="0.0"
     inkscape:pagecheckerboard="0"
     showgrid="false"
     inkscape:zoom="0.51603399"
     inkscape:cx="162.77997"
     inkscape:cy="689.87703"
     inkscape:window-width="1485"
     inkscape:window-height="795"
     inkscape:window-x="0"
     inkscape:window-y="32"
     inkscape:window-maximized="1"
     inkscape:current-layer="svg18"
     inkscape:snap-text-baseline="false"
     showguides="true"
     inkscape:guide-bbox="true">
    <sodipodi:guide
       position="-171.50684,182.11002"
       orientation="0,-1"
       id="guide15218" />
    <sodipodi:guide
       position="512.20285,986.33803"
       orientation="1,0"
       id="guide15586" />
  </sodipodi:namedview>
  <path
     d="m 708.45432,428.67822 c -4.233,0.993 -10.619,4.507 -11.861,6.528 -0.425,0.69 -1.379,1.862 -2.12,2.604 -1.686,1.686 -4.608,7.265 -4.608,8.799 0,1.678 -3.22,8.328 -4.448,9.186 -0.579,0.404 -2.514,0.741 -4.302,0.75 -1.788,0.008 -3.25,0.396 -3.25,0.862 0,0.466 -0.9,1.885 -2,3.153 -2.263,2.609 -2.526,5.149 -0.857,8.268 0.845,1.577 0.849,2.235 0.018,2.512 -0.619,0.206 -1.611,2.177 -2.204,4.38 -0.887,3.293 -0.791,4.445 0.54,6.476 0.891,1.36 2.381,2.76 3.311,3.112 0.931,0.352 2.287,1.228 3.013,1.946 0.727,0.718 2.077,1.343 3,1.387 0.924,0.045 3.917,1.283 6.652,2.75 4.297,2.307 5.084,3.212 5.791,6.669 0.473,2.311 0.42,4.879 -0.125,6.082 -1.23,2.715 -9.216,5.213 -23.453,7.337 -6.47,0.966 -11.209,2.151 -11.447,2.864 -0.438,1.313 -8.91,1.528 -13.187,0.335 -1.663,-0.464 -5.472,-5.004 -11.876,-14.151 -11.261,-16.085 -13.125,-19.851 -13.154,-26.579 -0.016,-3.678 -0.823,-6.611 -2.879,-10.458 -4.469,-8.365 -8.716,-9.903 -5.56,-2.013 1.902,4.751 1.028,6.733 -1.434,3.252 -3.494,-4.938 -7.011,-8.641 -7.625,-8.026 -0.353,0.352 0.06,2.319 0.917,4.371 1.818,4.35 1.933,5.486 0.559,5.486 -0.55,0 -1,-0.579 -1,-1.288 0,-0.708 -1.374,-2.846 -3.053,-4.75 l -3.052,-3.462 0.411,3 c 0.226,1.65 0.778,3.866 1.226,4.924 0.661,1.558 0.49,1.799 -0.896,1.266 -5.595,-2.146 -0.174,9.502 6.681,14.357 6.998,4.957 9.416,7.853 12.355,14.797 3.616,8.544 9.614,19.449 11.898,21.633 0.588,0.563 1.81,2.22 2.714,3.683 2.202,3.563 11.471,7.673 20.453,9.069 l 7.283,1.133 1.094,4.069 c 1.346,5.01 2.128,5.534 8.278,5.554 l 4.893,0.015 -0.872,6.25 c -0.479,3.438 -0.929,13.225 -1,21.75 -0.071,8.525 -0.704,18.65 -1.406,22.5 -0.702,3.85 -1.441,13.3 -1.642,21 -0.201,7.7 -0.642,23.675 -0.98,35.5 -0.346,12.126 -0.213,23.026 0.306,25 0.884,3.364 1.152,3.532 6.864,4.329 3.27,0.456 6.863,1.004 7.986,1.217 2.312,0.439 7.598,10.208 9.625,17.786 0.687,2.567 1.605,4.668 2.041,4.668 0.436,0 0.793,0.661 0.793,1.469 0,0.808 2.693,7.556 5.985,14.996 7.929,17.923 8.675,21.048 7.022,29.429 -1.418,7.192 -2.522,10.267 -5.066,14.106 -5.874,8.865 0.858,15.095 8.223,7.61 1.835,-1.865 4.461,-5.032 5.836,-7.039 1.375,-2.006 3.713,-4.304 5.196,-5.107 1.483,-0.803 3.905,-2.58 5.383,-3.95 2.299,-2.131 2.61,-3.066 2.153,-6.475 -0.294,-2.191 -1.253,-4.703 -2.132,-5.582 -5.2,-5.2 -7.762,-13.003 -11.15,-33.957 -0.889,-5.5 -3.186,-14.5 -5.104,-20 -1.918,-5.5 -3.733,-10.788 -4.033,-11.75 -0.46,-1.473 0.11,-1.75 3.601,-1.75 2.28,0 6.847,-1.137 10.148,-2.526 l 6.003,-2.527 3.312,2.527 c 3.911,2.983 4.393,3.044 6.805,0.862 1.723,-1.56 1.981,-1.532 4.09,0.45 3.134,2.944 9.616,3.841 13.447,1.859 3.421,-1.769 10.069,-8.883 16.802,-17.98 11.511,-15.553 13.746,-16.966 24.479,-15.481 13.575,1.879 18,0.969 18,-3.703 0,-1.99 -2.17,-4.366 -8.594,-9.409 -3.006,-2.361 -7.944,-4.148 -15.533,-5.624 -11.168,-2.171 -13.061,-1.438 -15.388,5.96 -1.664,5.289 -1.98,5.632 -6.865,7.428 -2.816,1.036 -6.347,2.177 -7.848,2.537 -2.547,0.611 -2.692,0.471 -2.199,-2.11 0.449,-2.353 -0.449,-3.801 -6.061,-9.763 -9.352,-9.935 -14.512,-16.83 -14.512,-19.389 0,-1.215 -1.84,-4.978 -4.089,-8.364 -2.249,-3.386 -5.399,-8.751 -7,-11.923 -2.882,-5.709 -2.911,-5.942 -2.9,-23.045 l 0.011,-17.279 4.103,4.29 c 3.936,4.117 4.198,4.228 6.454,2.75 1.293,-0.847 2.977,-1.54 3.743,-1.54 0.766,0 4.554,3.5 8.417,7.778 3.863,4.279 8.764,8.666 10.892,9.75 2.128,1.085 4.019,2.309 4.202,2.722 0.184,0.413 0.778,0.75 1.32,0.75 0.543,0 2.949,1.35 5.347,3 2.398,1.65 4.725,3 5.17,3 0.445,0 2.726,0.788 5.07,1.75 3.341,1.372 4.505,2.505 5.395,5.25 1.269,3.911 4.79,11.231 5.772,12 0.352,0.275 1.427,1.737 2.389,3.25 3.493,5.489 6.191,1.526 3.07,-4.509 -2.346,-4.537 0.642,-3.017 3.134,1.594 3.328,6.157 7.555,3.253 5.613,-3.856 -1.037,-3.798 -5.92,-10.13 -9.307,-12.068 -0.875,-0.501 -4.902,-3.88 -8.948,-7.509 -4.047,-3.628 -11.633,-10.307 -16.858,-14.841 -21.608,-18.749 -20.639,-17.736 -19.194,-20.088 1.184,-1.927 0.856,-2.653 -3.5,-7.753 -12.32,-14.426 -17.593,-19.249 -24.589,-22.49 l -6.917,-3.205 0.524,-3.907 c 0.289,-2.148 1.043,-4.227 1.678,-4.619 0.634,-0.392 4.869,-0.975 9.411,-1.296 13.833,-0.976 21.247,-5.383 27.258,-16.203 2.456,-4.42 2.78,-6.043 2.794,-14 0.015,-7.969 -0.309,-9.62 -2.825,-14.416 -3.659,-6.973 -11.734,-15.021 -18.46,-18.4 -8.135,-4.086 -19.25,-5.522 -27.591,-3.566"
     stroke="none"
     fill="#d08016"
     fill-rule="evenodd"
     id="path4"
     style="display:inline"
     inkscape:label="child right"
     sodipodi:nodetypes="cccsccsccccccccccsccscscccccssccscccsccccccccssscccccsscccscsscscscsccccccccsccccscssscsccsscccsssccccccccccsccccccccccc" />
  <path
     d="m 290.42074,425.95722 c -0.638,0.768 -2.064,1.16 -3.168,0.871 -1.211,-0.316 -2.493,0.136 -3.227,1.139 -0.82,1.123 -2.353,1.572 -4.704,1.379 -3.067,-0.252 -3.654,0.092 -4.872,2.858 -1.11,2.519 -2.152,3.266 -5.25,3.762 -3.39,0.542 -3.867,0.954 -3.88,3.356 -0.019,3.428 -1.244,5.435 -3.077,5.041 -0.909,-0.196 -1.527,0.744 -1.744,2.655 -0.186,1.626 -1.198,3.704 -2.25,4.617 -2.089,1.811 -2.51,4.929 -0.885,6.554 0.706,0.706 0.551,1.948 -0.494,3.95 -2.155,4.133 -1.956,8.125 0.471,9.424 1.681,0.9 1.903,1.715 1.372,5.035 -0.424,2.649 -0.26,3.962 0.494,3.962 0.62,0 1.128,0.675 1.128,1.5 0,0.825 0.633,1.5 1.406,1.5 0.929,0 1.223,0.701 0.867,2.066 -0.794,3.035 1.647,6.934 4.341,6.934 1.489,0 2.728,0.939 3.581,2.714 0.718,1.492 2.644,3.405 4.282,4.25 1.637,0.845 4.124,2.661 5.526,4.036 4.224,4.14 6.39,4.859 14.621,4.856 9.228,-0.004 13.14,-1.207 13.569,-4.172 0.286,-1.979 0.431,-1.931 2.162,0.723 2.084,3.194 1.581,3.893 -3.919,5.457 -6.711,1.91 -26.635,19.039 -25.635,22.039 0.252,0.755 -0.169,1.723 -0.935,2.152 -0.766,0.429 -5.86,3.967 -11.321,7.862 -5.46,3.896 -10.428,7.083 -11.04,7.083 -0.612,0 -3.338,1.085 -6.059,2.412 -5.761,2.809 -14.64651,6.56022 -20.28014,10.07007 -5.17576,5.16003 -13.63946,8.50551 -15.38888,14.97782 -2.77397,5.09457 -3.57526,11.24518 -1.20481,11.76135 4.15784,-0.88809 5.08449,-9.65479 6.74832,-9.88977 1.41294,1.69983 -1.55791,9.59089 0.81433,8.24441 3.97575,-2.25663 3.87118,-10.93081 9.97331,-18.10192 7.22845,-4.1388 10.41487,-2.55996 15.31487,-3.97996 10.387,-3.01 18.577,-6.368 18.577,-7.617 0,-0.482 0.726,-0.877 1.613,-0.877 1.445,0 7.424,-4.08 17.317,-11.818 3.21,-2.51 5.91,-2.979 7.07,-1.227 0.275,0.415 2.188,1.305 4.25,1.978 4.259,1.388 4.212,1.262 5.8,15.403 0.964,8.583 0.904,10.057 -0.473,11.578 -0.867,0.959 -1.577,2.233 -1.577,2.831 0,0.599 -0.377,1.238 -0.838,1.422 -0.836,0.332 -10.94,13.126 -16.683,21.125 -5.606,7.807 -18.436,25.189 -20.451,27.708 -1.101,1.375 -2.007,3.063 -2.015,3.75 -0.007,0.688 -0.451,1.25 -0.987,1.25 -0.536,0 -1.619,1.237 -2.406,2.75 -0.788,1.513 -2.599,4.1 -4.025,5.75 -1.426,1.65 -2.593,3.357 -2.594,3.794 0,0.436 -1.021,1.893 -2.267,3.237 -1.246,1.343 -3.109,4.009 -4.14,5.924 l -1.874,3.481 3.39,3.09 c 1.864,1.699 5.078,4.644 7.14,6.544 2.277,2.098 3.75,4.372 3.75,5.79 0,1.756 0.932,2.724 3.75,3.897 6.175,2.57 14.445,5.483 19.578,6.896 4.63,1.275 4.804,1.453 4.25,4.338 -2.923,15.218 -2.782,28.298 0.473,44.009 2.742,13.237 2.391,17.542 -2.099,25.736 -2.582,4.71 -2.351,4.764 20.548,4.764 23.818,0 24.45,-0.204 18.647,-6.006 -4.833,-4.834 -6.34,-9.165 -5.567,-15.999 0.373,-3.297 1.07,-5.995 1.549,-5.995 0.479,0 0.871,-0.9 0.871,-2 0,-1.1 0.45,-2 1,-2 0.55,0 1,-1.038 1,-2.306 0,-1.268 0.85,-4.981 1.889,-8.25 1.039,-3.269 3.081,-9.769 4.537,-14.445 3.185,-10.224 3.359,-10.516 6.754,-11.347 1.474,-0.36 3.445,-1.419 4.379,-2.354 1.356,-1.356 3.242,-1.646 9.355,-1.437 6.209,0.211 8.643,-0.176 12.88,-2.05 2.873,-1.271 5.469,-3.08 5.769,-4.02 1.017,-3.186 -3.326,-30.883 -7.729,-49.291 -0.526,-2.2 -1.185,-5.35 -1.464,-7 -0.278,-1.65 -0.898,-3.9 -1.376,-5 -0.479,-1.1 -1.123,-3.687 -1.432,-5.75 -1.284,-8.569 -1.826,-10.75 -2.671,-10.75 -0.49,0 -0.891,-1.225 -0.891,-2.722 0,-1.497 -0.866,-5.659 -1.924,-9.25 -4.86,-16.49 -6.279,-23.029 -5.793,-26.689 2.97,-22.328 3.659,-28.789 3.686,-34.554 0.028,-6.013 0.345,-7.073 3.031,-10.132 1.88,-2.141 3,-4.516 3,-6.36 0,-2.409 1.157,-3.882 6.372,-8.114 11.301,-9.168 19.542,-19.098 22.557,-27.179 0.718,-1.925 1.942,-4.947 2.719,-6.716 0.777,-1.769 2.269,-5.895 3.315,-9.169 3.371,-10.552 5.961,-13.817 14.349,-18.088 3.181,-1.619 8.704,-8.622 8.656,-10.974 -0.027,-1.31 -0.24,-1.279 -1.36,0.197 -1.797,2.367 -3.543,2.216 -2.898,-0.25 0.288,-1.1 0.921,-2 1.407,-2 0.485,0 0.883,-0.9 0.883,-2 0,-1.333 -0.667,-2 -2,-2 -1.1,0 -2,0.402 -2,0.893 0,1.062 -3.061,2.379 -3.804,1.637 -0.284,-0.285 0.3,-1.42 1.298,-2.524 3.519,-3.888 -0.709,-2.105 -4.727,1.994 -2.157,2.2 -4.336,4 -4.844,4 -1.218,0 -1.191,-0.155 0.681,-3.909 1.84,-3.687 1.404,-4.747 -1.257,-3.054 -3.433,2.185 -7.059,9.258 -7.701,15.025 -0.47,4.219 -2.433,9.075 -8.133,20.118 -4.132,8.007 -7.513,15.073 -7.513,15.704 0,2.097 -7.053,11.807 -9.546,13.14 -1.35,0.723 -2.454,1.688 -2.454,2.145 0,0.457 -0.459,0.831 -1.02,0.831 -0.561,0 -2.698,1.036 -4.75,2.302 -2.051,1.267 -4.547,2.128 -5.546,1.914 -0.998,-0.213 -4.273,0.776 -7.277,2.198 -7.463,3.534 -8.731,3.428 -7.928,-0.664 1.339,-6.827 2.569,-7.853 15.271,-12.742 1.788,-0.688 3.25,-1.646 3.25,-2.129 0,-0.484 0.648,-0.879 1.441,-0.879 2.39,0 2.84,-1.925 1.537,-6.579 -0.963,-3.439 -1.709,-4.424 -3.358,-4.436 -1.238,-0.009 -1.662,-0.321 -1.02,-0.75 1.625,-1.085 3.4,-4.812 3.4,-7.139 0,-1.12 -1.35,-3.034 -3,-4.254 -1.65,-1.22 -3,-2.781 -3,-3.47 0,-0.724 -1.579,-1.382 -3.748,-1.562 -3.641,-0.301 -3.814,-0.497 -6.035,-6.81 -1.685,-4.787 -3.45,-7.579 -6.7,-10.593 -3.249,-3.015 -4.271,-4.631 -3.878,-6.133 0.342,-1.311 -0.147,-2.529 -1.369,-3.407 -1.046,-0.752 -2.163,-2.07 -2.482,-2.928 -0.464,-1.248 -2.534,-1.603 -10.314,-1.765 -6.259,-0.131 -10.237,0.215 -11.146,0.969 -1.07,0.888 -1.694,0.891 -2.57,0.015 -1.572,-1.572 -4.264,-1.458 -5.672,0.239 m 13.253,266.853 c -0.428,0.688 -1.097,3.95 -1.487,7.25 -0.389,3.3 -1.415,10.461 -2.28,15.913 -1.673,10.549 -2.129,29.125 -0.737,29.985 0.46,0.284 1.613,-1.115 2.564,-3.109 1.724,-3.614 2.877,-11.718 4.097,-28.789 0.354,-4.95 1.512,-11.86 2.574,-15.355 1.061,-3.496 1.93,-6.533 1.93,-6.75 0,-1.015 -5.974,-0.247 -6.661,0.855"
     stroke="none"
     fill="#a1209d"
     fill-rule="evenodd"
     id="path6"
     inkscape:label="child left"
     sodipodi:nodetypes="ccccccccccscccssscsccccccccscscccccscssscccccsccccscsccscssscccccscssssssccccccccccsscccssccscccccsssscccsccccscsscccccsscscssscccccsccsccccscccsc" />
  <path
     d="m 440.93485,187.5077 c -0.312,0.504 -0.859,35.128 -1.215,76.941 l -0.648,76.026 2.905,0.618 c 1.598,0.34 3.66,0.765 4.581,0.945 2.477,0.483 2.682,-4.794 3.287,-84.697 l 0.535,-70.75 h -4.44 c -2.441,0 -4.694,0.412 -5.005,0.917 m -50.129,170.803 c -5.265,5.264 -7.531,16.958 -4.984,25.718 3.462,11.909 15.15,20.534 27.851,20.552 14.208,0.021 21.787,-7.017 25.837,-23.99 l 1.789,-7.5 -4.691,-4.241 -4.691,-4.241 -1.229,8.509 c -2.148,14.883 -6.272,20.341 -15.949,21.107 -4.847,0.385 -6.54,0.066 -9.826,-1.85 -7.746,-4.515 -10.516,-11.22 -10.524,-25.475 -0.003,-5.055 -0.42,-9.447 -0.925,-9.759 -0.506,-0.313 -1.702,0.214 -2.658,1.17 m 300.203,409.217 c 3.032,-0.05 3.434,-0.242 1.849,-0.885"
     stroke="none"
     fill="#162725"
     fill-rule="evenodd"
     id="path10"
     style="display:inline;fill:#008000;fill-opacity:1"
     inkscape:label="umbrella handle"
     sodipodi:nodetypes="cccscccscccccccccccccccc"
     inkscape:export-filename="/home/david/Development/webdev/jccf/public/images/path16.png"
     inkscape:export-xdpi="300"
     inkscape:export-ydpi="300" />
  <path
     d="m 502.13885,214.9207 c -2.75,0.59 -5.258,1.448 -5.573,1.907 -0.316,0.46 -1.441,1.01 -2.5,1.224 -3.937,0.792 -7.496,2.58 -8.06,4.05 -0.319,0.833 -1.545,1.516 -2.724,1.518 -1.266,0.002 -2.961,1.228 -4.143,2.997 -1.1,1.647 -2.486,2.996 -3.081,2.997 -0.595,0.002 -1.717,1.241 -2.493,2.753 -0.777,1.512 -2.203,3.478 -3.169,4.367 -0.966,0.89 -1.757,2.326 -1.757,3.191 0,0.866 -0.45,1.852 -1,2.192 -0.55,0.34 -1,1.69 -1,3 0,1.31 -0.45,2.66 -1,3 -0.55,0.34 -1,1.69 -1,3 0,1.31 -0.337,2.591 -0.75,2.846 -1.673,1.035 0.097,21.654 1.859,21.654 0.49,0 0.896,0.788 0.902,1.75 0.006,0.962 2.436,3.993 5.4,6.735 l 5.39,4.985 -1.938,3.799 c -2.016,3.952 -1.767,5.307 1.393,7.585 1.033,0.744 1.642,1.97 1.353,2.723 -0.289,0.754 0.243,1.858 1.183,2.455 1.232,0.782 1.36,1.23 0.458,1.609 -1.407,0.592 -1.731,4.359 -0.375,4.359 0.481,0 0.875,2.494 0.875,5.542 0,3.048 0.276,5.818 0.614,6.155 1.02,1.02 12.332,0.536 14.491,-0.619 1.107,-0.593 3.168,-1.078 4.579,-1.078 2.457,0 2.566,0.245 2.569,5.75 0.003,7.024 -3.325,14.25 -6.563,14.25 -1.134,0 -2.96,0.836 -4.057,1.858 -1.931,1.799 -4.775,2.655 -12.639,3.804 -2.066,0.302 -4.005,0.952 -4.309,1.444 -0.304,0.492 -1.426,0.894 -2.494,0.894 -1.068,0 -1.941,0.45 -1.941,1 0,0.55 -0.692,1 -1.537,1 -1.626,0 -10.463,8.535 -10.463,10.105 0,1.239 -2.101,4.84 -4.25,7.283 -0.962,1.094 -1.75,2.386 -1.75,2.872 0,1.407 -2.718,3.74 -4.357,3.74 -1.159,0 -1.411,-0.965 -1.108,-4.25 0.544,-5.913 1.271,-9.004 2.275,-9.677 1,-0.669 0.905,-8.691 -0.116,-9.712 -1.377,-1.377 -0.651,-4.278 1.437,-5.741 4.263,-2.985 2.316,-4.001 -13.759,-7.176 -1.344,-0.266 -3.327,0.626 -5.385,2.423 -3.189,2.784 -3.26,3.03 -3.372,11.567 -0.101,7.652 0.13,8.899 1.885,10.162 1.1,0.791 3.508,2.808 5.35,4.482 l 3.35,3.044 -0.393,8.189 c -0.608,12.678 -4.744,19.681 -14.517,24.579 -2.316,1.16 -4.855,2.11 -5.643,2.11 -1.723,0 -2.805,2.424 -2.009,4.5 0.317,0.825 0.121,1.5 -0.436,1.5 -0.598,0 -1.012,3.267 -1.012,7.986 0,7.965 0.715,9.931 5.289,14.544 2.427,2.448 10.925,4.111 12.521,2.45 0.275,-0.287 1.625,-1.071 3,-1.743 4.349,-2.126 5.996,-3.508 16.15,-13.544 6.663,-6.585 10.116,-10.774 10.511,-12.75 0.324,-1.619 0.908,-2.943 1.297,-2.943 0.39,0 0.76,-0.562 0.822,-1.25 0.223,-2.46 2.724,-8.75 3.479,-8.75 1.151,0 4.733,6.238 4.737,8.25 0.002,0.962 0.454,1.75 1.004,1.75 0.55,0 1,1.098 1,2.441 0,1.343 0.383,2.678 0.852,2.967 0.468,0.29 1.65,2.679 2.626,5.309 0.977,2.631 2.363,6.133 3.081,7.783 4.077,9.365 5.161,17.5 2.333,17.5 -0.491,0 -0.892,0.9 -0.892,2 0,1.1 -0.379,2 -0.843,2 -0.463,0 -1.923,2.138 -3.244,4.75 -1.321,2.612 -2.923,5.301 -3.56,5.975 -0.638,0.673 -2.44,3.936 -4.005,7.25 -1.564,3.314 -3.183,6.025 -3.596,6.025 -0.414,0 -0.752,0.9 -0.752,2 0,1.1 -0.45,2 -1,2 -0.55,0 -1,0.9 -1,2 0,1.1 -0.45,2 -1,2 -0.55,0 -1,0.681 -1,1.514 0,1.495 -1.928,5.516 -3.109,6.486 -0.335,0.275 -1.213,2.188 -1.951,4.25 -0.738,2.063 -1.701,3.75 -2.141,3.75 -0.439,0 -0.799,0.569 -0.799,1.265 0,1.34 -5.872,13.886 -6.896,14.735 -0.332,0.275 -0.722,1.079 -0.866,1.787 -0.145,0.709 -1.112,3.184 -2.149,5.5 -1.037,2.317 -2.491,5.675 -3.231,7.463 -0.741,1.788 -1.686,3.25 -2.102,3.25 -0.416,0 -0.756,0.663 -0.756,1.473 0,1.45 -0.825,3.441 -6.926,16.714 -1.691,3.678 -3.074,7.39 -3.074,8.25 0,0.86 -0.45,1.563 -1,1.563 -0.55,0 -0.902,0.337 -0.782,0.75 0.119,0.413 -0.395,2.325 -1.143,4.25 -0.749,1.925 -1.297,3.837 -1.218,4.25 0.079,0.413 -0.226,0.75 -0.676,0.75 -0.451,0 -1.432,2.25 -2.181,5 -0.749,2.75 -1.649,5 -2,5 -0.351,0 -1.251,2.25 -2,5 -0.749,2.75 -1.73,5 -2.181,5 -0.45,0 -0.819,0.825 -0.819,1.833 0,1.009 -0.337,2.171 -0.75,2.584 -0.413,0.412 -0.752,1.05 -0.754,1.416 -0.006,1.161 -2.888,9.645 -3.454,10.167 -0.298,0.275 -1.644,3.875 -2.992,8 -1.347,4.125 -2.766,8.175 -3.152,9 -0.387,0.825 -1.295,3.525 -2.018,6 -0.723,2.475 -1.896,5.625 -2.607,7 -0.71,1.375 -1.57,4.188 -1.91,6.25 -0.34,2.063 -1.011,3.75 -1.491,3.75 -0.48,0 -0.872,1.323 -0.872,2.941 0,1.618 -0.45,3.219 -1,3.559 -0.55,0.34 -1,1.69 -1,3 0,1.31 -0.45,2.66 -1,3 -0.55,0.34 -1,1.69 -1,3 0,1.31 -0.45,2.66 -1,3 -0.55,0.34 -1,1.716 -1,3.059 0,1.343 -0.45,2.441 -1,2.441 -0.55,0 -1,1.275 -1,2.833 0,1.559 -0.313,3.147 -0.696,3.529 -0.382,0.383 -0.79,1.341 -0.906,2.13 -0.183,1.246 -1.7,6.301 -5.426,18.079 -0.535,1.689 -0.972,4.502 -0.972,6.25 0,1.748 -0.45,3.179 -1,3.179 -0.55,0 -1,1.35 -1,3 0,1.65 -0.362,3 -0.804,3 -0.443,0 -0.908,1.74 -1.033,3.867 -0.223,3.778 -0.097,3.931 5.484,6.661 5.693,2.786 16.929,6.291 23.103,7.208 1.788,0.266 3.25,0.884 3.25,1.373 0,0.49 1.773,0.891 3.941,0.891 2.168,0 4.176,0.381 4.464,0.847 0.288,0.466 1.823,0.884 3.411,0.929 1.588,0.045 6.442,0.826 10.786,1.736 7.635,1.599 16.374,2.807 28.898,3.997 3.3,0.313 7.35,0.801 9,1.084 5.143,0.882 7.755,1.089 15.75,1.25 5.614,0.114 7.75,0.515 7.75,1.458 0,1.899 -2.365,6.682 -3.309,6.691 -0.445,0.004 -0.557,0.417 -0.248,0.916 0.309,0.499 -1.915,3.485 -4.941,6.634 -3.026,3.15 -5.502,6.116 -5.502,6.592 0,0.476 6.3,0.866 14,0.866 h 14 v -5.441 c 0,-2.993 0.45,-5.719 1,-6.059 0.55,-0.34 1,-2.424 1,-4.63 0,-4.89 1.407,-6.37 6.056,-6.37 3.068,0 3.587,0.344 3.779,2.5 0.122,1.375 0.475,3.85 0.784,5.5 0.308,1.65 0.787,5.362 1.063,8.25 0.277,2.888 0.799,5.263 1.161,5.279 9.299,0.413 27.158,0.306 27.157,-0.163 0,-0.349 -2.138,-2.824 -4.75,-5.5 -5.103,-5.227 -7.25,-8.442 -7.25,-10.852 0,-0.833 -0.45,-1.514 -1,-1.514 -0.55,0 -1,-0.9 -1,-2 0,-1.797 0.667,-2 6.566,-2 3.611,0 7.323,-0.401 8.25,-0.892 0.926,-0.491 6.184,-1.128 11.684,-1.416 5.5,-0.288 10.9,-0.777 12,-1.087 1.1,-0.31 4.025,-0.784 6.5,-1.052 11.539,-1.254 15,-1.872 15,-2.68 0,-0.48 1.238,-0.873 2.75,-0.873 2.506,0 10.336,-1.56 20.75,-4.134 2.2,-0.544 5.243,-1.238 6.762,-1.543 1.519,-0.304 3.009,-0.952 3.309,-1.438 0.301,-0.487 1.619,-0.885 2.929,-0.885 1.31,0 2.66,-0.45 3,-1 0.34,-0.55 1.721,-1 3.07,-1 1.348,0 4.359,-0.847 6.691,-1.882 2.331,-1.035 5.651,-2.418 7.376,-3.074 2.475,-0.941 3.037,-1.652 2.665,-3.368 -0.616,-2.839 -3.357,-12.752 -4.058,-14.676 -0.724,-1.989 -1.231,-4.126 -1.467,-6.181 -0.106,-0.924 -0.549,-1.46 -0.985,-1.191 -0.435,0.27 -0.792,-1.337 -0.792,-3.569 0,-2.232 -0.352,-4.059 -0.782,-4.059 -0.43,0 -0.884,-1.237 -1.009,-2.75 -0.124,-1.513 -0.672,-2.9 -1.218,-3.083 -0.545,-0.184 -0.991,-1.331 -0.991,-2.55 0,-1.219 -0.413,-2.644 -0.917,-3.167 -0.505,-0.522 -1.136,-2.3 -1.403,-3.95 -0.491,-3.036 -1.187,-5.365 -2.687,-9 -0.454,-1.1 -1.411,-4.138 -2.128,-6.75 -0.716,-2.612 -1.653,-4.75 -2.083,-4.75 -0.43,0 -0.782,-1.13 -0.782,-2.511 0,-1.381 -0.874,-4.418 -1.942,-6.75 -1.068,-2.331 -2.081,-5.139 -2.25,-6.239 -0.169,-1.1 -0.702,-2.286 -1.183,-2.636 -0.481,-0.35 -0.875,-1.813 -0.875,-3.25 0,-1.438 -0.323,-2.614 -0.717,-2.614 -0.756,0 -3.526,-7.968 -3.215,-9.25 0.1,-0.413 -0.268,-0.75 -0.818,-0.75 -0.55,0 -1,-1.35 -1,-3 0,-1.65 -0.379,-3 -0.842,-3 -0.846,0 -3.68,-7.848 -3.34,-9.25 0.1,-0.413 -0.17,-0.75 -0.6,-0.75 -0.43,0 -1.403,-2.138 -2.163,-4.75 -0.76,-2.612 -1.646,-4.975 -1.969,-5.25 -0.685,-0.584 -3.019,-6.649 -3.615,-9.393 -0.226,-1.042 -1.55,-4.071 -2.941,-6.732 -1.392,-2.661 -2.53,-5.521 -2.53,-6.357 0,-0.835 -0.45,-1.518 -1,-1.518 -0.55,0 -1,-0.668 -1,-1.484 0,-0.816 -1.35,-4.271 -3,-7.677 -1.65,-3.407 -3,-6.987 -3,-7.957 0,-0.97 -0.431,-2.031 -0.958,-2.356 -0.528,-0.326 -1.938,-3.278 -3.134,-6.559 -1.197,-3.282 -2.566,-5.967 -3.042,-5.967 -0.476,0 -0.866,-0.662 -0.866,-1.47 0,-1.337 -3.871,-9.858 -7.624,-16.782 -0.82,-1.514 -1.68,-3.731 -1.91,-4.927 -0.231,-1.196 -0.767,-2.432 -1.193,-2.748 -1.379,-1.022 -3.273,-4.998 -3.273,-6.871 0,-1.004 -0.9,-2.791 -2,-3.972 -1.1,-1.18 -2,-2.84 -2,-3.688 0,-0.848 -0.45,-1.542 -1,-1.542 -0.55,0 -1,-0.9 -1,-2 0,-1.1 -0.45,-2 -1,-2 -0.55,0 -1,-0.862 -1,-1.917 0,-1.054 -0.337,-2.066 -0.75,-2.25 -1.051,-0.467 -5.25,-8.741 -5.25,-10.344 0,-0.727 -0.362,-1.472 -0.803,-1.656 -0.442,-0.183 -2.319,-3.371 -4.171,-7.083 -1.852,-3.712 -3.741,-6.75 -4.197,-6.75 -0.456,0 -0.829,-0.59 -0.829,-1.311 0,-0.722 -0.788,-2.184 -1.75,-3.25 -0.962,-1.067 -1.89,-2.761 -2.062,-3.766 -0.171,-1.005 -1.182,-3.255 -2.246,-5 -2.08,-3.411 -2.568,-8.168 -0.942,-9.173 0.55,-0.34 1,-1.716 1,-3.059 0,-1.343 0.352,-2.441 0.782,-2.441 0.43,0 0.883,-1.218 1.006,-2.706 0.123,-1.488 0.671,-3.153 1.218,-3.7 0.547,-0.547 0.994,-2.029 0.994,-3.294 0,-1.265 0.45,-2.3 1,-2.3 0.55,0 1,-0.9 1,-2 0,-1.1 0.45,-2 1,-2 0.55,0 1,-0.974 1,-2.164 0,-3.178 3.177,-9.836 4.692,-9.836 0.72,0 1.308,0.9 1.308,2 0,1.1 0.45,2 1,2 0.55,0 1,0.863 1,1.917 0,1.054 0.337,2.066 0.75,2.25 0.413,0.183 1.833,2.47 3.157,5.083 1.324,2.613 2.787,4.75 3.25,4.75 0.464,0 0.843,0.9 0.843,2 0,1.1 0.393,2 0.874,2 0.48,0 2.309,2.813 4.063,6.25 5.406,10.595 8.964,16.794 10.547,18.377 0.834,0.834 1.516,1.902 1.516,2.373 0,0.471 0.716,1.573 1.591,2.449 0.876,0.875 1.708,2.144 1.849,2.821 0.491,2.341 1.954,5.236 3.372,6.669 1.972,1.994 10.617,1.775 12.715,-0.323 0.889,-0.889 2.013,-1.616 2.499,-1.616 0.486,0 2.008,-1.125 3.383,-2.5 1.375,-1.375 3.041,-2.5 3.701,-2.5 1.354,0 6.706,3.907 10.367,7.568 1.338,1.338 2.923,2.432 3.523,2.432 0.6,0 2.127,1.013 3.392,2.25 1.266,1.238 3.721,3.491 5.455,5.008 2.974,2.601 3.153,3.155 3.153,9.75 0,3.995 0.429,6.992 1,6.992 0.55,0 1,0.886 1,1.97 0,1.83 3.431,8.9 4.868,10.03 0.349,0.275 1.273,1.737 2.053,3.25 0.779,1.513 1.743,2.75 2.141,2.75 1.371,0 1.929,-3.148 0.899,-5.072 -0.567,-1.061 -0.678,-1.935 -0.246,-1.943 0.432,-0.009 0.157,-0.413 -0.611,-0.899 -0.898,-0.569 -1.124,-1.543 -0.633,-2.735 0.504,-1.225 0.92,-1.428 1.229,-0.601 0.257,0.688 1.134,1.25 1.949,1.25 1.779,0 12.514,10.504 11.634,11.384 -0.339,0.339 0.096,0.616 0.967,0.616 0.871,0 1.828,0.563 2.127,1.25 0.299,0.688 0.267,-0.1 -0.071,-1.75 -0.338,-1.65 -0.915,-3.225 -1.283,-3.5 -0.368,-0.275 -0.959,-1.288 -1.315,-2.25 -1.019,-2.763 1.806,-2.111 3.093,0.713 1.05,2.305 8.043,7.537 10.074,7.537 0.52,0 0.591,-1.436 0.164,-3.327 -0.485,-2.149 -3.104,-5.74 -7.395,-10.138 -3.654,-3.745 -6.644,-7.177 -6.644,-7.627 0,-0.45 -3.302,-4.174 -7.337,-8.275 -4.035,-4.101 -8.585,-8.959 -10.11,-10.795 -1.526,-1.836 -4.749,-5.443 -7.163,-8.016 -2.415,-2.573 -4.39,-4.93 -4.39,-5.238 0,-0.718 -2.656,-3.914 -6.588,-7.93 -1.699,-1.735 -3.612,-4.137 -4.25,-5.338 -1.451,-2.727 -1.518,-7.316 -0.107,-7.316 0.634,0 0.933,-1.893 0.75,-4.75 -0.296,-4.616 -0.455,-4.83 -5.616,-7.596 -3.085,-1.653 -5.695,-3.854 -6.226,-5.25 -0.502,-1.322 -1.6,-2.404 -2.438,-2.404 -0.839,0 -1.525,-0.374 -1.525,-0.831 0,-0.457 -1.237,-1.467 -2.75,-2.243 -3.198,-1.643 -15.25,-13.432 -15.25,-14.918 0,-0.555 -0.45,-1.008 -1,-1.008 -0.55,0 -1,-0.51 -1,-1.133 0,-0.623 -0.809,-1.86 -1.797,-2.75 -0.989,-0.889 -2.971,-3.642 -4.405,-6.117 -2.304,-3.977 -3.633,-5.804 -7.819,-10.75 -0.582,-0.687 -0.703,-1.257 -0.268,-1.265 0.434,-0.009 0.335,-0.346 -0.221,-0.75 -0.555,-0.404 -1.89,-2.415 -2.967,-4.467 -3.647,-6.951 -11.593,-14.24 -17.581,-16.129 -2.993,-0.944 -6.342,-2.114 -7.442,-2.6 -1.1,-0.486 -3.206,-1.144 -4.68,-1.463 -1.474,-0.318 -3.354,-1.253 -4.179,-2.078 -0.824,-0.824 -1.975,-1.498 -2.558,-1.498 -1.688,0 -5.038,-3.263 -4.404,-4.29 0.318,-0.514 0.126,-1.221 -0.426,-1.572 -0.551,-0.351 -1.281,-2.956 -1.621,-5.79 -0.341,-2.834 -0.896,-5.871 -1.233,-6.75 -0.527,-1.375 0.416,-1.598 6.758,-1.598 5.111,0 9.053,-0.649 12.857,-2.116 3.017,-1.164 6.274,-2.161 7.237,-2.215 0.962,-0.053 2.005,-0.901 2.317,-1.883 0.312,-0.982 1.255,-1.786 2.097,-1.786 1.893,0 12.558,-11.038 14.267,-14.766 0.689,-1.504 1.886,-4.008 2.661,-5.565 0.774,-1.557 1.407,-3.47 1.407,-4.25 0,-0.78 0.477,-1.419 1.059,-1.419 0.582,0 0.791,-0.434 0.463,-0.964 -0.327,-0.53 0.096,-3.633 0.941,-6.894 1.747,-6.74 1.991,-15.047 0.577,-19.571 -0.528,-1.689 -1.527,-5.208 -2.219,-7.821 -0.692,-2.613 -1.609,-4.75 -2.039,-4.75 -0.43,0 -0.782,-0.9 -0.782,-2 0,-1.1 -0.45,-2 -1,-2 -0.55,0 -1,-0.723 -1,-1.606 0,-1.907 -4.762,-8.211 -10.72,-14.191 -2.354,-2.363 -4.28,-4.725 -4.28,-5.25 0,-0.524 -0.337,-0.874 -0.75,-0.778 -1.202,0.279 -6.25,-2.414 -6.25,-3.336 0,-0.461 -1.035,-0.839 -2.301,-0.839 -2.634,0 -7.68,-2.132 -7.691,-3.25 -0.004,-0.413 -1.835,-0.75 -4.067,-0.75 -2.232,0 -3.811,-0.402 -3.507,-0.893 0.781,-1.264 -22.868,-1.102 -28.934,0.197 m -17.972,135.65 c -1.213,1.964 0.938,6.65 4.722,10.287 2.152,2.067 4.294,3.759 4.76,3.759 0.466,0 1.442,0.563 2.169,1.25 2.538,2.401 8.525,3.75 16.642,3.75 4.498,0 8.179,-0.352 8.179,-0.782 0,-0.43 2.054,-1.388 4.564,-2.129 4.797,-1.416 15.436,-10.827 15.436,-13.654 0,-2.745 -3.781,-1.41 -7.265,2.565 -1.929,2.2 -4.208,4 -5.064,4 -0.857,0 -2.146,0.788 -2.864,1.751 -1.859,2.491 -7.571,4.249 -13.807,4.249 -4.752,0 -11.614,-1.584 -13,-3 -0.275,-0.281 -2.187,-1.769 -4.25,-3.307 -2.062,-1.537 -3.75,-3.447 -3.75,-4.244 0,-0.797 -0.45,-1.449 -1,-1.449 -0.55,0 -1,-0.9 -1,-2 0,-2.093 -3.341,-2.875 -4.472,-1.046 m -6.909,1.76 c -1.646,1.647 -0.419,6.513 2.381,9.443 1.65,1.727 3,3.748 3,4.491 0,0.744 0.591,1.352 1.313,1.352 0.722,0 2.606,1.35 4.187,3 1.581,1.65 3.525,3 4.32,3 0.795,0 2.209,0.881 3.143,1.957 1.008,1.162 3.217,2.06 5.437,2.209 2.057,0.139 3.96,0.608 4.229,1.043 0.728,1.178 17.371,0.978 17.371,-0.209 0,-0.55 0.9,-1 2,-1 1.1,0 2,-0.45 2,-1 0,-0.55 0.831,-1 1.847,-1 1.016,0 2.885,-0.9 4.153,-2 1.268,-1.1 2.912,-2 3.653,-2 0.741,0 1.353,-0.337 1.36,-0.75 0.008,-0.413 2.396,-3.237 5.308,-6.277 5.798,-6.053 6.905,-7.989 5.692,-9.952 -0.599,-0.969 -1.751,-0.409 -4.541,2.207 -5.502,5.159 -7.409,6.772 -8.005,6.772 -0.294,0 -2.102,1.569 -4.019,3.486 -1.918,1.917 -4.715,3.779 -6.217,4.138 -1.502,0.358 -3.181,0.988 -3.731,1.399 -1.627,1.215 -21.5,1.247 -21.5,0.034 0,-0.581 -0.681,-1.057 -1.514,-1.057 -1.929,0 -5.496,-1.997 -7.593,-4.25 -0.895,-0.962 -2.114,-1.75 -2.709,-1.75 -0.595,0 -2.343,-1.687 -3.883,-3.75 -1.541,-2.062 -3.138,-3.9 -3.551,-4.083 -0.413,-0.184 -0.75,-1.003 -0.75,-1.822 0,-1.798 -2.514,-4.498 -3.381,-3.631 m 161.131,343.858 c -3.983,2.161 -3.538,3.656 2.003,6.736 l 3.252,1.808 0.999,-2.627 c 1.288,-3.387 0.259,-7.501 -1.862,-7.449 -0.903,0.022 -2.879,0.711 -4.392,1.532 m -257.603,3.178 c 0.481,6.006 4.488,8.409 7.085,4.25 1.465,-2.345 4.269,-2.748 3.402,-0.488 -0.61,1.59 2.285,7.63 3.914,8.168 0.524,0.172 1.822,-0.985 2.885,-2.571 1.599,-2.387 2.161,-2.658 3.25,-1.569 0.724,0.725 1.317,1.938 1.317,2.697 0,0.76 0.585,2.18 1.299,3.158 1.202,1.643 1.541,1.495 4.5,-1.97 3.701,-4.333 4.208,-6.922 1.202,-6.136 -1.099,0.288 -2.251,0.115 -2.559,-0.383 -0.308,-0.498 -1.637,-0.906 -2.954,-0.906 -2.381,0 -4.134,-0.594 -12.227,-4.142 -2.332,-1.022 -4.893,-1.858 -5.691,-1.858 -0.799,0 -1.73,-0.45 -2.07,-1 -0.34,-0.55 -1.301,-1 -2.136,-1 -1.14,0 -1.443,0.932 -1.217,3.75 m 248.853,0.18 c -0.825,0.477 -4.65,1.644 -8.5,2.592 -3.85,0.948 -7.515,2.134 -8.145,2.636 -0.629,0.502 -1.529,0.801 -2,0.665 -0.47,-0.137 -1.835,0.296 -3.033,0.961 -1.197,0.665 -2.885,0.937 -3.75,0.605 -2.638,-1.012 -1.767,1.538 1.828,5.349 3.117,3.303 3.534,3.471 5,2.004 0.88,-0.879 1.6,-3.206 1.6,-5.171 0,-1.964 0.269,-3.571 0.599,-3.571 0.329,0 1.86,1.35 3.401,3 3.361,3.598 5.987,3.925 6.032,0.75 0.017,-1.237 0.665,-3.086 1.438,-4.107 1.351,-1.783 1.511,-1.753 4.014,0.75 4.385,4.385 6.516,3.084 6.516,-3.975 0,-3.564 -1.691,-4.405 -5,-2.488 m -216.302,7.706 c -1.584,1.584 0.497,10.333 2.463,10.356 1.337,0.016 5.839,-6.205 5.839,-8.069 0,-1.367 -0.699,-1.923 -2.418,-1.923 -1.33,0 -3.041,-0.239 -3.802,-0.531 -0.762,-0.292 -1.698,-0.217 -2.082,0.167 m 184.856,1.276 c -0.31,0.502 -1.911,0.7 -3.559,0.44 -3.813,-0.601 -3.925,1.14 -0.35,5.455 3.231,3.901 6.355,4.27 6.355,0.752 0,-1.343 0.408,-2.693 0.906,-3.001 1.309,-0.809 0.105,-4.558 -1.464,-4.558 -0.728,0 -1.578,0.41 -1.888,0.912 m -175.201,3.157 c 0.177,1.617 0.62,3.237 0.984,3.602 0.365,0.364 0.663,1.487 0.663,2.496 0,2.113 1.077,2.356 2.8,0.633 0.66,-0.66 1.207,-0.772 1.215,-0.25 0.008,0.522 0.57,-0.139 1.25,-1.471 1.955,-3.832 3.551,-3.579 5.321,0.845 0.897,2.242 2.171,4.076 2.83,4.076 1.18,0 4.584,-6.562 4.584,-8.836 0,-1.012 -4.854,-1.689 -9.985,-1.393 -0.817,0.047 -1.717,-0.263 -2,-0.688 -0.283,-0.426 -2.195,-1.039 -4.249,-1.363 -3.649,-0.576 -3.727,-0.522 -3.413,2.349 m 162.647,-0.952 c 0,0.651 -1.041,0.917 -2.5,0.638 -3.364,-0.643 -3.388,2.448 -0.045,5.79 2.95,2.951 5.545,3.191 5.545,0.514 0,-1.068 0.45,-2.219 1,-2.559 0.55,-0.34 1,-1.716 1,-3.059 0,-1.937 -0.516,-2.441 -2.5,-2.441 -1.375,0 -2.5,0.502 -2.5,1.117 m -141,4.427 c 0,2.386 0.81,4.417 2.48,6.218 2.435,2.626 2.507,2.639 3.968,0.706 0.819,-1.082 1.503,-2.53 1.52,-3.218 0.043,-1.667 4.032,-1.617 4.032,0.051 0,2.085 2.408,6.683 3.5,6.683 0.55,0.001 2.033,-1.808 3.295,-4.018 2.009,-3.517 2.477,-3.837 3.75,-2.564 0.8,0.8 1.469,2.05 1.487,2.777 0.017,0.726 0.635,2.116 1.373,3.088 1.514,1.996 4.595,1.362 4.595,-0.945 0,-0.806 0.675,-2.14 1.5,-2.965 0.825,-0.825 1.5,-2.09 1.5,-2.812 0,-1.772 -4.069,-2.733 -5.732,-1.352 -0.978,0.812 -1.93,0.811 -3.552,-0.003 -1.219,-0.611 -4.916,-1.358 -8.216,-1.659 -8.245,-0.753 -12.424,-1.599 -13.071,-2.646 -1.227,-1.986 -2.429,-0.67 -2.429,2.659 m 132,-2.592 c 0,0.524 -2.587,0.905 -5.75,0.847 -6.28,-0.115 -12.25,0.985 -12.25,2.257 0,0.443 1.013,2.392 2.25,4.332 3.084,4.835 5.391,4.693 6.249,-0.383 0.907,-5.367 2.141,-5.827 4.177,-1.558 3.204,6.718 8.182,3.238 7.435,-5.197 -0.128,-1.446 -2.111,-1.725 -2.111,-0.298 m -25.967,3.415 c -0.557,0.557 -4.73,1.081 -9.273,1.163 -16.502,0.301 -16.761,0.335 -16.744,2.22 0.017,1.876 5.153,8.25 6.647,8.25 0.495,0 1.498,-2.025 2.229,-4.5 1.522,-5.154 2.234,-5.501 4.108,-2 0.736,1.375 1.712,2.5 2.169,2.5 0.457,0 0.831,0.9 0.831,2 0,3.683 3.212,1.276 4.35,-3.26 0.379,-1.507 1.189,-2.74 1.802,-2.74 1.242,0 4.848,3.833 4.848,5.153 0,2.024 2.852,0.6 3.812,-1.903 2.498,-6.516 2.45,-6.985 -0.759,-7.455 -1.653,-0.243 -3.462,0.014 -4.02,0.572 m -72.033,1.8 c 0,0.844 3.776,8.813 4.617,9.743 0.618,0.685 4.377,-4.111 3.868,-4.934 -0.26,-0.422 0.256,-1.046 1.147,-1.388 1.685,-0.647 4.368,0.954 4.368,2.606 0,0.522 0.675,1.624 1.5,2.449 1.658,1.657 2.778,0.928 5.25,-3.418 2.503,-4.402 1.734,-5.218 -5,-5.311 -3.437,-0.048 -8.388,-0.216 -11,-0.373 -2.612,-0.158 -4.75,0.124 -4.75,0.626 m 23.564,2.083 c 0.874,2.816 4.301,7.75 5.383,7.75 0.446,0 1.37,-1.35 2.053,-3 1.779,-4.296 5.411,-3.672 7.275,1.25 1.079,2.849 3.142,2.01 4.869,-1.982 2.549,-5.889 1.955,-6.268 -9.818,-6.268 -10.389,0 -10.456,0.016 -9.762,2.25"
     stroke="none"
     fill="#f0cf0d"
     fill-rule="evenodd"
     id="path12"
     style="display:inline;fill:#ae3e09;fill-opacity:1"
     inkscape:label="mother" />
  <path
     d="m 426.88285,61.6617 c -11.408,1.98 -17.938,3.048 -21.853,3.572 -6.04861,0.94392 -12.05026,2.23223 -17.031,3.418 -8.234,2.124 -18.61,5.452 -18.613,5.971 -9.8604,4.04363 -18.56319,7.69577 -28.12418,12.22299 -7.54866,3.48795 -24.17005,15.87118 -30.13149,20.20902 -13.69682,10.4189 -36.82413,28.5553 -63.62533,56.73599 -0.208,0.587 -2.12,2.917 -4.25,5.178 -2.53849,3.59339 -5.56882,7.07455 -7.872,10.379 -5.76121,9.53331 -12.336,19.28309 -18,27.501 -1.407,3.67957 -5.03735,7.64089 -5.482,10.742 0.262,0 2.615,-2.183 5.229,-4.85 2.614,-2.668 7.566,-6.734 11.003,-9.037 3.18136,-2.56849 5.6026,-4.35155 8.705,-6.075 2.63479,-1.24649 4.492,-2.598 8.592,-4.618 9.37512,-5.93545 20.07966,-7.47004 27.953,-8.949 4.125,-0.771 13.166,-1.417 20.09,-1.436 14.312,-0.04 25.748,2.269 32.115,6.482 2.064,1.366 4.123,2.483 4.577,2.483 1.805,0 11.858,12.41 13.973,17.25 0.661,1.512 1.817,2.75 2.569,2.75 1.046,0 2.78704,-5.05429 3.29304,-14.42429 0.364,-6.738 0.85988,-11.02018 1.37088,-13.22018 0.51,-2.2 0.18708,-7.55553 0.55908,-10.85553 0.371,-3.3 0.858,-6.306 1.081,-6.681 0.222,-0.374 0.021,-0.918 -0.447,-1.207 0.36362,-12.13553 2.90526,-21.06841 6.36,-31.612 0.981,-3.025 2.882,-7.975 4.224,-11 1.343,-3.025 2.938,-6.625 3.545,-8 1.80859,-5.24762 5.58036,-9.78487 8.685,-13.474 4.56134,-4.87557 12.54788,-12.30696 17.106,-16.526 9.88452,-6.57134 19.64571,-12.25106 30.205,-13 2.146,0 12.844,-8.051 12.414,-9.343 -0.506,-1.517 -2.171,-1.636 -8.22,-0.586 m 44.5,1.574 c 0.97503,2.35698 9.34662,8.31653 9.979,8.355 11.18164,2.14837 18.77394,6.21131 27.543,12.16 5.76416,4.8433 12.39914,9.0945 20.00833,16.72838 7.96159,11.50745 9.33975,18.99247 14.46967,29.12562 2.5558,5.92483 4.3532,11.06499 5.107,15.986 0.79338,7.64992 0.98981,12.67214 1.775,18.451 0,0 1.363,17.812 1.59,27.3 0.226,9.488 -0.65931,14.94296 -0.31931,15.49296 2.34359,-0.84235 2.8305,-1.51218 4.56565,-3.08073 6.53716,-10.30776 20.55391,-19.00957 33.28166,-20.92723 6.9776,-0.49603 27.488,-0.598 34.5,0.654 9.555,1.707 23.609,6.287 28.5,9.286 2.475,1.519 6.3,3.735 8.5,4.927 2.2,1.191 2.8833,1.83003 4.735,3.281 4.03012,3.49115 8.74999,6.55312 11.879,9.733 2.742,2.815 5.224,4.878 5.516,4.586 -2.24744,-4.19515 -9.87769,-19.16314 -11.63,-22.703 -6.32951,-10.8735 -8.73723,-13.48206 -12,-18.029 -6.64323,-9.03377 -14.07034,-19.57652 -20.858,-26.75 -8.73479,-11.11632 -20.16657,-20.62775 -29.282,-29.221 -7.10403,-6.76082 -15.2898,-13.07524 -23.296,-17.907 -19.62857,-12.61415 -21.47448,-13.30587 -42.70201,-22.75837 -9.59667,-4.02795 -16.83517,-5.52162 -26.5,-8.271 -6.32,-1.799 -22.90199,-5.57563 -32.36199,-6.50563 -3.575,-0.351 -7.962,-0.895 -9.75,-1.209 -2.71,-0.477 -3.25,-0.261 -3.25,1.296 m -188.5,128.423 c -12.424,1.053 -13.74555,1.29836 -17.20957,1.92547 -4.39395,1.50253 -9.06609,2.74768 -14.40543,4.41453 -4.22359,1.80057 -4.76987,2.42506 -7.338,3.592 -3.0457,1.37562 -6.547,2.163 -6.547,3.161 0,0.461 3.518,0.839 7.818,0.839 7.632,0 15.909,1.789 21.422,4.629 1.506,0.776 2.947,1.426 3.201,1.444 0.254,0.018 2.846,2.251 5.76,4.962 2.915,2.712 5.974,4.933 6.799,4.937 0.825,0.003 3.3,-1.686 5.5,-3.755 2.2,-2.069 12.41319,-8.87007 15.441,-10.217 4.43338,-1.74038 9.21686,-3.08255 13.559,-4.02 2.75,-0.611 7.526,-1.193 10.614,-1.295 5.54,-0.183 5.586,-0.209 3.514,-2.007 -1.155,-1.003 -3.344,-2.071 -4.864,-2.375 -6.52924,-2.87943 -10.69879,-4.00858 -15.764,-5.307 -4.994,-1.276 -18.156,-1.72 -27.5,-0.928 m 306.187,0.578 c -4.91096,0.59603 -17.96708,5.39898 -21.685,8.104 5.34033,1.82775 17.72107,2.27682 25.498,5.217 7.73089,3.57246 16.36796,8.78178 23.616,14.167 l 1.819,2.097 3.992,-4.155 c 5.08032,-3.99188 27.85953,-12.42635 33.926,-13.155 2.08353,-0.0178 4.294,0.332 -0.419,-2.304 -6.825,-3.817 -20.843,-8.289 -29.956,-9.557 -8.286,-1.152 -35.743,-1.461 -36.791,-0.414"
     stroke="none"
     fill="#197820"
     fill-rule="evenodd"
     id="path14"
     sodipodi:nodetypes="ccccccccccccccccccscsccccccccccccccccccccccccccccccccccccccccccccsscsscsccscccccccccccccc"
     style="display:inline;fill:#008000;fill-opacity:1"
     inkscape:label="umbrella sides"
     inkscape:export-filename="/home/david/Development/webdev/jccf/public/images/path16.png"
     inkscape:export-xdpi="300"
     inkscape:export-ydpi="300" />
  <path
     d="m 443.88585,47.1827 c -2.422,2.613 -3.072,5.586 -2.574,11.777 0.219,2.718 -3.83766,1.87335 -8.72107,2.11861 -9.63468,4.73061 -8.89202,5.08439 -15.306,10.167 -4.28361,4.77503 -8.60355,8.66457 -16.82793,17.36839 -8.62,8.552 -11.686,12.379 -20.016,24.977 -5.29311,7.4337 -10.11873,16.37382 -14.362,23.5 -3.52141,5.35519 -6.20861,11.89239 -8.509,16.65 -2.303,4.757 -2.84537,7.01199 -4.187,9.809 -2.37921,3.51572 -1.92631,13.44082 -2.604,18.041 -1.265,8.525 -2.322,18.322 -2.348,21.772 l -0.048,6.272 5.723,-6.022 c 5.34954,-5.07351 18.47405,-13.71826 23.167,-16.022 0.471,0 2.825,-0.839 5.233,-1.865 4.36,-1.858 6.476,-2.65 8.377,-3.136 8.88742,-3.44862 16.5044,-4.15613 25.5,-5.441 7.793,-1.132 11.077,-1.372 28,-2.044 15.2,-0.604 30.128,0.336 46.952,2.956 11.27,1.756 28.93516,8.24953 36.487,12.112 6.31739,3.7906 12.8193,7.6903 18.038,12.57 2.952,2.806 5.244,4.3 5.632,3.671 1.16,-1.876 0.9,-21.008 -0.429,-31.602 -0.709,-5.653 -1.068,-10.5 -0.798,-10.77 -3.68347,-9.09286 -9.52079,-26.25672 -15.885,-34.451 -0.795,-0.79 -6.997,-11.08 -6.997,-11.609 0,-0.261 -0.463,-1.019 -1.028,-1.683 -0.566,-0.664 -3.76,-4.986 -7.097,-9.604 -7.633,-10.561 -16.51739,-19.14349 -26.625,-27.803 -15.62119,-13.84996 -13.87076,-17.21956 -24.948,-17.545 l -7.198,0.505 0.187,-5.571 c 0.27,-7.998 -2.184,-11.082 -9.145,-11.494 -4.505,-0.267 -5.451,0.03 -7.643,2.396 m -17.683,139.876 c -0.176,0.15 -5.27,0.565 -11.32,0.922 -6.05,0.358 -12.8,1.069 -15,1.581 -2.2,0.512 -4.113,0.953 -4.25,0.98 -10.98247,3.50686 -23.96191,6.01996 -33.25,11.912 0,0.729 3.23589,0.32735 5,0.189 9.64063,-0.75607 21.47479,0.90869 30.45,3.082 7.73871,2.42093 15.06125,6.67063 21.164,10.302 5.08341,4.48662 8.69832,6.40174 12.442,10.814 1.385,1.66 1.906,1.856 1.987,0.75 0.061,-0.825 0.312,-2.4 0.558,-3.5 0.404,-1.799 0.682,-6.275 1.78,-28.677 0.18,-3.672 0.056,-7.047 -0.277,-7.5 m 19.619,10.023 c 0.188,6.135 0.614,12.729 0.946,14.654 0.332,1.925 0.698,5.277 0.813,7.449 0.55054,5.14345 1.18353,6.68063 1.803,9.551 0.284,0 2.474,-1.937 4.866,-4.304 2.392,-2.367 6.374,-5.848 8.849,-7.736 2.475,-1.887 3.0946,-2.52519 5.756,-4.63 3.08019,-2.04207 4.11081,-2.66796 7.356,-4.063 10.57551,-4.10537 21.91895,-6.34033 33.888,-6.569 6.325,-0.109 12.962,0.175 14.75,0.631 1.788,0.457 3.25,0.45 3.25,-0.013 -6.96522,-5.12065 -19.83581,-9.1057 -31.102,-11.794 -14.05381,-2.79939 -26.99829,-3.49481 -37.957,-3.877 l -13.559,-0.454 0.341,11.155 m 56.027,178.377 c 1.788,0.222 4.712,0.222 6.5,0 1.788,-0.221 0.325,-0.403 -3.25,-0.403 -3.575,0 -5.038,0.182 -3.25,0.403 m 16.978,385.999 c 1.775,0.221 4.925,0.224 7,0.008 2.074,-0.217 0.622,-0.397 -3.228,-0.402 -3.85,-0.004 -5.548,0.173 -3.772,0.394"
     stroke="none"
     fill="#cfcfcf"
     fill-rule="evenodd"
     id="path16"
     style="display:inline;fill:#008000;fill-opacity:1"
     inkscape:label="umbrella middle"
     sodipodi:nodetypes="cccccccccccccccccccccccccsccccccccccsccscccccsccsccsccccccccccccsccccc"
     inkscape:export-filename="/home/david/Development/webdev/jccf/public/images/path16.png"
     inkscape:export-xdpi="300"
     inkscape:export-ydpi="300" />
  <path
     d="m 395.21457,758.70733 c -63.086,1.059 -177.81185,-1.97742 -180.60685,-0.94342 -0.57192,24.8077 22.96079,50.83286 64.66996,84.12607 32.75397,25.73129 152.49523,76.51066 232.92517,77.35826 74.6225,-0.95859 194.20274,-52.81119 232.2932,-77.35826 42.51891,-28.86095 69.22522,-65.46418 68.73654,-82.46823 -107.39399,-0.90975 -215.34117,0.23304 -322.01802,-1.03142 -24.475,-0.301 -67.675,-0.159 -96,0.317"
     stroke="none"
     fill="#162725"
     fill-rule="evenodd"
     id="path1179"
     sodipodi:nodetypes="cccccccc"
     style="display:inline;fill:#18771f;fill-opacity:1"
     inkscape:label="earth" />
  <ellipse
     style="display:none;fill:none;stroke:none;stroke-width:3.56853"
     id="path60872"
     cx="513.94928"
     cy="-509.36121"
     rx="426.19864"
     ry="404.39648"
     transform="rotate(90)" />
  <ellipse
     style="display:none;fill:none;stroke:none;stroke-width:4.26771"
     id="path60872-1"
     cx="-509.08273"
     cy="-525.97681"
     rx="488.59546"
     ry="504.52322"
     transform="matrix(0.00571068,-0.99998369,-0.99997654,-0.00684909,0,0)" />
  <text
     xml:space="preserve"
     style="font-style:normal;font-weight:normal;font-size:74.6667px;line-height:1.25;font-family:sans-serif;letter-spacing:5px;display:inline;fill:#000000;fill-opacity:1;stroke:#000000"
     id="text73939-3"
     transform="matrix(0.21012514,0.97742179,-0.97185079,0.21132964,897.3354,-123.78088)"
     inkscape:transform-center-x="-141.64648"
     inkscape:transform-center-y="-213.27843"
     inkscape:export-filename="/home/david/Development/webdev/jccf/public/images/text73939-3.png"
     inkscape:export-xdpi="300"
     inkscape:export-ydpi="300"><textPath
       xlink:href="#path60872-1"
       startOffset="50%"
       id="textPath86361-6"
       style="font-style:normal;font-variant:normal;font-weight:bold;font-stretch:normal;font-family:'Roboto Slab';-inkscape-font-specification:'Roboto Slab Bold'">Joyful Childhood Care Foundation</textPath></text>
</svg>
